<svg width="24" height="24" viewBox="0 0 24 24" fill="none" xmlns="http://www.w3.org/2000/svg">
  <path d="M20.393 8.03203L18.646 6.51503C17.387 5.42203 16.894 4.83403 16.212 5.04103C15.362 5.30103 15.642 6.93603 15.642 7.48803C14.321 7.48803 12.947 7.38703 11.644 7.59803C7.344 8.29803 6 11.357 6 14.653C7.217 13.906 8.433 13.075 9.895 12.729C11.721 12.297 13.76 12.503 15.642 12.503C15.642 13.055 15.362 14.691 16.212 14.95C16.984 15.186 17.387 14.57 18.646 13.477L20.393 11.96C21.464 11.03 22 10.564 22 9.99603C22 9.42803 21.464 8.96203 20.393 8.03203Z" stroke="#848484" stroke-width="1.5" stroke-linecap="round" stroke-linejoin="round" />
  <path d="M10.568 3C6.708 3.007 4.686 3.102 3.394 4.39C2 5.783 2 8.022 2 12.5C2 16.978 2 19.217 3.394 20.609C4.788 22 7.032 22 11.52 22C16.008 22 18.25 22 19.645 20.609C20.615 19.64 20.91 18.26 21 16" stroke="#848484" stroke-width="1.5" stroke-linecap="round" stroke-linejoin="round" />
</svg>