<svg width="14" height="10" viewBox="0 0 14 10" fill="none" xmlns="http://www.w3.org/2000/svg">
  <path d="M1.59952 6.18591C2.74175 7.36527 4.73378 9 7.00014 9C9.26649 9 11.2581 7.36527 12.4004 6.18591C12.7016 5.87488 12.8527 5.71883 12.9487 5.41344C13.0171 5.19555 13.0171 4.80452 12.9487 4.58663C12.8527 4.28123 12.7016 4.12516 12.4004 3.81409C11.2581 2.63473 9.26649 1 7.00014 1C4.73378 1 2.74175 2.63473 1.59952 3.81409C1.29804 4.12537 1.14729 4.28112 1.05133 4.58663C0.98289 4.80452 0.98289 5.19555 1.05133 5.41344C1.14729 5.71895 1.29804 5.87463 1.59952 6.18591Z" stroke="white" stroke-linecap="round" stroke-linejoin="round" />
  <path d="M5.7162 5.00003C5.7162 5.73641 6.29099 6.33337 7.00002 6.33337C7.70905 6.33337 8.28383 5.73641 8.28383 5.00003C8.28383 4.26364 7.70905 3.66669 7.00002 3.66669C6.29099 3.66669 5.7162 4.26364 5.7162 5.00003Z" stroke="white" stroke-linecap="round" stroke-linejoin="round" />
</svg>