<svg width="24" height="24" viewBox="0 0 24 24" fill="none" xmlns="http://www.w3.org/2000/svg">
  <path d="M3 10.234L3.747 10.17C3.72978 9.97794 3.63924 9.79987 3.49416 9.6728C3.34909 9.54572 3.16064 9.47942 2.96796 9.48766C2.77528 9.4959 2.59318 9.57804 2.45948 9.71703C2.32578 9.85602 2.25076 10.0412 2.25 10.234H3ZM20.236 12.057L19.53 16.137L21.009 16.393L21.714 12.313L20.236 12.057ZM13.245 21.25H8.596V22.75H13.245V21.25ZM7.685 20.413L6.873 11.02L5.378 11.149L6.191 20.542L7.685 20.413ZM19.53 16.137C19.023 19.067 16.381 21.25 13.245 21.25V22.75C17.071 22.75 20.371 20.081 21.009 16.393L19.53 16.137ZM13.255 5.10003L12.592 9.14503L14.072 9.38703L14.735 5.34303L13.255 5.10003ZM7.188 10.246L8.627 9.00603L7.647 7.87003L6.21 9.11003L7.188 10.246ZM11.244 4.97203L11.72 3.13803L10.268 2.76203L9.792 4.59503L11.244 4.97203ZM12.438 2.77803L12.583 2.82503L13.042 1.39703L12.897 1.35003L12.438 2.77803ZM10.523 6.81603C10.8352 6.23193 11.0772 5.61297 11.244 4.97203L9.792 4.59503C9.65421 5.12131 9.45553 5.62975 9.2 6.11003L10.523 6.81603ZM12.583 2.82503C12.7255 2.86868 12.8547 2.94741 12.9588 3.05399C13.063 3.16057 13.1387 3.29159 13.179 3.43503L14.631 3.05903C14.5281 2.67033 14.3284 2.31403 14.0505 2.0234C13.7727 1.73277 13.4257 1.51727 13.042 1.39703L12.583 2.82503ZM11.72 3.13803C11.7402 3.06614 11.7757 2.99946 11.824 2.94251C11.8724 2.88557 11.9324 2.8397 12 2.80803L11.349 1.45703C10.817 1.71303 10.417 2.18703 10.268 2.76203L11.72 3.13803ZM12 2.80803C12.137 2.74305 12.2935 2.73233 12.438 2.77803L12.897 1.35003C12.3863 1.18676 11.8324 1.22504 11.349 1.45703L12 2.80803ZM14.154 10.984H19.334V9.48403H14.154V10.984ZM4.719 21.406L3.747 10.17L2.253 10.299L3.223 21.535L4.719 21.406ZM3.75 21.513V10.234H2.25V21.513H3.75ZM3.223 21.535C3.21995 21.4987 3.22549 21.4621 3.23733 21.4276C3.24918 21.3931 3.26807 21.3615 3.2928 21.3347C3.31753 21.3079 3.34757 21.2865 3.381 21.2719C3.41443 21.2574 3.45053 21.2499 3.487 21.25V22.75C4.213 22.75 4.781 22.128 4.719 21.406L3.223 21.535ZM14.735 5.34303C14.8607 4.58281 14.8253 3.80467 14.631 3.05903L13.179 3.43603C13.3208 3.97921 13.3467 4.54617 13.255 5.10003L14.735 5.34303ZM8.596 21.25C8.36701 21.2496 8.14648 21.1635 7.97785 21.0086C7.80923 20.8536 7.70475 20.6412 7.685 20.413L6.191 20.542C6.24303 21.1442 6.51888 21.705 6.96411 22.1137C7.40933 22.5225 7.99159 22.7495 8.596 22.75V21.25ZM8.627 9.00603C9.307 8.42003 10.039 7.72303 10.524 6.81603L9.2 6.11003C8.854 6.75903 8.303 7.30603 7.647 7.87003L8.627 9.00603ZM21.714 12.313C21.7742 11.966 21.7578 11.61 21.666 11.27C21.5741 10.93 21.4091 10.6142 21.1823 10.3447C20.9556 10.0752 20.6727 9.85849 20.3534 9.70982C20.0341 9.56116 19.6862 9.48409 19.334 9.48403V10.984C19.901 10.984 20.334 11.496 20.236 12.057L21.714 12.313ZM3.487 21.25C3.633 21.25 3.75 21.368 3.75 21.513H2.25C2.25 22.195 2.803 22.75 3.487 22.75V21.25ZM12.592 9.14503C12.5547 9.37161 12.5672 9.60358 12.6285 9.82487C12.6899 10.0461 12.7986 10.2514 12.9472 10.4265C13.0958 10.6015 13.2807 10.7422 13.4891 10.8386C13.6975 10.9351 13.9244 10.984 14.154 10.984V9.48403C14.1418 9.48408 14.1297 9.48244 14.1187 9.4773C14.1076 9.47216 14.0978 9.46465 14.09 9.45529C14.0821 9.44593 14.0765 9.43496 14.0734 9.42316C14.0703 9.41137 14.0698 9.39903 14.072 9.38703L12.592 9.14503ZM6.873 11.02C6.8608 10.8752 6.88208 10.7296 6.937 10.5951C6.99193 10.4605 7.07794 10.3409 7.188 10.246L6.208 9.10903C5.91814 9.35916 5.69177 9.6745 5.54748 10.0291C5.4032 10.3838 5.34511 10.7676 5.378 11.149L6.873 11.02Z" fill="black" />
</svg>