<svg width="24" height="24" viewBox="0 0 24 24" fill="none" xmlns="http://www.w3.org/2000/svg">
  <path d="M11.8 1C8.93566 1 6.18864 2.13785 4.16325 4.16325C2.13785 6.18864 1 8.93566 1 11.8C1 14.6643 2.13785 17.4114 4.16325 19.4368C6.18864 21.4621 8.93566 22.6 11.8 22.6C14.6643 22.6 17.4114 21.4621 19.4368 19.4368C21.4621 17.4114 22.6 14.6643 22.6 11.8C22.6 8.93566 21.4621 6.18864 19.4368 4.16325C17.4114 2.13785 14.6643 1 11.8 1ZM2.332 12.616H5.344C5.392 13.708 5.5444 14.7928 5.8 15.856H3.208C2.72562 14.8367 2.42897 13.7395 2.332 12.616ZM12.616 6.136V2.428C13.7724 2.86747 14.7227 3.72355 15.28 4.828C15.5264 5.2448 15.7424 5.6768 15.928 6.124L12.616 6.136ZM16.48 7.756C16.7584 8.8156 16.924 9.9016 16.972 10.996H12.616V7.756H16.48ZM10.984 2.428V6.136H7.672C7.857 5.68919 8.07355 5.25609 8.32 4.84C8.87496 3.73102 9.82551 2.87039 10.984 2.428ZM10.984 7.756V10.996H6.64C6.688 9.9016 6.8536 8.8156 7.132 7.756H10.984ZM5.344 10.984H2.332C2.42897 9.86049 2.72562 8.7633 3.208 7.744H5.8C5.54294 8.80659 5.39022 9.89174 5.344 10.984ZM6.64 12.616H10.984V15.856H7.132C6.8547 14.7963 6.68979 13.7103 6.64 12.616ZM10.996 17.416V21.124C9.83958 20.6845 8.88934 19.8285 8.332 18.724C8.08555 18.3079 7.869 17.8748 7.684 17.428L10.996 17.416ZM12.616 21.124V17.476H15.928C15.743 17.9228 15.5265 18.3559 15.28 18.772C14.7227 19.8765 13.7724 20.7325 12.616 21.172V21.124ZM12.616 15.796V12.556H16.96C16.9102 13.6503 16.7453 14.7363 16.468 15.796H12.616ZM18.268 12.556H21.28C21.183 13.6795 20.8864 14.7767 20.404 15.796H17.8C18.052 14.752 18.2044 13.6876 18.256 12.616L18.268 12.556ZM18.268 10.936C18.214 9.86348 18.0573 8.79861 17.8 7.756H20.392C20.8756 8.776 21.172 9.8728 21.268 10.996L18.268 10.936ZM19.468 6.136H17.32C16.9317 5.04419 16.3684 4.02283 15.652 3.112C17.1453 3.7823 18.4423 4.82326 19.42 6.136H19.468ZM7.948 3.112C7.23163 4.02283 6.66826 5.04419 6.28 6.136H4.18C5.15767 4.82326 6.45474 3.7823 7.948 3.112ZM4.168 17.512H6.28C6.66826 18.6038 7.23163 19.6252 7.948 20.536C6.45061 19.8556 5.15314 18.8019 4.18 17.476L4.168 17.512ZM15.64 20.536C16.3564 19.6252 16.9197 18.6038 17.308 17.512H19.42C18.4364 18.8072 17.1398 19.8312 15.652 20.488L15.64 20.536Z" fill="#848484" />
</svg>