<svg width="41" height="40" viewBox="0 0 41 40" fill="none" xmlns="http://www.w3.org/2000/svg">
  <g clip-path="url(#clip0_2004_2856)">
    <path d="M40.6154 0H0V40H40.6154V0Z" fill="#FFDD2D" />
    <path d="M7.61523 7.5H32.9998V20.0719C32.9998 23.2957 31.2337 26.2679 28.3623 27.8859L20.3075 32.5L12.2613 27.8859C9.38987 26.28 7.62757 23.2957 7.62757 20.0719V7.5H7.61523Z" fill="white" />
    <path fill-rule="evenodd" clip-rule="evenodd" d="M14.4482 14.1157V18.0227C15.0028 17.4235 16.001 17.016 17.1348 17.016H18.3795V21.5582C18.3795 22.7686 18.0468 23.8232 17.5416 24.4105H23.0693C22.564 23.8232 22.2589 22.7686 22.2589 21.5582V17.016H23.4695C24.6156 17.016 25.6219 17.4235 26.1642 18.0227V14.1157H14.4482Z" fill="#333333" />
  </g>
  <defs>
    <clipPath id="clip0_2004_2856">
      <rect width="40.6154" height="40" rx="8" fill="white" />
    </clipPath>
  </defs>
</svg>