<svg width="17" height="16" viewBox="0 0 17 16" fill="none" xmlns="http://www.w3.org/2000/svg">
  <path d="M3.41667 4C3.23986 4 3.07029 4.07024 2.94526 4.19526C2.82024 4.32029 2.75 4.48986 2.75 4.66667C2.75 4.84348 2.82024 5.01305 2.94526 5.13807C3.07029 5.2631 3.23986 5.33333 3.41667 5.33333C3.59348 5.33333 3.76305 5.2631 3.88807 5.13807C4.0131 5.01305 4.08333 4.84348 4.08333 4.66667C4.08333 4.48986 4.0131 4.32029 3.88807 4.19526C3.76305 4.07024 3.59348 4 3.41667 4ZM5.75 4C5.57319 4 5.40362 4.07024 5.2786 4.19526C5.15357 4.32029 5.08333 4.48986 5.08333 4.66667C5.08333 4.84348 5.15357 5.01305 5.2786 5.13807C5.40362 5.2631 5.57319 5.33333 5.75 5.33333H12.4167C12.5935 5.33333 12.763 5.2631 12.8881 5.13807C13.0131 5.01305 13.0833 4.84348 13.0833 4.66667C13.0833 4.48986 13.0131 4.32029 12.8881 4.19526C12.763 4.07024 12.5935 4 12.4167 4H5.75ZM5.81667 7.33333C5.62217 7.33333 5.43565 7.4106 5.29812 7.54812C5.1606 7.68565 5.08333 7.87217 5.08333 8.06667C5.08333 8.26116 5.1606 8.44768 5.29812 8.58521C5.43565 8.72274 5.62217 8.8 5.81667 8.8H9.68333C9.87783 8.8 10.0644 8.72274 10.2019 8.58521C10.3394 8.44768 10.4167 8.26116 10.4167 8.06667C10.4167 7.87217 10.3394 7.68565 10.2019 7.54812C10.0644 7.4106 9.87783 7.33333 9.68333 7.33333H5.81667ZM5.08333 11.3333C5.08333 11.1565 5.15357 10.987 5.2786 10.8619C5.40362 10.7369 5.57319 10.6667 5.75 10.6667H7.75C7.92681 10.6667 8.09638 10.7369 8.2214 10.8619C8.34643 10.987 8.41667 11.1565 8.41667 11.3333C8.41667 11.5101 8.34643 11.6797 8.2214 11.8047C8.09638 11.9298 7.92681 12 7.75 12H5.75C5.57319 12 5.40362 11.9298 5.2786 11.8047C5.15357 11.6797 5.08333 11.5101 5.08333 11.3333ZM2.75 8C2.75 7.82319 2.82024 7.65362 2.94526 7.5286C3.07029 7.40357 3.23986 7.33333 3.41667 7.33333C3.59348 7.33333 3.76305 7.40357 3.88807 7.5286C4.0131 7.65362 4.08333 7.82319 4.08333 8C4.08333 8.17681 4.0131 8.34638 3.88807 8.4714C3.76305 8.59643 3.59348 8.66667 3.41667 8.66667C3.23986 8.66667 3.07029 8.59643 2.94526 8.4714C2.82024 8.34638 2.75 8.17681 2.75 8ZM3.41667 10.6667C3.23986 10.6667 3.07029 10.7369 2.94526 10.8619C2.82024 10.987 2.75 11.1565 2.75 11.3333C2.75 11.5101 2.82024 11.6797 2.94526 11.8047C3.07029 11.9298 3.23986 12 3.41667 12C3.59348 12 3.76305 11.9298 3.88807 11.8047C4.0131 11.6797 4.08333 11.5101 4.08333 11.3333C4.08333 11.1565 4.0131 10.987 3.88807 10.8619C3.76305 10.7369 3.59348 10.6667 3.41667 10.6667ZM10.4167 11.0333C10.4167 10.8565 10.4869 10.687 10.6119 10.5619C10.737 10.4369 10.9065 10.3667 11.0833 10.3667H12.4167V9C12.4167 8.82319 12.4869 8.65362 12.6119 8.5286C12.737 8.40357 12.9065 8.33333 13.0833 8.33333C13.2601 8.33333 13.4297 8.40357 13.5547 8.5286C13.6798 8.65362 13.75 8.82319 13.75 9V10.3667H15.0833C15.2601 10.3667 15.4297 10.4369 15.5547 10.5619C15.6798 10.687 15.75 10.8565 15.75 11.0333C15.75 11.2101 15.6798 11.3797 15.5547 11.5047C15.4297 11.6298 15.2601 11.7 15.0833 11.7H13.75V13C13.75 13.1768 13.6798 13.3464 13.5547 13.4714C13.4297 13.5964 13.2601 13.6667 13.0833 13.6667C12.9065 13.6667 12.737 13.5964 12.6119 13.4714C12.4869 13.3464 12.4167 13.1768 12.4167 13V11.7H11.0833C10.9065 11.7 10.737 11.6298 10.6119 11.5047C10.4869 11.3797 10.4167 11.2101 10.4167 11.0333Z" fill="#6F6F6F" />
</svg>