<svg width="24" height="24" viewBox="0 0 24 24" fill="none" xmlns="http://www.w3.org/2000/svg">
  <path d="M17.7065 13.707L20.3545 16.355C20.4395 16.4396 20.5069 16.5401 20.5529 16.6508C20.5989 16.7615 20.6226 16.8801 20.6226 17C20.6226 17.1199 20.5989 17.2386 20.5529 17.3493C20.5069 17.4599 20.4395 17.5605 20.3545 17.645C19.4234 18.5763 18.1875 19.1405 16.8738 19.2338C15.5602 19.3271 14.2569 18.9434 13.2035 18.153L11.6285 16.971C9.88497 15.6634 8.33614 14.1145 7.0285 12.371L5.8465 10.796C5.05615 9.74256 4.67239 8.43934 4.76571 7.12569C4.85903 5.81203 5.42316 4.57614 6.3545 3.64501C6.43905 3.56005 6.53956 3.49263 6.65025 3.44662C6.76094 3.40062 6.87963 3.37694 6.9995 3.37694C7.11936 3.37694 7.23805 3.40062 7.34874 3.44662C7.45943 3.49263 7.55994 3.56005 7.6445 3.64501L10.2925 6.29301C10.48 6.48054 10.5853 6.73484 10.5853 7.00001C10.5853 7.26517 10.48 7.51948 10.2925 7.70701L9.2715 8.72801C9.1918 8.8069 9.13919 8.90904 9.12122 9.01973C9.10325 9.13042 9.12085 9.24395 9.1715 9.34401C10.3579 11.7173 12.2822 13.6416 14.6555 14.828C14.7555 14.8786 14.8691 14.8963 14.9798 14.8783C15.0905 14.8603 15.1926 14.8077 15.2715 14.728L16.2915 13.708C16.3844 13.615 16.4947 13.5413 16.6161 13.4909C16.7375 13.4406 16.8676 13.4147 16.999 13.4147C17.1304 13.4147 17.2605 13.4406 17.3819 13.4909C17.5033 13.5413 17.6136 13.615 17.7065 13.708V13.707Z" stroke="#848484" />
</svg>