<svg width="25" height="24" viewBox="0 0 25 24" fill="none" xmlns="http://www.w3.org/2000/svg">
  <path d="M4.5 6C4.23478 6 3.98043 6.10536 3.79289 6.29289C3.60536 6.48043 3.5 6.73478 3.5 7C3.5 7.26522 3.60536 7.51957 3.79289 7.70711C3.98043 7.89464 4.23478 8 4.5 8C4.76522 8 5.01957 7.89464 5.20711 7.70711C5.39464 7.51957 5.5 7.26522 5.5 7C5.5 6.73478 5.39464 6.48043 5.20711 6.29289C5.01957 6.10536 4.76522 6 4.5 6ZM8 6C7.73478 6 7.48043 6.10536 7.29289 6.29289C7.10536 6.48043 7 6.73478 7 7C7 7.26522 7.10536 7.51957 7.29289 7.70711C7.48043 7.89464 7.73478 8 8 8H18C18.2652 8 18.5196 7.89464 18.7071 7.70711C18.8946 7.51957 19 7.26522 19 7C19 6.73478 18.8946 6.48043 18.7071 6.29289C18.5196 6.10536 18.2652 6 18 6H8ZM8.1 11C7.80826 11 7.52847 11.1159 7.32218 11.3222C7.11589 11.5285 7 11.8083 7 12.1C7 12.3917 7.11589 12.6715 7.32218 12.8778C7.52847 13.0841 7.80826 13.2 8.1 13.2H13.9C14.1917 13.2 14.4715 13.0841 14.6778 12.8778C14.8841 12.6715 15 12.3917 15 12.1C15 11.8083 14.8841 11.5285 14.6778 11.3222C14.4715 11.1159 14.1917 11 13.9 11H8.1ZM7 17C7 16.7348 7.10536 16.4804 7.29289 16.2929C7.48043 16.1054 7.73478 16 8 16H11C11.2652 16 11.5196 16.1054 11.7071 16.2929C11.8946 16.4804 12 16.7348 12 17C12 17.2652 11.8946 17.5196 11.7071 17.7071C11.5196 17.8946 11.2652 18 11 18H8C7.73478 18 7.48043 17.8946 7.29289 17.7071C7.10536 17.5196 7 17.2652 7 17ZM3.5 12C3.5 11.7348 3.60536 11.4804 3.79289 11.2929C3.98043 11.1054 4.23478 11 4.5 11C4.76522 11 5.01957 11.1054 5.20711 11.2929C5.39464 11.4804 5.5 11.7348 5.5 12C5.5 12.2652 5.39464 12.5196 5.20711 12.7071C5.01957 12.8946 4.76522 13 4.5 13C4.23478 13 3.98043 12.8946 3.79289 12.7071C3.60536 12.5196 3.5 12.2652 3.5 12ZM4.5 16C4.23478 16 3.98043 16.1054 3.79289 16.2929C3.60536 16.4804 3.5 16.7348 3.5 17C3.5 17.2652 3.60536 17.5196 3.79289 17.7071C3.98043 17.8946 4.23478 18 4.5 18C4.76522 18 5.01957 17.8946 5.20711 17.7071C5.39464 17.5196 5.5 17.2652 5.5 17C5.5 16.7348 5.39464 16.4804 5.20711 16.2929C5.01957 16.1054 4.76522 16 4.5 16ZM15 16.55C15 16.2848 15.1054 16.0304 15.2929 15.8429C15.4804 15.6554 15.7348 15.55 16 15.55H18V13.5C18 13.2348 18.1054 12.9804 18.2929 12.7929C18.4804 12.6054 18.7348 12.5 19 12.5C19.2652 12.5 19.5196 12.6054 19.7071 12.7929C19.8946 12.9804 20 13.2348 20 13.5V15.55H22C22.2652 15.55 22.5196 15.6554 22.7071 15.8429C22.8946 16.0304 23 16.2848 23 16.55C23 16.8152 22.8946 17.0696 22.7071 17.2571C22.5196 17.4446 22.2652 17.55 22 17.55H20V19.5C20 19.7652 19.8946 20.0196 19.7071 20.2071C19.5196 20.3946 19.2652 20.5 19 20.5C18.7348 20.5 18.4804 20.3946 18.2929 20.2071C18.1054 20.0196 18 19.7652 18 19.5V17.55H16C15.7348 17.55 15.4804 17.4446 15.2929 17.2571C15.1054 17.0696 15 16.8152 15 16.55Z" fill="#6F6F6F" />
</svg>