<svg width="36" height="36" viewBox="0 0 36 36" fill="none" xmlns="http://www.w3.org/2000/svg">
  <g clip-path="url(#clip0_30_623)">
    <mask id="mask0_30_623" style="mask-type:luminance" maskUnits="userSpaceOnUse" x="0" y="0" width="36" height="36">
      <path d="M0 0H36V36H0V0Z" fill="white" />
    </mask>
    <g mask="url(#mask0_30_623)">
      <path d="M36 8.3055H0V11.0745H36V8.3055ZM34.1198 2.76825H1.881C1.18905 3.57837 0.669018 4.5207 0.3525 5.538H35.6475C35.3312 4.52076 34.8114 3.57843 34.1198 2.76825ZM36 13.845H0V16.6148H36V13.845ZM36 19.383H0V22.152H36V19.383ZM36 24.9225H0V27.6915H36V24.9225ZM35.6475 30.4597H0.3525C0.668755 31.477 1.18853 32.4193 1.88025 33.2295H34.1198C34.8022 32.4285 35.328 31.4895 35.6475 30.4597Z" fill="#F5F5F5" />
      <path d="M28.125 4.54597e-06H7.875C6.73457 -0.00122216 5.60754 0.245829 4.5722 0.723999C3.53685 1.20217 2.61801 1.89999 1.8795 2.769H34.1198C33.3813 1.90009 32.4626 1.20232 31.4274 0.724157C30.3922 0.245991 29.2653 -0.00111327 28.125 4.54597e-06ZM36 11.0775H0V13.8458H36V11.0775ZM36 7.8735C36 7.05975 35.877 6.276 35.6475 5.53725H0.3525C0.12375 6.27525 0 7.05975 0 7.8735V8.30625H36V7.8735ZM36 16.614H0V19.383H36V16.614ZM36 28.1243V27.6915H0V28.1243C0 28.938 0.12375 29.7218 0.3525 30.4605H35.6475C35.877 29.7225 36 28.938 36 28.1243ZM34.1198 33.2318H1.881C2.61942 34.1004 3.53805 34.798 4.57312 35.276C5.60818 35.7541 6.73488 36.0011 7.875 36H28.125C30.5257 36 32.676 34.926 34.1198 33.2318ZM36 22.155H0V24.9225H36V22.155Z" fill="#BB133E" />
      <path d="M19.3845 0H7.875C3.52575 0 0 3.52575 0 7.875V19.3845H19.3845V0Z" fill="#002664" />
      <path d="M2.09175 3.02701C2.08775 3.03972 2.08784 3.05337 2.092 3.06603C2.09617 3.07869 2.10419 3.08973 2.11495 3.09759C2.12571 3.10545 2.13867 3.10975 2.15199 3.10987C2.16532 3.10999 2.17835 3.10593 2.18925 3.09826L2.57325 2.82376L2.95725 3.09826C2.96815 3.10593 2.98118 3.10999 2.9945 3.10987C3.00783 3.10975 3.02078 3.10545 3.03154 3.09759C3.0423 3.08973 3.05033 3.07869 3.05449 3.06603C3.05865 3.05337 3.05874 3.03972 3.05475 3.02701L2.91225 2.57701L3.2925 2.29651C3.30315 2.28852 3.31104 2.27739 3.31505 2.26469C3.31905 2.252 3.31899 2.23836 3.31485 2.2257C3.31071 2.21304 3.30272 2.202 3.29198 2.19412C3.28125 2.18624 3.26831 2.18191 3.255 2.18176L2.7825 2.17801L2.70225 1.93651C2.49975 2.11276 2.307 2.29951 2.124 2.49601L2.23425 2.57701L2.09175 3.02701ZM2.63325 5.46601L2.78325 5.91451L3.255 5.91826C3.31575 5.91826 3.34125 5.99626 3.2925 6.03301L2.91225 6.31351L3.05475 6.76351C3.05851 6.77617 3.05825 6.78969 3.05399 6.8022C3.04973 6.81471 3.0417 6.82558 3.03099 6.83333C3.02029 6.84107 3.00744 6.84529 2.99423 6.84541C2.98102 6.84554 2.96809 6.84155 2.95725 6.83401L2.57325 6.55951L2.18925 6.83401C2.1784 6.84155 2.16548 6.84554 2.15227 6.84541C2.13906 6.84529 2.12621 6.84107 2.1155 6.83333C2.1048 6.82558 2.09676 6.81471 2.0925 6.8022C2.08825 6.78969 2.08798 6.77617 2.09175 6.76351L2.23425 6.31351L1.854 6.03301C1.84334 6.02502 1.83546 6.01389 1.83145 6.00119C1.82744 5.9885 1.82751 5.97486 1.83164 5.9622C1.83578 5.94954 1.84378 5.9385 1.85451 5.93062C1.86525 5.92274 1.87818 5.91841 1.8915 5.91826L2.36325 5.91451L2.51325 5.46601C2.51768 5.45365 2.52583 5.44296 2.53657 5.43541C2.54731 5.42785 2.56012 5.4238 2.57325 5.4238C2.58638 5.4238 2.59919 5.42785 2.60993 5.43541C2.62067 5.44296 2.62881 5.45365 2.63325 5.46601ZM2.63325 9.61201L2.78325 10.0598L3.255 10.0635C3.31575 10.0635 3.34125 10.1423 3.2925 10.1783L2.91225 10.4588L3.05475 10.9088C3.05874 10.9215 3.05865 10.9351 3.05449 10.9478C3.05033 10.9604 3.0423 10.9715 3.03154 10.9793C3.02078 10.9872 3.00783 10.9915 2.9945 10.9916C2.98118 10.9917 2.96815 10.9877 2.95725 10.98L2.57325 10.7055L2.18925 10.98C2.17835 10.9877 2.16532 10.9917 2.15199 10.9916C2.13867 10.9915 2.12571 10.9872 2.11495 10.9793C2.10419 10.9715 2.09617 10.9604 2.092 10.9478C2.08784 10.9351 2.08775 10.9215 2.09175 10.9088L2.23425 10.4588L1.854 10.1783C1.84334 10.1703 1.83546 10.1591 1.83145 10.1464C1.82744 10.1337 1.82751 10.1201 1.83164 10.1075C1.83578 10.0948 1.84378 10.0837 1.85451 10.0759C1.86525 10.068 1.87818 10.0637 1.8915 10.0635L2.36325 10.0598L2.51325 9.61201C2.51768 9.59965 2.52583 9.58896 2.53657 9.58141C2.54731 9.57386 2.56012 9.5698 2.57325 9.5698C2.58638 9.5698 2.59919 9.57386 2.60993 9.58141C2.62067 9.58896 2.62881 9.59965 2.63325 9.61201ZM2.63325 13.4175L2.78325 13.8653L3.255 13.869C3.31575 13.869 3.34125 13.9478 3.2925 13.9838L2.91225 14.2643L3.05475 14.7143C3.05874 14.727 3.05865 14.7406 3.05449 14.7533C3.05033 14.7659 3.0423 14.777 3.03154 14.7848C3.02078 14.7927 3.00783 14.797 2.9945 14.7971C2.98118 14.7972 2.96815 14.7932 2.95725 14.7855L2.57325 14.511L2.18925 14.7855C2.17835 14.7932 2.16532 14.7972 2.15199 14.7971C2.13867 14.797 2.12571 14.7927 2.11495 14.7848C2.10419 14.777 2.09617 14.7659 2.092 14.7533C2.08784 14.7406 2.08775 14.727 2.09175 14.7143L2.23425 14.2643L1.854 13.9838C1.84334 13.9758 1.83546 13.9646 1.83145 13.9519C1.82744 13.9392 1.82751 13.9256 1.83164 13.913C1.83578 13.9003 1.84378 13.8892 1.85451 13.8814C1.86525 13.8735 1.87818 13.8692 1.8915 13.869L2.36325 13.8653L2.51325 13.4175C2.51768 13.4052 2.52583 13.3945 2.53657 13.3869C2.54731 13.3794 2.56012 13.3753 2.57325 13.3753C2.58638 13.3753 2.59919 13.3794 2.60993 13.3869C2.62067 13.3945 2.62881 13.4052 2.63325 13.4175ZM2.63325 16.8833L2.78325 17.331L3.255 17.3348C3.31575 17.3348 3.34125 17.4135 3.2925 17.4495L2.91225 17.73L3.05475 18.18C3.05874 18.1927 3.05865 18.2064 3.05449 18.219C3.05033 18.2317 3.0423 18.2427 3.03154 18.2506C3.02078 18.2585 3.00783 18.2627 2.9945 18.2629C2.98118 18.263 2.96815 18.2589 2.95725 18.2513L2.57325 17.9768L2.18925 18.2513C2.17835 18.2589 2.16532 18.263 2.15199 18.2629C2.13867 18.2627 2.12571 18.2585 2.11495 18.2506C2.10419 18.2427 2.09617 18.2317 2.092 18.219C2.08784 18.2064 2.08775 18.1927 2.09175 18.18L2.23425 17.73L1.854 17.4495C1.84334 17.4415 1.83546 17.4304 1.83145 17.4177C1.82744 17.405 1.82751 17.3914 1.83164 17.3787C1.83578 17.366 1.84378 17.355 1.85451 17.3471C1.86525 17.3392 1.87818 17.3349 1.8915 17.3348L2.36325 17.331L2.51325 16.8833C2.51768 16.8709 2.52583 16.8602 2.53657 16.8527C2.54731 16.8451 2.56012 16.8411 2.57325 16.8411C2.58638 16.8411 2.59919 16.8451 2.60993 16.8527C2.62067 16.8602 2.62881 16.8709 2.63325 16.8833ZM4.452 3.50026L4.602 3.94876L5.07375 3.95176C5.1345 3.95251 5.16 4.03051 5.11125 4.06651L4.731 4.34701L4.8735 4.79701C4.87749 4.80972 4.8774 4.82337 4.87324 4.83603C4.86908 4.84869 4.86105 4.85973 4.85029 4.86759C4.83953 4.87545 4.82658 4.87975 4.81325 4.87987C4.79993 4.87999 4.7869 4.87593 4.776 4.86826L4.392 4.59376L4.00725 4.86826C3.9964 4.8758 3.98348 4.87979 3.97027 4.87966C3.95706 4.87954 3.94421 4.87532 3.9335 4.86757C3.9228 4.85983 3.91476 4.84896 3.9105 4.83645C3.90625 4.82394 3.90598 4.81042 3.90975 4.79776L4.05225 4.34776L3.67275 4.06651C3.66209 4.05852 3.65421 4.04739 3.6502 4.03469C3.64619 4.022 3.64626 4.00836 3.65039 3.9957C3.65453 3.98304 3.66253 3.972 3.67326 3.96412C3.684 3.95624 3.69693 3.95191 3.71025 3.95176L4.182 3.94876L4.33125 3.50026C4.33553 3.48764 4.34365 3.47668 4.35448 3.46891C4.36531 3.46115 4.3783 3.45698 4.39162 3.45698C4.40495 3.45698 4.41794 3.46115 4.42877 3.46891C4.43959 3.47668 4.44772 3.48764 4.452 3.50026ZM4.452 7.64251L4.602 8.09101L5.07375 8.09476C5.1345 8.09476 5.16 8.17351 5.11125 8.20951L4.731 8.49001L4.8735 8.94001C4.87749 8.95272 4.8774 8.96637 4.87324 8.97903C4.86908 8.99169 4.86105 9.00273 4.85029 9.01059C4.83953 9.01845 4.82658 9.02275 4.81325 9.02287C4.79993 9.02299 4.7869 9.01893 4.776 9.01126L4.39125 8.73676L4.00725 9.01126C3.99635 9.01893 3.98332 9.02299 3.96999 9.02287C3.95667 9.02275 3.94371 9.01845 3.93295 9.01059C3.92219 9.00273 3.91417 8.99169 3.91 8.97903C3.90584 8.96637 3.90575 8.95272 3.90975 8.94001L4.05225 8.49001L3.67275 8.20951C3.66209 8.20152 3.65421 8.19039 3.6502 8.17769C3.64619 8.165 3.64626 8.15136 3.65039 8.1387C3.65453 8.12604 3.66253 8.115 3.67326 8.10712C3.684 8.09924 3.69693 8.09491 3.71025 8.09476L4.182 8.09101L4.33125 7.64326C4.33553 7.63064 4.34365 7.61968 4.35448 7.61191C4.36531 7.60415 4.3783 7.59998 4.39162 7.59998C4.40495 7.59998 4.41794 7.60415 4.42877 7.61191C4.43959 7.61968 4.44772 7.63064 4.452 7.64326V7.64251ZM4.452 11.58L4.602 12.0285L5.07375 12.0323C5.1345 12.0323 5.16 12.1103 5.11125 12.147L4.731 12.4275L4.8735 12.8775C4.87749 12.8902 4.8774 12.9039 4.87324 12.9165C4.86908 12.9292 4.86105 12.9402 4.85029 12.9481C4.83953 12.956 4.82658 12.9602 4.81325 12.9604C4.79993 12.9605 4.7869 12.9564 4.776 12.9488L4.39125 12.6743L4.00725 12.9488C3.99635 12.9564 3.98332 12.9605 3.96999 12.9604C3.95667 12.9602 3.94371 12.956 3.93295 12.9481C3.92219 12.9402 3.91417 12.9292 3.91 12.9165C3.90584 12.9039 3.90575 12.8902 3.90975 12.8775L4.05225 12.4275L3.67275 12.147C3.66209 12.139 3.65421 12.1279 3.6502 12.1152C3.64619 12.1025 3.64626 12.0889 3.65039 12.0762C3.65453 12.0635 3.66253 12.0525 3.67326 12.0446C3.684 12.0367 3.69693 12.0324 3.71025 12.0323L4.182 12.0285L4.33125 11.5808C4.33553 11.5681 4.34365 11.5572 4.35448 11.5494C4.36531 11.5417 4.3783 11.5375 4.39162 11.5375C4.40495 11.5375 4.41794 11.5417 4.42877 11.5494C4.43959 11.5572 4.44772 11.5681 4.452 11.5808V11.58ZM4.452 15.117L4.602 15.5648L5.07375 15.5685C5.1345 15.5685 5.16 15.6465 5.11125 15.6833L4.731 15.9638L4.8735 16.4138C4.87749 16.4265 4.8774 16.4401 4.87324 16.4528C4.86908 16.4654 4.86105 16.4765 4.85029 16.4843C4.83953 16.4922 4.82658 16.4965 4.81325 16.4966C4.79993 16.4967 4.7869 16.4927 4.776 16.485L4.39125 16.2105L4.00725 16.485C3.99635 16.4927 3.98332 16.4967 3.96999 16.4966C3.95667 16.4965 3.94371 16.4922 3.93295 16.4843C3.92219 16.4765 3.91417 16.4654 3.91 16.4528C3.90584 16.4401 3.90575 16.4265 3.90975 16.4138L4.05225 15.9638L3.67275 15.6833C3.66209 15.6753 3.65421 15.6641 3.6502 15.6514C3.64619 15.6387 3.64626 15.6251 3.65039 15.6125C3.65453 15.5998 3.66253 15.5887 3.67326 15.5809C3.684 15.573 3.69693 15.5687 3.71025 15.5685L4.182 15.5648L4.33125 15.117C4.33553 15.1044 4.34365 15.0934 4.35448 15.0857C4.36531 15.0779 4.3783 15.0737 4.39162 15.0737C4.40495 15.0737 4.41794 15.0779 4.42877 15.0857C4.43959 15.0934 4.44772 15.1044 4.452 15.117ZM6.27 1.73101L6.42 2.17876L6.8925 2.18251C6.9525 2.18251 6.97875 2.26126 6.93 2.29726L6.54975 2.57776L6.69225 3.02776C6.69624 3.04047 6.69615 3.05412 6.69199 3.06678C6.68783 3.07944 6.6798 3.09048 6.66904 3.09834C6.65828 3.1062 6.64533 3.1105 6.632 3.11062C6.61868 3.11074 6.60565 3.10668 6.59475 3.09901L6.21 2.82451L5.826 3.09901C5.8151 3.10668 5.80207 3.11074 5.78874 3.11062C5.77542 3.1105 5.76246 3.1062 5.7517 3.09834C5.74094 3.09048 5.73292 3.07944 5.72875 3.06678C5.72459 3.05412 5.7245 3.04047 5.7285 3.02776L5.871 2.57776L5.49075 2.29726C5.48009 2.28927 5.47221 2.27814 5.4682 2.26544C5.46419 2.25275 5.46426 2.23911 5.4684 2.22645C5.47253 2.21379 5.48053 2.20275 5.49126 2.19487C5.502 2.18699 5.51493 2.18266 5.52825 2.18251L6 2.17876L6.1485 1.73101C6.1526 1.71812 6.1607 1.70686 6.17162 1.69888C6.18254 1.69089 6.19572 1.68658 6.20925 1.68658C6.22278 1.68658 6.23596 1.69089 6.24688 1.69888C6.2578 1.70686 6.2659 1.71812 6.27 1.73101ZM6.27 5.46601L6.42 5.91451L6.8925 5.91826C6.9525 5.91826 6.97875 5.99626 6.93 6.03301L6.54975 6.31351L6.69225 6.76351C6.69601 6.77617 6.69574 6.78969 6.69149 6.8022C6.68723 6.81471 6.6792 6.82558 6.66849 6.83333C6.65779 6.84107 6.64494 6.84529 6.63173 6.84541C6.61852 6.84554 6.60559 6.84155 6.59475 6.83401L6.21 6.55951L5.826 6.83401C5.81515 6.84155 5.80223 6.84554 5.78902 6.84541C5.7758 6.84529 5.76296 6.84107 5.75225 6.83333C5.74155 6.82558 5.73351 6.81471 5.72925 6.8022C5.725 6.78969 5.72473 6.77617 5.7285 6.76351L5.871 6.31351L5.49075 6.03301C5.48009 6.02502 5.47221 6.01389 5.4682 6.00119C5.46419 5.9885 5.46426 5.97486 5.4684 5.9622C5.47253 5.94954 5.48053 5.9385 5.49126 5.93062C5.502 5.92274 5.51493 5.91841 5.52825 5.91826L6 5.91451L6.1485 5.46601C6.1526 5.45312 6.1607 5.44186 6.17162 5.43388C6.18254 5.42589 6.19572 5.42158 6.20925 5.42158C6.22278 5.42158 6.23596 5.42589 6.24688 5.43388C6.2578 5.44186 6.2659 5.45312 6.27 5.46601ZM6.27 9.61201L6.42 10.0598L6.8925 10.0635C6.9525 10.0635 6.97875 10.1423 6.93 10.1783L6.54975 10.4588L6.69225 10.9088C6.69624 10.9215 6.69615 10.9351 6.69199 10.9478C6.68783 10.9604 6.6798 10.9715 6.66904 10.9793C6.65828 10.9872 6.64533 10.9915 6.632 10.9916C6.61868 10.9917 6.60565 10.9877 6.59475 10.98L6.21 10.7055L5.826 10.98C5.8151 10.9877 5.80207 10.9917 5.78874 10.9916C5.77542 10.9915 5.76246 10.9872 5.7517 10.9793C5.74094 10.9715 5.73292 10.9604 5.72875 10.9478C5.72459 10.9351 5.7245 10.9215 5.7285 10.9088L5.871 10.4588L5.49075 10.1783C5.48009 10.1703 5.47221 10.1591 5.4682 10.1464C5.46419 10.1337 5.46426 10.1201 5.4684 10.1075C5.47253 10.0948 5.48053 10.0837 5.49126 10.0759C5.502 10.068 5.51493 10.0637 5.52825 10.0635L6.00075 10.0598L6.14925 9.61201C6.15335 9.59912 6.16145 9.58786 6.17237 9.57988C6.18329 9.57189 6.19647 9.56758 6.21 9.56758C6.22353 9.56758 6.23671 9.57189 6.24763 9.57988C6.25855 9.58786 6.26665 9.59912 6.27075 9.61201H6.27ZM6.27 13.4175L6.42 13.8653L6.8925 13.869C6.9525 13.869 6.97875 13.9478 6.93 13.9838L6.54975 14.2643L6.69225 14.7143C6.69624 14.727 6.69615 14.7406 6.69199 14.7533C6.68783 14.7659 6.6798 14.777 6.66904 14.7848C6.65828 14.7927 6.64533 14.797 6.632 14.7971C6.61868 14.7972 6.60565 14.7932 6.59475 14.7855L6.21 14.511L5.826 14.7855C5.8151 14.7932 5.80207 14.7972 5.78874 14.7971C5.77542 14.797 5.76246 14.7927 5.7517 14.7848C5.74094 14.777 5.73292 14.7659 5.72875 14.7533C5.72459 14.7406 5.7245 14.727 5.7285 14.7143L5.871 14.2643L5.49075 13.9838C5.48009 13.9758 5.47221 13.9646 5.4682 13.9519C5.46419 13.9392 5.46426 13.9256 5.4684 13.913C5.47253 13.9003 5.48053 13.8892 5.49126 13.8814C5.502 13.8735 5.51493 13.8692 5.52825 13.869L6.00075 13.8653L6.14925 13.4175C6.15335 13.4046 6.16145 13.3934 6.17237 13.3854C6.18329 13.3774 6.19647 13.3731 6.21 13.3731C6.22353 13.3731 6.23671 13.3774 6.24763 13.3854C6.25855 13.3934 6.26665 13.4046 6.27075 13.4175H6.27ZM6.27 16.8833L6.42 17.331L6.8925 17.3348C6.9525 17.3348 6.97875 17.4135 6.93 17.4495L6.54975 17.73L6.69225 18.18C6.69624 18.1927 6.69615 18.2064 6.69199 18.219C6.68783 18.2317 6.6798 18.2427 6.66904 18.2506C6.65828 18.2585 6.64533 18.2627 6.632 18.2629C6.61868 18.263 6.60565 18.2589 6.59475 18.2513L6.21 17.9768L5.826 18.2513C5.8151 18.2589 5.80207 18.263 5.78874 18.2629C5.77542 18.2627 5.76246 18.2585 5.7517 18.2506C5.74094 18.2427 5.73292 18.2317 5.72875 18.219C5.72459 18.2064 5.7245 18.1927 5.7285 18.18L5.871 17.73L5.49075 17.4495C5.48009 17.4415 5.47221 17.4304 5.4682 17.4177C5.46419 17.405 5.46426 17.3914 5.4684 17.3787C5.47253 17.366 5.48053 17.355 5.49126 17.3471C5.502 17.3392 5.51493 17.3349 5.52825 17.3348L6.00075 17.331L6.14925 16.8833C6.15335 16.8704 6.16145 16.8591 6.17237 16.8511C6.18329 16.8431 6.19647 16.8388 6.21 16.8388C6.22353 16.8388 6.23671 16.8431 6.24763 16.8511C6.25855 16.8591 6.26665 16.8704 6.27075 16.8833H6.27ZM8.08875 3.50026L8.23875 3.94876L8.7105 3.95176C8.77125 3.95251 8.79675 4.03051 8.748 4.06651L8.36775 4.34701L8.51025 4.79701C8.51424 4.80972 8.51415 4.82337 8.50999 4.83603C8.50583 4.84869 8.4978 4.85973 8.48704 4.86759C8.47628 4.87545 8.46333 4.87975 8.45 4.87987C8.43668 4.87999 8.42365 4.87593 8.41275 4.86826L8.02875 4.59376L7.64475 4.86826C7.6339 4.8758 7.62098 4.87979 7.60777 4.87966C7.59456 4.87954 7.58171 4.87532 7.571 4.86757C7.5603 4.85983 7.55226 4.84896 7.54801 4.83645C7.54375 4.82394 7.54348 4.81042 7.54725 4.79776L7.68975 4.34776L7.3095 4.06651C7.29884 4.05852 7.29096 4.04739 7.28695 4.03469C7.28294 4.022 7.28301 4.00836 7.28714 3.9957C7.29128 3.98304 7.29928 3.972 7.31001 3.96412C7.32075 3.95624 7.33368 3.95191 7.347 3.95176L7.81875 3.94876L7.96875 3.50026C7.97318 3.4879 7.98133 3.47721 7.99207 3.46966C8.00281 3.46211 8.01562 3.45805 8.02875 3.45805C8.04188 3.45805 8.05469 3.46211 8.06543 3.46966C8.07617 3.47721 8.08431 3.4879 8.08875 3.50026ZM8.08875 7.64251L8.23875 8.09101L8.7105 8.09476C8.77125 8.09476 8.79675 8.17351 8.748 8.20951L8.36775 8.49001L8.51025 8.94001C8.51424 8.95272 8.51415 8.96637 8.50999 8.97903C8.50583 8.99169 8.4978 9.00273 8.48704 9.01059C8.47628 9.01845 8.46333 9.02275 8.45 9.02287C8.43668 9.02299 8.42365 9.01893 8.41275 9.01126L8.02875 8.73676L7.64475 9.01126C7.63385 9.01893 7.62082 9.02299 7.60749 9.02287C7.59417 9.02275 7.58121 9.01845 7.57045 9.01059C7.55969 9.00273 7.55167 8.99169 7.5475 8.97903C7.54334 8.96637 7.54325 8.95272 7.54725 8.94001L7.68975 8.49001L7.3095 8.20951C7.29884 8.20152 7.29096 8.19039 7.28695 8.17769C7.28294 8.165 7.28301 8.15136 7.28714 8.1387C7.29128 8.12604 7.29928 8.115 7.31001 8.10712C7.32075 8.09924 7.33368 8.09491 7.347 8.09476L7.81875 8.09101L7.96875 7.64326C7.97318 7.6309 7.98133 7.62021 7.99207 7.61266C8.00281 7.60511 8.01562 7.60105 8.02875 7.60105C8.04188 7.60105 8.05469 7.60511 8.06543 7.61266C8.07617 7.62021 8.08431 7.6309 8.08875 7.64326V7.64251ZM8.08875 11.58L8.23875 12.0285L8.7105 12.0323C8.77125 12.0323 8.79675 12.1103 8.748 12.147L8.36775 12.4275L8.51025 12.8775C8.51424 12.8902 8.51415 12.9039 8.50999 12.9165C8.50583 12.9292 8.4978 12.9402 8.48704 12.9481C8.47628 12.956 8.46333 12.9602 8.45 12.9604C8.43668 12.9605 8.42365 12.9564 8.41275 12.9488L8.02875 12.6743L7.64475 12.9488C7.63385 12.9564 7.62082 12.9605 7.60749 12.9604C7.59417 12.9602 7.58121 12.956 7.57045 12.9481C7.55969 12.9402 7.55167 12.9292 7.5475 12.9165C7.54334 12.9039 7.54325 12.8902 7.54725 12.8775L7.68975 12.4275L7.3095 12.147C7.29884 12.139 7.29096 12.1279 7.28695 12.1152C7.28294 12.1025 7.28301 12.0889 7.28714 12.0762C7.29128 12.0635 7.29928 12.0525 7.31001 12.0446C7.32075 12.0367 7.33368 12.0324 7.347 12.0323L7.81875 12.0285L7.96875 11.5808C7.97318 11.5684 7.98133 11.5577 7.99207 11.5502C8.00281 11.5426 8.01562 11.5386 8.02875 11.5386C8.04188 11.5386 8.05469 11.5426 8.06543 11.5502C8.07617 11.5577 8.08431 11.5684 8.08875 11.5808V11.58ZM8.08875 15.117L8.23875 15.5648L8.7105 15.5685C8.77125 15.5685 8.79675 15.6465 8.748 15.6833L8.36775 15.9638L8.51025 16.4138C8.51424 16.4265 8.51415 16.4401 8.50999 16.4528C8.50583 16.4654 8.4978 16.4765 8.48704 16.4843C8.47628 16.4922 8.46333 16.4965 8.45 16.4966C8.43668 16.4967 8.42365 16.4927 8.41275 16.485L8.02875 16.2105L7.64475 16.485C7.63385 16.4927 7.62082 16.4967 7.60749 16.4966C7.59417 16.4965 7.58121 16.4922 7.57045 16.4843C7.55969 16.4765 7.55167 16.4654 7.5475 16.4528C7.54334 16.4401 7.54325 16.4265 7.54725 16.4138L7.68975 15.9638L7.3095 15.6833C7.29884 15.6753 7.29096 15.6641 7.28695 15.6514C7.28294 15.6387 7.28301 15.6251 7.28714 15.6125C7.29128 15.5998 7.29928 15.5887 7.31001 15.5809C7.32075 15.573 7.33368 15.5687 7.347 15.5685L7.81875 15.5648L7.96875 15.117C7.97318 15.1047 7.98133 15.094 7.99207 15.0864C8.00281 15.0789 8.01562 15.0748 8.02875 15.0748C8.04188 15.0748 8.05469 15.0789 8.06543 15.0864C8.07617 15.094 8.08431 15.1047 8.08875 15.117ZM9.9075 1.73101L10.0575 2.17876L10.5292 2.18251C10.59 2.18251 10.6155 2.26126 10.5667 2.29726L10.1865 2.57776L10.329 3.02776C10.333 3.04047 10.3329 3.05412 10.3287 3.06678C10.3246 3.07944 10.3166 3.09048 10.3058 3.09834C10.295 3.1062 10.2821 3.1105 10.2688 3.11062C10.2554 3.11074 10.2424 3.10668 10.2315 3.09901L9.84675 2.82451L9.46275 3.09901C9.45185 3.10668 9.43882 3.11074 9.42549 3.11062C9.41217 3.1105 9.39921 3.1062 9.38845 3.09834C9.37769 3.09048 9.36967 3.07944 9.3655 3.06678C9.36134 3.05412 9.36125 3.04047 9.36525 3.02776L9.50775 2.57776L9.12825 2.29726C9.11759 2.28927 9.10971 2.27814 9.1057 2.26544C9.10169 2.25275 9.10176 2.23911 9.1059 2.22645C9.11003 2.21379 9.11803 2.20275 9.12876 2.19487C9.1395 2.18699 9.15243 2.18266 9.16575 2.18251L9.6375 2.17876L9.78675 1.73101C9.79103 1.71839 9.79915 1.70743 9.80998 1.69966C9.82081 1.6919 9.8338 1.68773 9.84712 1.68773C9.86045 1.68773 9.87344 1.6919 9.88427 1.69966C9.89509 1.70743 9.90322 1.71839 9.9075 1.73101ZM9.9075 5.46601L10.0575 5.91451L10.5292 5.91826C10.59 5.91826 10.6155 5.99626 10.5667 6.03301L10.1865 6.31351L10.329 6.76351C10.3328 6.77617 10.3325 6.78969 10.3282 6.8022C10.324 6.81471 10.3159 6.82558 10.3052 6.83333C10.2945 6.84107 10.2817 6.84529 10.2685 6.84541C10.2553 6.84554 10.2423 6.84155 10.2315 6.83401L9.8475 6.55951L9.46275 6.83401C9.4519 6.84155 9.43898 6.84554 9.42577 6.84541C9.41256 6.84529 9.39971 6.84107 9.389 6.83333C9.3783 6.82558 9.37026 6.81471 9.366 6.8022C9.36175 6.78969 9.36148 6.77617 9.36525 6.76351L9.50775 6.31351L9.12825 6.03301C9.11728 6.02512 9.1091 6.01395 9.10489 6.00111C9.10069 5.98827 9.10067 5.97442 9.10484 5.96157C9.10901 5.94872 9.11716 5.93753 9.12811 5.92961C9.13906 5.92169 9.15224 5.91745 9.16575 5.91751L9.6375 5.91451L9.78675 5.46601C9.79103 5.45339 9.79915 5.44243 9.80998 5.43466C9.82081 5.4269 9.8338 5.42273 9.84712 5.42273C9.86045 5.42273 9.87344 5.4269 9.88427 5.43466C9.89509 5.44243 9.90322 5.45339 9.9075 5.46601ZM9.9075 9.61201L10.0575 10.0598L10.5292 10.0635C10.59 10.0635 10.6155 10.1423 10.5667 10.1783L10.1865 10.4588L10.329 10.9088C10.333 10.9215 10.3329 10.9351 10.3287 10.9478C10.3246 10.9604 10.3166 10.9715 10.3058 10.9793C10.295 10.9872 10.2821 10.9915 10.2688 10.9916C10.2554 10.9917 10.2424 10.9877 10.2315 10.98L9.84675 10.7055L9.46275 10.98C9.45185 10.9877 9.43882 10.9917 9.42549 10.9916C9.41217 10.9915 9.39921 10.9872 9.38845 10.9793C9.37769 10.9715 9.36967 10.9604 9.3655 10.9478C9.36134 10.9351 9.36125 10.9215 9.36525 10.9088L9.50775 10.4588L9.12825 10.1783C9.11759 10.1703 9.10971 10.1591 9.1057 10.1464C9.10169 10.1337 9.10176 10.1201 9.1059 10.1075C9.11003 10.0948 9.11803 10.0837 9.12876 10.0759C9.1395 10.068 9.15243 10.0637 9.16575 10.0635L9.6375 10.0598L9.78675 9.61201C9.79103 9.59939 9.79915 9.58843 9.80998 9.58066C9.82081 9.5729 9.8338 9.56873 9.84712 9.56873C9.86045 9.56873 9.87344 9.5729 9.88427 9.58066C9.89509 9.58843 9.90322 9.59939 9.9075 9.61201ZM9.9075 13.4175L10.0575 13.8653L10.5292 13.869C10.59 13.869 10.6155 13.9478 10.5667 13.9838L10.1865 14.2643L10.329 14.7143C10.333 14.727 10.3329 14.7406 10.3287 14.7533C10.3246 14.7659 10.3166 14.777 10.3058 14.7848C10.295 14.7927 10.2821 14.797 10.2688 14.7971C10.2554 14.7972 10.2424 14.7932 10.2315 14.7855L9.84675 14.511L9.46275 14.7855C9.45185 14.7932 9.43882 14.7972 9.42549 14.7971C9.41217 14.797 9.39921 14.7927 9.38845 14.7848C9.37769 14.777 9.36967 14.7659 9.3655 14.7533C9.36134 14.7406 9.36125 14.727 9.36525 14.7143L9.50775 14.2643L9.12825 13.9838C9.11759 13.9758 9.10971 13.9646 9.1057 13.9519C9.10169 13.9392 9.10176 13.9256 9.1059 13.913C9.11003 13.9003 9.11803 13.8892 9.12876 13.8814C9.1395 13.8735 9.15243 13.8692 9.16575 13.869L9.6375 13.8653L9.78675 13.4175C9.79103 13.4049 9.79915 13.3939 9.80998 13.3862C9.82081 13.3784 9.8338 13.3742 9.84712 13.3742C9.86045 13.3742 9.87344 13.3784 9.88427 13.3862C9.89509 13.3939 9.90322 13.4049 9.9075 13.4175ZM9.9075 16.8833L10.0575 17.331L10.5292 17.3348C10.59 17.3348 10.6155 17.4135 10.5667 17.4495L10.1865 17.73L10.329 18.18C10.333 18.1927 10.3329 18.2064 10.3287 18.219C10.3246 18.2317 10.3166 18.2427 10.3058 18.2506C10.295 18.2585 10.2821 18.2627 10.2688 18.2629C10.2554 18.263 10.2424 18.2589 10.2315 18.2513L9.84675 17.9768L9.46275 18.2513C9.45185 18.2589 9.43882 18.263 9.42549 18.2629C9.41217 18.2627 9.39921 18.2585 9.38845 18.2506C9.37769 18.2427 9.36967 18.2317 9.3655 18.219C9.36134 18.2064 9.36125 18.1927 9.36525 18.18L9.50775 17.73L9.12825 17.4495C9.11759 17.4415 9.10971 17.4304 9.1057 17.4177C9.10169 17.405 9.10176 17.3914 9.1059 17.3787C9.11003 17.366 9.11803 17.355 9.12876 17.3471C9.1395 17.3392 9.15243 17.3349 9.16575 17.3348L9.6375 17.331L9.78675 16.8833C9.79103 16.8706 9.79915 16.8597 9.80998 16.8519C9.82081 16.8442 9.8338 16.84 9.84712 16.84C9.86045 16.84 9.87344 16.8442 9.88427 16.8519C9.89509 16.8597 9.90322 16.8706 9.9075 16.8833ZM11.7262 3.50026L11.8755 3.94876L12.348 3.95176C12.408 3.95251 12.4342 4.03051 12.3847 4.06651L12.0045 4.34701L12.147 4.79701C12.151 4.80972 12.1509 4.82337 12.1467 4.83603C12.1426 4.84869 12.1346 4.85973 12.1238 4.86759C12.113 4.87545 12.1001 4.87975 12.0868 4.87987C12.0734 4.87999 12.0604 4.87593 12.0495 4.86826L11.6655 4.59376L11.2815 4.86826C11.2706 4.8758 11.2577 4.87979 11.2445 4.87966C11.2313 4.87954 11.2185 4.87532 11.2078 4.86757C11.197 4.85983 11.189 4.84896 11.1848 4.83645C11.1805 4.82394 11.1802 4.81042 11.184 4.79776L11.3265 4.34776L10.9462 4.06651C10.9356 4.05852 10.9277 4.04739 10.9237 4.03469C10.9197 4.022 10.9198 4.00836 10.9239 3.9957C10.928 3.98304 10.936 3.972 10.9468 3.96412C10.9575 3.95624 10.9704 3.95191 10.9837 3.95176L11.4562 3.94876L11.6047 3.50026C11.625 3.44251 11.7067 3.44251 11.7262 3.50026ZM11.7262 7.64251L11.8755 8.09101L12.348 8.09476C12.408 8.09476 12.4342 8.17351 12.3847 8.20951L12.0045 8.49001L12.147 8.94001C12.151 8.95272 12.1509 8.96637 12.1467 8.97903C12.1426 8.99169 12.1346 9.00273 12.1238 9.01059C12.113 9.01845 12.1001 9.02275 12.0868 9.02287C12.0734 9.02299 12.0604 9.01893 12.0495 9.01126L11.6655 8.73676L11.2815 9.01126C11.2706 9.01893 11.2576 9.02299 11.2442 9.02287C11.2309 9.02275 11.218 9.01845 11.2072 9.01059C11.1964 9.00273 11.1884 8.99169 11.1843 8.97903C11.1801 8.96637 11.18 8.95272 11.184 8.94001L11.3265 8.49001L10.9462 8.20951C10.9356 8.20152 10.9277 8.19039 10.9237 8.17769C10.9197 8.165 10.9198 8.15136 10.9239 8.1387C10.928 8.12604 10.936 8.115 10.9468 8.10712C10.9575 8.09924 10.9704 8.09491 10.9837 8.09476L11.4562 8.09101L11.6047 7.64326C11.625 7.58476 11.7067 7.58476 11.7262 7.64326V7.64251ZM11.7262 11.58L11.8755 12.0285L12.348 12.0323C12.408 12.0323 12.4342 12.1103 12.3847 12.147L12.0045 12.4275L12.147 12.8775C12.151 12.8902 12.1509 12.9039 12.1467 12.9165C12.1426 12.9292 12.1346 12.9402 12.1238 12.9481C12.113 12.956 12.1001 12.9602 12.0868 12.9604C12.0734 12.9605 12.0604 12.9564 12.0495 12.9488L11.6655 12.6743L11.2815 12.9488C11.2706 12.9564 11.2576 12.9605 11.2442 12.9604C11.2309 12.9602 11.218 12.956 11.2072 12.9481C11.1964 12.9402 11.1884 12.9292 11.1843 12.9165C11.1801 12.9039 11.18 12.8902 11.184 12.8775L11.3265 12.4275L10.9462 12.147C10.9356 12.139 10.9277 12.1279 10.9237 12.1152C10.9197 12.1025 10.9198 12.0889 10.9239 12.0762C10.928 12.0635 10.936 12.0525 10.9468 12.0446C10.9575 12.0367 10.9704 12.0324 10.9837 12.0323L11.4562 12.0285L11.6047 11.5808C11.625 11.5223 11.7067 11.5223 11.7262 11.5808V11.58ZM11.7262 15.117L11.8755 15.5648L12.348 15.5685C12.408 15.5685 12.4342 15.6465 12.3847 15.6833L12.0045 15.9638L12.147 16.4138C12.151 16.4265 12.1509 16.4401 12.1467 16.4528C12.1426 16.4654 12.1346 16.4765 12.1238 16.4843C12.113 16.4922 12.1001 16.4965 12.0868 16.4966C12.0734 16.4967 12.0604 16.4927 12.0495 16.485L11.6655 16.2105L11.2815 16.485C11.2706 16.4927 11.2576 16.4967 11.2442 16.4966C11.2309 16.4965 11.218 16.4922 11.2072 16.4843C11.1964 16.4765 11.1884 16.4654 11.1843 16.4528C11.1801 16.4401 11.18 16.4265 11.184 16.4138L11.3265 15.9638L10.9462 15.6833C10.9356 15.6753 10.9277 15.6641 10.9237 15.6514C10.9197 15.6387 10.9198 15.6251 10.9239 15.6125C10.928 15.5998 10.936 15.5887 10.9468 15.5809C10.9575 15.573 10.9704 15.5687 10.9837 15.5685L11.4562 15.5648L11.6047 15.117C11.6088 15.1041 11.6169 15.0929 11.6279 15.0849C11.6388 15.0769 11.652 15.0726 11.6655 15.0726C11.679 15.0726 11.6922 15.0769 11.7031 15.0849C11.714 15.0929 11.7221 15.1041 11.7262 15.117ZM13.545 1.73101L13.6942 2.17876L14.166 2.18251C14.2267 2.18251 14.2522 2.26126 14.2035 2.29726L13.8232 2.57776L13.9657 3.02776C13.9697 3.04047 13.9697 3.05412 13.9655 3.06678C13.9613 3.07944 13.9533 3.09048 13.9425 3.09834C13.9318 3.1062 13.9188 3.1105 13.9055 3.11062C13.8922 3.11074 13.8791 3.10668 13.8682 3.09901L13.4842 2.82451L13.1002 3.09901C13.0893 3.10668 13.0763 3.11074 13.063 3.11062C13.0497 3.1105 13.0367 3.1062 13.026 3.09834C13.0152 3.09048 13.0072 3.07944 13.003 3.06678C12.9988 3.05412 12.9988 3.04047 13.0027 3.02776L13.1452 2.57776L12.765 2.29726C12.7543 2.28927 12.7465 2.27814 12.7424 2.26544C12.7384 2.25275 12.7385 2.23911 12.7426 2.22645C12.7468 2.21379 12.7548 2.20275 12.7655 2.19487C12.7762 2.18699 12.7892 2.18266 12.8025 2.18251L13.2742 2.17876L13.4235 1.73101C13.443 1.67326 13.5262 1.67326 13.545 1.73101ZM13.545 5.46601L13.6942 5.91451L14.166 5.91826C14.2267 5.91826 14.2522 5.99626 14.2035 6.03301L13.8232 6.31351L13.9657 6.76351C13.9695 6.77617 13.9692 6.78969 13.965 6.8022C13.9607 6.81471 13.9527 6.82558 13.942 6.83333C13.9313 6.84107 13.9184 6.84529 13.9052 6.84541C13.892 6.84554 13.8791 6.84155 13.8682 6.83401L13.4842 6.55951L13.1002 6.83401C13.0894 6.84155 13.0765 6.84554 13.0633 6.84541C13.0501 6.84529 13.0372 6.84107 13.0265 6.83333C13.0158 6.82558 13.0078 6.81471 13.0035 6.8022C12.9992 6.78969 12.999 6.77617 13.0027 6.76351L13.1452 6.31351L12.765 6.03301C12.7543 6.02502 12.7465 6.01389 12.7424 6.00119C12.7384 5.9885 12.7385 5.97486 12.7426 5.9622C12.7468 5.94954 12.7548 5.9385 12.7655 5.93062C12.7762 5.92274 12.7892 5.91841 12.8025 5.91826L13.2742 5.91451L13.4235 5.46601C13.443 5.40826 13.5262 5.40826 13.545 5.46601ZM13.545 9.61201L13.6942 10.0598L14.166 10.0635C14.2267 10.0635 14.2522 10.1423 14.2035 10.1783L13.8232 10.4588L13.9657 10.9088C13.9697 10.9215 13.9697 10.9351 13.9655 10.9478C13.9613 10.9604 13.9533 10.9715 13.9425 10.9793C13.9318 10.9872 13.9188 10.9915 13.9055 10.9916C13.8922 10.9917 13.8791 10.9877 13.8682 10.98L13.4842 10.7055L13.1002 10.98C13.0893 10.9877 13.0763 10.9917 13.063 10.9916C13.0497 10.9915 13.0367 10.9872 13.026 10.9793C13.0152 10.9715 13.0072 10.9604 13.003 10.9478C12.9988 10.9351 12.9988 10.9215 13.0027 10.9088L13.1452 10.4588L12.765 10.1783C12.7543 10.1703 12.7465 10.1591 12.7424 10.1464C12.7384 10.1337 12.7385 10.1201 12.7426 10.1075C12.7468 10.0948 12.7548 10.0837 12.7655 10.0759C12.7762 10.068 12.7892 10.0637 12.8025 10.0635L13.2742 10.0598L13.4235 9.61201C13.443 9.55351 13.5262 9.55351 13.545 9.61201ZM13.545 13.4175L13.6942 13.8653L14.166 13.869C14.2267 13.869 14.2522 13.9478 14.2035 13.9838L13.8232 14.2643L13.9657 14.7143C13.9697 14.727 13.9697 14.7406 13.9655 14.7533C13.9613 14.7659 13.9533 14.777 13.9425 14.7848C13.9318 14.7927 13.9188 14.797 13.9055 14.7971C13.8922 14.7972 13.8791 14.7932 13.8682 14.7855L13.4842 14.511L13.1002 14.7855C13.0893 14.7932 13.0763 14.7972 13.063 14.7971C13.0497 14.797 13.0367 14.7927 13.026 14.7848C13.0152 14.777 13.0072 14.7659 13.003 14.7533C12.9988 14.7406 12.9988 14.727 13.0027 14.7143L13.1452 14.2643L12.765 13.9838C12.7543 13.9758 12.7465 13.9646 12.7424 13.9519C12.7384 13.9392 12.7385 13.9256 12.7426 13.913C12.7468 13.9003 12.7548 13.8892 12.7655 13.8814C12.7762 13.8735 12.7892 13.8692 12.8025 13.869L13.2742 13.8653L13.4235 13.4175C13.443 13.3598 13.5262 13.3598 13.545 13.4175ZM13.545 16.8833L13.6942 17.331L14.166 17.3348C14.2267 17.3348 14.2522 17.4135 14.2035 17.4495L13.8232 17.73L13.9657 18.18C13.9697 18.1927 13.9697 18.2064 13.9655 18.219C13.9613 18.2317 13.9533 18.2427 13.9425 18.2506C13.9318 18.2585 13.9188 18.2627 13.9055 18.2629C13.8922 18.263 13.8791 18.2589 13.8682 18.2513L13.4842 17.9768L13.1002 18.2513C13.0893 18.2589 13.0763 18.263 13.063 18.2629C13.0497 18.2627 13.0367 18.2585 13.026 18.2506C13.0152 18.2427 13.0072 18.2317 13.003 18.219C12.9988 18.2064 12.9988 18.1927 13.0027 18.18L13.1452 17.73L12.765 17.4495C12.7543 17.4415 12.7465 17.4304 12.7424 17.4177C12.7384 17.405 12.7385 17.3914 12.7426 17.3787C12.7468 17.366 12.7548 17.355 12.7655 17.3471C12.7762 17.3392 12.7892 17.3349 12.8025 17.3348L13.2742 17.331L13.4235 16.8833C13.443 16.8255 13.5262 16.8255 13.545 16.8833ZM15.363 3.50026L15.513 3.94876L15.9847 3.95176C16.0455 3.95251 16.071 4.03051 16.0222 4.06651L15.642 4.34701L15.7845 4.79701C15.7885 4.80972 15.7884 4.82337 15.7842 4.83603C15.7801 4.84869 15.7721 4.85973 15.7613 4.86759C15.7505 4.87545 15.7376 4.87975 15.7243 4.87987C15.7109 4.87999 15.6979 4.87593 15.687 4.86826L15.3022 4.59376L14.9182 4.86826C14.9074 4.8758 14.8945 4.87979 14.8813 4.87966C14.8681 4.87954 14.8552 4.87532 14.8445 4.86757C14.8338 4.85983 14.8258 4.84896 14.8215 4.83645C14.8172 4.82394 14.817 4.81042 14.8207 4.79776L14.9632 4.34776L14.583 4.06651C14.5723 4.05852 14.5645 4.04739 14.5604 4.03469C14.5564 4.022 14.5565 4.00836 14.5606 3.9957C14.5648 3.98304 14.5728 3.972 14.5835 3.96412C14.5942 3.95624 14.6072 3.95191 14.6205 3.95176L15.093 3.94876L15.2422 3.50026C15.2465 3.48764 15.2546 3.47668 15.2655 3.46891C15.2763 3.46115 15.2893 3.45698 15.3026 3.45698C15.3159 3.45698 15.3289 3.46115 15.3398 3.46891C15.3506 3.47668 15.3587 3.48764 15.363 3.50026ZM15.363 7.64251L15.513 8.09101L15.9847 8.09476C16.0455 8.09476 16.071 8.17351 16.0222 8.20951L15.642 8.49001L15.7845 8.94001C15.7885 8.95272 15.7884 8.96637 15.7842 8.97903C15.7801 8.99169 15.7721 9.00273 15.7613 9.01059C15.7505 9.01845 15.7376 9.02275 15.7243 9.02287C15.7109 9.02299 15.6979 9.01893 15.687 9.01126L15.3022 8.73676L14.9182 9.01126C14.9073 9.01893 14.8943 9.02299 14.881 9.02287C14.8677 9.02275 14.8547 9.01845 14.844 9.01059C14.8332 9.00273 14.8252 8.99169 14.821 8.97903C14.8168 8.96637 14.8168 8.95272 14.8207 8.94001L14.9632 8.49001L14.583 8.20951C14.5723 8.20152 14.5645 8.19039 14.5604 8.17769C14.5564 8.165 14.5565 8.15136 14.5606 8.1387C14.5648 8.12604 14.5728 8.115 14.5835 8.10712C14.5942 8.09924 14.6072 8.09491 14.6205 8.09476L15.093 8.09101L15.2422 7.64326C15.2465 7.63064 15.2546 7.61968 15.2655 7.61191C15.2763 7.60415 15.2893 7.59998 15.3026 7.59998C15.3159 7.59998 15.3289 7.60415 15.3398 7.61191C15.3506 7.61968 15.3587 7.63064 15.363 7.64326V7.64251ZM15.363 11.58L15.513 12.0285L15.9847 12.0323C16.0455 12.0323 16.071 12.1103 16.0222 12.147L15.642 12.4275L15.7845 12.8775C15.7885 12.8902 15.7884 12.9039 15.7842 12.9165C15.7801 12.9292 15.7721 12.9402 15.7613 12.9481C15.7505 12.956 15.7376 12.9602 15.7243 12.9604C15.7109 12.9605 15.6979 12.9564 15.687 12.9488L15.3022 12.6743L14.9182 12.9488C14.9073 12.9564 14.8943 12.9605 14.881 12.9604C14.8677 12.9602 14.8547 12.956 14.844 12.9481C14.8332 12.9402 14.8252 12.9292 14.821 12.9165C14.8168 12.9039 14.8168 12.8902 14.8207 12.8775L14.9632 12.4275L14.583 12.147C14.5723 12.139 14.5645 12.1279 14.5604 12.1152C14.5564 12.1025 14.5565 12.0889 14.5606 12.0762C14.5648 12.0635 14.5728 12.0525 14.5835 12.0446C14.5942 12.0367 14.6072 12.0324 14.6205 12.0323L15.093 12.0285L15.2422 11.5808C15.2465 11.5681 15.2546 11.5572 15.2655 11.5494C15.2763 11.5417 15.2893 11.5375 15.3026 11.5375C15.3159 11.5375 15.3289 11.5417 15.3398 11.5494C15.3506 11.5572 15.3587 11.5681 15.363 11.5808V11.58ZM15.363 15.117L15.513 15.5648L15.9847 15.5685C16.0455 15.5685 16.071 15.6465 16.0222 15.6833L15.642 15.9638L15.7845 16.4138C15.7885 16.4265 15.7884 16.4401 15.7842 16.4528C15.7801 16.4654 15.7721 16.4765 15.7613 16.4843C15.7505 16.4922 15.7376 16.4965 15.7243 16.4966C15.7109 16.4967 15.6979 16.4927 15.687 16.485L15.3022 16.2105L14.9182 16.485C14.9073 16.4927 14.8943 16.4967 14.881 16.4966C14.8677 16.4965 14.8547 16.4922 14.844 16.4843C14.8332 16.4765 14.8252 16.4654 14.821 16.4528C14.8168 16.4401 14.8168 16.4265 14.8207 16.4138L14.9632 15.9638L14.583 15.6833C14.5723 15.6753 14.5645 15.6641 14.5604 15.6514C14.5564 15.6387 14.5565 15.6251 14.5606 15.6125C14.5648 15.5998 14.5728 15.5887 14.5835 15.5809C14.5942 15.573 14.6072 15.5687 14.6205 15.5685L15.093 15.5648L15.2422 15.117C15.2465 15.1044 15.2546 15.0934 15.2655 15.0857C15.2763 15.0779 15.2893 15.0737 15.3026 15.0737C15.3159 15.0737 15.3289 15.0779 15.3398 15.0857C15.3506 15.0934 15.3587 15.1044 15.363 15.117ZM17.1817 1.73101L17.331 2.17876L17.8035 2.18251C17.8635 2.18251 17.889 2.26126 17.8402 2.29726L17.4607 2.57776L17.6032 3.02776C17.6072 3.04047 17.6072 3.05412 17.603 3.06678C17.5988 3.07944 17.5908 3.09048 17.58 3.09834C17.5693 3.1062 17.5563 3.1105 17.543 3.11062C17.5297 3.11074 17.5166 3.10668 17.5057 3.09901L17.121 2.82451L16.737 3.09901C16.7261 3.10668 16.7131 3.11074 16.6997 3.11062C16.6864 3.1105 16.6735 3.1062 16.6627 3.09834C16.6519 3.09048 16.6439 3.07944 16.6398 3.06678C16.6356 3.05412 16.6355 3.04047 16.6395 3.02776L16.782 2.57776L16.4017 2.29726C16.3911 2.28927 16.3832 2.27814 16.3792 2.26544C16.3752 2.25275 16.3753 2.23911 16.3794 2.22645C16.3835 2.21379 16.3915 2.20275 16.4023 2.19487C16.413 2.18699 16.4259 2.18266 16.4392 2.18251L16.9117 2.17876L17.0602 1.73101C17.0805 1.67326 17.1622 1.67326 17.1817 1.73101ZM17.1817 5.46601L17.331 5.91451L17.8035 5.91826C17.8635 5.91826 17.889 5.99626 17.8402 6.03301L17.4607 6.31351L17.6032 6.76351C17.607 6.77617 17.6067 6.78969 17.6025 6.8022C17.5982 6.81471 17.5902 6.82558 17.5795 6.83333C17.5688 6.84107 17.5559 6.84529 17.5427 6.84541C17.5295 6.84554 17.5166 6.84155 17.5057 6.83401L17.121 6.55951L16.737 6.83401C16.7261 6.84155 16.7132 6.84554 16.7 6.84541C16.6868 6.84529 16.674 6.84107 16.6633 6.83333C16.6525 6.82558 16.6445 6.81471 16.6403 6.8022C16.636 6.78969 16.6357 6.77617 16.6395 6.76351L16.782 6.31351L16.4017 6.03301C16.3911 6.02502 16.3832 6.01389 16.3792 6.00119C16.3752 5.9885 16.3753 5.97486 16.3794 5.9622C16.3835 5.94954 16.3915 5.9385 16.4023 5.93062C16.413 5.92274 16.4259 5.91841 16.4392 5.91826L16.9117 5.91451L17.0602 5.46601C17.0805 5.40826 17.1622 5.40826 17.1817 5.46601ZM17.1817 9.61201L17.331 10.0598L17.8035 10.0635C17.8635 10.0635 17.889 10.1423 17.8402 10.1783L17.4607 10.4588L17.6032 10.9088C17.6072 10.9215 17.6072 10.9351 17.603 10.9478C17.5988 10.9604 17.5908 10.9715 17.58 10.9793C17.5693 10.9872 17.5563 10.9915 17.543 10.9916C17.5297 10.9917 17.5166 10.9877 17.5057 10.98L17.121 10.7055L16.737 10.98C16.7261 10.9877 16.7131 10.9917 16.6997 10.9916C16.6864 10.9915 16.6735 10.9872 16.6627 10.9793C16.6519 10.9715 16.6439 10.9604 16.6398 10.9478C16.6356 10.9351 16.6355 10.9215 16.6395 10.9088L16.782 10.4588L16.4017 10.1783C16.3911 10.1703 16.3832 10.1591 16.3792 10.1464C16.3752 10.1337 16.3753 10.1201 16.3794 10.1075C16.3835 10.0948 16.3915 10.0837 16.4023 10.0759C16.413 10.068 16.4259 10.0637 16.4392 10.0635L16.9117 10.0598L17.0602 9.61201C17.0805 9.55351 17.1622 9.55351 17.1817 9.61201ZM17.1817 13.4175L17.331 13.8653L17.8035 13.869C17.8635 13.869 17.889 13.9478 17.8402 13.9838L17.4607 14.2643L17.6032 14.7143C17.6072 14.727 17.6072 14.7406 17.603 14.7533C17.5988 14.7659 17.5908 14.777 17.58 14.7848C17.5693 14.7927 17.5563 14.797 17.543 14.7971C17.5297 14.7972 17.5166 14.7932 17.5057 14.7855L17.121 14.511L16.737 14.7855C16.7261 14.7932 16.7131 14.7972 16.6997 14.7971C16.6864 14.797 16.6735 14.7927 16.6627 14.7848C16.6519 14.777 16.6439 14.7659 16.6398 14.7533C16.6356 14.7406 16.6355 14.727 16.6395 14.7143L16.782 14.2643L16.4017 13.9838C16.3911 13.9758 16.3832 13.9646 16.3792 13.9519C16.3752 13.9392 16.3753 13.9256 16.3794 13.913C16.3835 13.9003 16.3915 13.8892 16.4023 13.8814C16.413 13.8735 16.4259 13.8692 16.4392 13.869L16.9117 13.8653L17.0602 13.4175C17.0805 13.3598 17.1622 13.3598 17.1817 13.4175ZM17.1817 16.8833L17.331 17.331L17.8035 17.3348C17.8635 17.3348 17.889 17.4135 17.8402 17.4495L17.4607 17.73L17.6032 18.18C17.6072 18.1927 17.6072 18.2064 17.603 18.219C17.5988 18.2317 17.5908 18.2427 17.58 18.2506C17.5693 18.2585 17.5563 18.2627 17.543 18.2629C17.5297 18.263 17.5166 18.2589 17.5057 18.2513L17.121 17.9768L16.737 18.2513C16.7261 18.2589 16.7131 18.263 16.6997 18.2629C16.6864 18.2627 16.6735 18.2585 16.6627 18.2506C16.6519 18.2427 16.6439 18.2317 16.6398 18.219C16.6356 18.2064 16.6355 18.1927 16.6395 18.18L16.782 17.73L16.4017 17.4495C16.3911 17.4415 16.3832 17.4304 16.3792 17.4177C16.3752 17.405 16.3753 17.3914 16.3794 17.3787C16.3835 17.366 16.3915 17.355 16.4023 17.3471C16.413 17.3392 16.4259 17.3349 16.4392 17.3348L16.9117 17.331L17.0602 16.8833C17.0805 16.8255 17.1622 16.8255 17.1817 16.8833Z" fill="#F5F5F5" />
    </g>
  </g>
  <defs>
    <clipPath id="clip0_30_623">
      <rect width="36" height="36" fill="white" />
    </clipPath>
  </defs>
</svg>