<svg width="36" height="36" viewBox="0 0 36 36" fill="none" xmlns="http://www.w3.org/2000/svg">
  <g clip-path="url(#clip0_30_670)">
    <mask id="mask0_30_670" style="mask-type:luminance" maskUnits="userSpaceOnUse" x="0" y="0" width="36" height="36">
      <path d="M0 0H36V36H0V0Z" fill="white" />
    </mask>
    <g mask="url(#mask0_30_670)">
      <path d="M28.125 36H7.875C3.52575 36 0 32.4743 0 28.125V7.875C0 3.52575 3.52575 0 7.875 0H28.125C32.4743 0 36 3.52575 36 7.875V28.125C36 32.4743 32.4743 36 28.125 36Z" fill="#00007D" />
      <path d="M36 28.1243V26.3948L30.4155 22.7362H36V20.8425H20.8425V36H22.737V24.5017L34.755 32.3753C35.186 31.7044 35.512 30.9717 35.7218 30.2025M0.5295 30.9683C0.7215 31.4633 0.9615 31.9342 1.24425 32.3753L13.263 24.5002V36H15.1575V20.8425H0V22.7362H5.5845L0 26.3948V28.125C0 28.4272 0.018 28.7257 0.051 29.0198M0 8.14275V9.60525L5.5845 13.263H0V15.1575H15.1575V0H13.263V11.499L1.245 3.624C0.77775 4.3515 0.4275 5.1615 0.21975 6.0255M35.46 5.004C35.2711 4.52187 35.035 4.05961 34.755 3.624L22.737 11.499V0H20.8425V15.1575H36V13.263H30.4155L36 9.6045V7.875C36 7.5615 35.9812 7.2525 35.9452 6.948" fill="#F5F5F5" />
      <path d="M20.8425 0H15.1575V15.1575H0V20.8425H15.1575V36H20.8425V20.8425H36V15.1575H20.8425V0Z" fill="#FE0000" />
      <path d="M9.73125 22.7378L0.051 29.0205C0.12825 29.7 0.291 30.3533 0.5295 30.969L13.2113 22.737L9.73125 22.7378ZM24.2205 22.7378L35.7225 30.2025C35.9025 29.541 36 28.8443 36 28.125L27.7005 22.737L24.2205 22.7378ZM11.3685 13.2638L0.219 6.02628C0.0765 6.61953 0 7.23903 0 7.87578V8.14353L7.8885 13.2638H11.3685ZM26.217 13.263L35.9452 6.94803C35.8674 6.28192 35.7044 5.62857 35.46 5.00403L22.737 13.263H26.217Z" fill="#FE0000" />
    </g>
  </g>
  <defs>
    <clipPath id="clip0_30_670">
      <rect width="36" height="36" fill="white" />
    </clipPath>
  </defs>
</svg>