<svg width="36" height="36" viewBox="0 0 36 36" fill="none" xmlns="http://www.w3.org/2000/svg">
  <g clip-path="url(#clip0_30_655)">
    <mask id="mask0_30_655" style="mask-type:luminance" maskUnits="userSpaceOnUse" x="0" y="0" width="36" height="36">
      <path d="M0 0H36V36H0V0Z" fill="white" />
    </mask>
    <g mask="url(#mask0_30_655)">
      <path d="M28.125 0H7.875C3.52575 0 0 3.52575 0 7.875V28.125C0 32.4743 3.52575 36 7.875 36H28.125C32.4743 36 36 32.4743 36 28.125V7.875C36 3.52575 32.4743 0 28.125 0Z" fill="#DB241C" />
      <path d="M8.01738 6.12822L8.91138 8.81097L11.7389 8.83272C12.1049 8.83572 12.2564 9.30297 11.9624 9.52047L9.68763 11.1997L10.5404 13.8952C10.5647 13.9715 10.5643 14.0535 10.5393 14.1296C10.5144 14.2056 10.4661 14.2719 10.4014 14.319C10.3366 14.366 10.2587 14.3915 10.1786 14.3918C10.0986 14.3921 10.0204 14.3671 9.95538 14.3205L7.65588 12.675L5.35488 14.3212C5.28981 14.3679 5.2117 14.3928 5.13165 14.3925C5.05159 14.3923 4.97366 14.3668 4.9089 14.3197C4.84415 14.2727 4.79587 14.2064 4.77091 14.1303C4.74595 14.0542 4.74559 13.9723 4.76988 13.896L5.62263 11.2005L3.34788 9.52047C3.28375 9.47291 3.23618 9.4064 3.2119 9.33034C3.18761 9.25428 3.18784 9.17251 3.21254 9.09658C3.23724 9.02066 3.28517 8.95441 3.34956 8.9072C3.41395 8.85999 3.49154 8.8342 3.57138 8.83347L6.39888 8.81097L7.29363 6.12897C7.31906 6.05334 7.3676 5.98761 7.43239 5.94104C7.49718 5.89447 7.57496 5.86942 7.65475 5.86942C7.73454 5.86942 7.81232 5.89447 7.87711 5.94104C7.94191 5.98761 7.99044 6.05334 8.01588 6.12897L8.01738 6.12822ZM18.2834 6.78972L18.9254 7.66422L19.9604 7.34022C19.9896 7.33118 20.021 7.33155 20.0501 7.34129C20.0791 7.35103 20.1043 7.36964 20.1222 7.3945C20.1401 7.41935 20.1498 7.4492 20.1498 7.47984C20.1498 7.51047 20.1402 7.54033 20.1224 7.56522L19.4886 8.44572L20.1164 9.33072C20.1339 9.35573 20.1432 9.3856 20.1429 9.41614C20.1426 9.44668 20.1327 9.47636 20.1147 9.50101C20.0966 9.52566 20.0713 9.54405 20.0423 9.55359C20.0133 9.56313 19.982 9.56335 19.9529 9.55422L18.9201 9.22347L18.2729 10.0935C18.2546 10.1182 18.229 10.1366 18.1998 10.146C18.1705 10.1554 18.1389 10.1553 18.1097 10.1457C18.0805 10.1362 18.055 10.1177 18.0369 10.0928C18.0188 10.0679 18.009 10.038 18.0089 10.0072L18.0044 8.92272L16.9769 8.57622C16.9478 8.56644 16.9225 8.54775 16.9046 8.52279C16.8867 8.49784 16.8772 8.4679 16.8772 8.4372C16.8773 8.4065 16.8871 8.37661 16.9051 8.35175C16.9231 8.3269 16.9485 8.30834 16.9776 8.29872L18.0074 7.95897L18.0194 6.87447C18.0198 6.84384 18.0298 6.81411 18.048 6.78947C18.0662 6.76484 18.0917 6.74656 18.1209 6.73719C18.1501 6.72783 18.1815 6.72786 18.2106 6.73729C18.2398 6.74671 18.2652 6.76505 18.2834 6.78972ZM14.3789 4.18347L15.4566 4.30047L15.9171 3.31797C15.9764 3.19122 16.1639 3.21297 16.1924 3.35097L16.4144 4.41222L17.4906 4.54647C17.6294 4.56372 17.6669 4.74897 17.5446 4.81797L16.6034 5.35722L16.8089 6.42222C16.8145 6.45227 16.8106 6.48333 16.7977 6.51104C16.7847 6.53874 16.7635 6.5617 16.7368 6.57668C16.7101 6.59166 16.6795 6.59792 16.6491 6.59456C16.6187 6.5912 16.5901 6.57841 16.5674 6.55797L15.7634 5.82972L14.8146 6.35397C14.7878 6.36895 14.7569 6.37509 14.7264 6.37153C14.6959 6.36797 14.6672 6.35488 14.6446 6.33413C14.6219 6.31337 14.6064 6.286 14.6001 6.25591C14.5939 6.22581 14.5973 6.19452 14.6099 6.16647L15.0546 5.17647L14.2626 4.43547C14.2402 4.41446 14.225 4.38693 14.2192 4.3568C14.2133 4.32666 14.217 4.29544 14.2299 4.26756C14.2428 4.23968 14.2641 4.21655 14.2908 4.20146C14.3176 4.18637 14.3484 4.18007 14.3789 4.18347ZM16.0829 14.694L15.4416 15.5685L14.4066 15.2445C14.3774 15.2354 14.346 15.2358 14.317 15.2455C14.2879 15.2553 14.2627 15.2739 14.2448 15.2987C14.2269 15.3236 14.2172 15.3535 14.2172 15.3841C14.2172 15.4147 14.2268 15.4446 14.2446 15.4695L14.8776 16.35L14.2499 17.235C14.2322 17.26 14.2229 17.29 14.2232 17.3207C14.2235 17.3513 14.2334 17.3811 14.2516 17.4058C14.2697 17.4305 14.2952 17.4489 14.3244 17.4584C14.3535 17.4678 14.3849 17.4678 14.4141 17.4585L15.4469 17.1277L16.0941 17.9977C16.1781 18.1102 16.3566 18.0517 16.3574 17.9115L16.3626 16.827L17.3901 16.4805C17.4192 16.4707 17.4445 16.452 17.4624 16.427C17.4803 16.4021 17.4899 16.3721 17.4898 16.3414C17.4897 16.3108 17.4799 16.2809 17.4619 16.256C17.4439 16.2311 17.4185 16.2126 17.3894 16.203L16.3589 15.8632L16.3469 14.7787C16.3465 14.7481 16.3364 14.7184 16.3182 14.6937C16.3 14.6691 16.2745 14.6508 16.2453 14.6414C16.2162 14.6321 16.1848 14.6321 16.1557 14.6415C16.1265 14.651 16.101 14.6693 16.0829 14.694ZM19.9881 12.246L18.9104 12.3637L18.4499 11.3812C18.4368 11.3536 18.4153 11.3307 18.3886 11.3159C18.3618 11.3011 18.3311 11.295 18.3007 11.2985C18.2703 11.3021 18.2418 11.3151 18.2192 11.3357C18.1966 11.3563 18.181 11.3835 18.1746 11.4135L17.9526 12.4747L16.8764 12.609C16.8461 12.613 16.8179 12.6264 16.7956 12.6473C16.7734 12.6682 16.7582 12.6955 16.7523 12.7254C16.7463 12.7553 16.7499 12.7864 16.7625 12.8142C16.775 12.842 16.796 12.8652 16.8224 12.8805L17.7636 13.4197L17.5581 14.4847C17.5525 14.5148 17.5564 14.5458 17.5693 14.5735C17.5823 14.6012 17.6036 14.6242 17.6302 14.6392C17.6569 14.6542 17.6875 14.6604 17.7179 14.6571C17.7483 14.6537 17.7769 14.6409 17.7996 14.6205L18.6029 13.8922L19.5524 14.4165C19.6754 14.484 19.8141 14.3565 19.7564 14.229L19.3124 13.239L20.1044 12.498C20.1268 12.477 20.142 12.4494 20.1479 12.4193C20.1537 12.3892 20.15 12.3579 20.1371 12.3301C20.1242 12.3022 20.1029 12.2791 20.0762 12.264C20.0495 12.2489 20.0186 12.2426 19.9881 12.246Z" fill="#FFF701" />
    </g>
  </g>
  <defs>
    <clipPath id="clip0_30_655">
      <rect width="36" height="36" fill="white" />
    </clipPath>
  </defs>
</svg>