<svg width="12" height="8" viewBox="0 0 12 8" fill="none" xmlns="http://www.w3.org/2000/svg">
  <path d="M1 5.16677V6.00667C1 6.52938 1 6.79056 1.1211 6.99021C1.22763 7.16583 1.39748 7.30889 1.60655 7.39837C1.84399 7.5 2.15498 7.5 2.77604 7.5H11M1 5.16677V0.5M1 5.16677L3.14075 3.66823L3.14252 3.66704C3.52979 3.39595 3.72379 3.26014 3.93416 3.20498C4.18267 3.13982 4.45036 3.15012 4.69082 3.23392C4.89468 3.30496 5.07343 3.45511 5.43093 3.75541L5.43452 3.75843C5.79757 4.06339 5.97958 4.21628 6.1867 4.28716C6.43181 4.37104 6.70468 4.37826 6.95588 4.30827C7.16886 4.24892 7.36338 4.10619 7.75231 3.82032L10.9999 1.43333" stroke="#19BB4F" stroke-linecap="round" stroke-linejoin="round" />
</svg>