<svg width="36" height="36" viewBox="0 0 36 36" fill="none" xmlns="http://www.w3.org/2000/svg">
  <g clip-path="url(#clip0_30_640)">
    <mask id="mask0_30_640" style="mask-type:luminance" maskUnits="userSpaceOnUse" x="0" y="0" width="36" height="36">
      <path d="M0 0H36V36H0V0Z" fill="white" />
    </mask>
    <g mask="url(#mask0_30_640)">
      <path d="M28.125 0H7.875C3.52575 0 0 3.52575 0 7.875V28.125C0 32.4743 3.52575 36 7.875 36H28.125C32.4743 36 36 32.4743 36 28.125V7.875C36 3.52575 32.4743 0 28.125 0Z" fill="#003399" />
      <path d="M18.2729 7.02525L18.5729 7.92525L19.5224 7.93275C19.5493 7.93285 19.5754 7.94141 19.5971 7.95722C19.6187 7.97302 19.6349 7.99525 19.6432 8.02076C19.6515 8.04627 19.6515 8.07374 19.6433 8.09928C19.6351 8.12482 19.6191 8.14712 19.5974 8.163L18.8339 8.727L19.1204 9.63225C19.1288 9.6579 19.1289 9.68555 19.1205 9.71121C19.1122 9.73688 19.0959 9.75924 19.0741 9.77508C19.0523 9.79093 19.026 9.79943 18.999 9.79937C18.972 9.79931 18.9457 9.79069 18.9239 9.77475L18.1514 9.22275L17.3797 9.77475C17.3579 9.79038 17.3317 9.79875 17.3049 9.79866C17.2781 9.79857 17.252 9.79002 17.2303 9.77424C17.2086 9.75846 17.1925 9.73624 17.1842 9.71075C17.1758 9.68526 17.1758 9.65779 17.1839 9.63225L17.4697 8.727L16.7062 8.163C16.6846 8.14712 16.6685 8.12482 16.6603 8.09928C16.6521 8.07374 16.6521 8.04627 16.6604 8.02076C16.6688 7.99525 16.6849 7.97302 16.7066 7.95722C16.7283 7.94141 16.7544 7.93285 16.7812 7.93275L17.7307 7.92525L18.0307 7.02525C18.0391 6.99974 18.0553 6.97753 18.077 6.96178C18.0988 6.94604 18.125 6.93756 18.1518 6.93756C18.1787 6.93756 18.2048 6.94604 18.2266 6.96178C18.2483 6.97753 18.2646 6.99974 18.2729 7.02525ZM18.2729 26.355L18.5729 27.255L19.5224 27.2625C19.5495 27.2624 19.5758 27.2709 19.5977 27.2867C19.6196 27.3025 19.6359 27.3249 19.6443 27.3506C19.6526 27.3763 19.6526 27.404 19.6441 27.4297C19.6357 27.4554 19.6194 27.4777 19.5974 27.4935L18.8339 28.0567L19.1204 28.962C19.1288 28.9876 19.1289 29.0153 19.1205 29.041C19.1122 29.0666 19.0959 29.089 19.0741 29.1048C19.0523 29.1207 19.026 29.1292 18.999 29.1291C18.972 29.1291 18.9457 29.1204 18.9239 29.1045L18.1514 28.5525L17.3797 29.1045C17.3579 29.1201 17.3317 29.1285 17.3049 29.1284C17.2781 29.1283 17.252 29.1198 17.2303 29.104C17.2086 29.0882 17.1925 29.066 17.1842 29.0405C17.1758 29.015 17.1758 28.9875 17.1839 28.962L17.4697 28.0567L16.7062 27.4935C16.6843 27.4777 16.6679 27.4554 16.6595 27.4297C16.6511 27.404 16.651 27.3763 16.6594 27.3506C16.6677 27.3249 16.684 27.3025 16.7059 27.2867C16.7278 27.2709 16.7542 27.2624 16.7812 27.2625L17.7307 27.255L18.0307 26.355C18.0391 26.3295 18.0553 26.3073 18.077 26.2915C18.0988 26.2758 18.125 26.2673 18.1518 26.2673C18.1787 26.2673 18.2048 26.2758 18.2266 26.2915C18.2483 26.3073 18.2646 26.3295 18.2729 26.355ZM27.9374 16.6897L28.2374 17.5897L29.1869 17.5972C29.214 17.5971 29.2403 17.6056 29.2622 17.6214C29.2841 17.6373 29.3004 17.6597 29.3088 17.6854C29.3171 17.7111 29.3171 17.7388 29.3086 17.7644C29.3002 17.7901 29.2839 17.8125 29.2619 17.8282L28.4984 18.3923L28.7842 19.2967C28.7924 19.3223 28.7923 19.3498 28.784 19.3752C28.7756 19.4007 28.7595 19.423 28.7378 19.4387C28.7161 19.4545 28.69 19.4631 28.6632 19.4632C28.6364 19.4633 28.6102 19.4549 28.5884 19.4392L27.8159 18.888L27.0442 19.4392C27.0224 19.4552 26.9961 19.4638 26.9692 19.4639C26.9422 19.4639 26.9159 19.4554 26.894 19.4396C26.8722 19.4237 26.8559 19.4014 26.8476 19.3757C26.8393 19.35 26.8393 19.3224 26.8477 19.2967L27.1342 18.3923L26.3707 17.8282C26.3488 17.8125 26.3324 17.7901 26.324 17.7644C26.3156 17.7388 26.3155 17.7111 26.3239 17.6854C26.3322 17.6597 26.3485 17.6373 26.3704 17.6214C26.3923 17.6056 26.4187 17.5971 26.4457 17.5972L27.3944 17.5897L27.6944 16.6897C27.7026 16.664 27.7188 16.6415 27.7407 16.6255C27.7625 16.6095 27.7889 16.6009 27.8159 16.6009C27.843 16.6009 27.8694 16.6095 27.8912 16.6255C27.913 16.6415 27.9292 16.664 27.9374 16.6897ZM8.60844 16.6897L8.90844 17.5897L9.85794 17.5972C9.88496 17.5971 9.91132 17.6056 9.93322 17.6214C9.95511 17.6373 9.97141 17.6597 9.97975 17.6854C9.9881 17.7111 9.98806 17.7388 9.97965 17.7644C9.97123 17.7901 9.95488 17.8125 9.93294 17.8282L9.16944 18.3923L9.45594 19.2967C9.46433 19.3224 9.46436 19.35 9.45603 19.3757C9.4477 19.4014 9.43145 19.4237 9.4096 19.4396C9.38776 19.4554 9.36145 19.4639 9.33447 19.4639C9.30748 19.4638 9.28121 19.4552 9.25944 19.4392L8.48694 18.888L7.71519 19.4392C7.69342 19.4552 7.66715 19.4638 7.64016 19.4639C7.61318 19.4639 7.58687 19.4554 7.56503 19.4396C7.54318 19.4237 7.52693 19.4014 7.5186 19.3757C7.51027 19.35 7.51031 19.3224 7.51869 19.2967L7.80519 18.3923L7.04169 17.8282C7.01975 17.8125 7.0034 17.7901 6.99499 17.7644C6.98657 17.7388 6.98653 17.7111 6.99488 17.6854C7.00322 17.6597 7.01952 17.6373 7.04141 17.6214C7.06331 17.6056 7.08967 17.5971 7.11669 17.5972L8.06544 17.5897L8.36544 16.6897C8.37364 16.664 8.38984 16.6415 8.41168 16.6255C8.43352 16.6095 8.45988 16.6009 8.48694 16.6009C8.514 16.6009 8.54036 16.6095 8.5622 16.6255C8.58404 16.6415 8.60024 16.664 8.60844 16.6897ZM10.0597 11.6422L10.3597 12.5422L11.3084 12.5497C11.3355 12.5496 11.3618 12.5581 11.3837 12.5739C11.4056 12.5898 11.4219 12.6122 11.4303 12.6379C11.4386 12.6636 11.4386 12.6913 11.4301 12.7169C11.4217 12.7426 11.4054 12.765 11.3834 12.7807L10.6199 13.344L10.9064 14.2492C10.9146 14.2748 10.9145 14.3023 10.9062 14.3277C10.8979 14.3532 10.8817 14.3755 10.8601 14.3912C10.8384 14.407 10.8123 14.4156 10.7855 14.4157C10.7586 14.4158 10.7325 14.4074 10.7107 14.3917L9.93819 13.8397L9.16569 14.3917C9.14389 14.4071 9.11783 14.4152 9.09118 14.415C9.06453 14.4147 9.03862 14.4061 9.0171 14.3904C8.99558 14.3747 8.97953 14.3526 8.9712 14.3273C8.96288 14.302 8.9627 14.2747 8.97069 14.2492L9.25569 13.344L8.49294 12.78C8.47132 12.7641 8.45526 12.7418 8.44705 12.7163C8.43884 12.6907 8.43889 12.6633 8.4472 12.6378C8.45551 12.6123 8.47165 12.59 8.49333 12.5742C8.51501 12.5584 8.54112 12.5499 8.56794 12.5497L9.51669 12.5422L9.81669 11.6422C9.82489 11.6165 9.84109 11.594 9.86293 11.578C9.88477 11.562 9.91113 11.5534 9.93819 11.5534C9.96525 11.5534 9.99161 11.562 10.0135 11.578C10.0353 11.594 10.0515 11.6165 10.0597 11.6422ZM26.7989 21.3075L27.0989 22.2075L28.0477 22.215C28.0745 22.2151 28.1006 22.2237 28.1223 22.2395C28.144 22.2553 28.1601 22.2775 28.1684 22.303C28.1767 22.3285 28.1768 22.356 28.1686 22.3815C28.1604 22.4071 28.1443 22.4294 28.1227 22.4452L27.3592 23.0093L27.6457 23.9137C27.6541 23.9394 27.6541 23.967 27.6458 23.9927C27.6375 24.0184 27.6212 24.0407 27.5994 24.0566C27.5775 24.0724 27.5512 24.0809 27.5242 24.0809C27.4972 24.0808 27.471 24.0722 27.4492 24.0562L26.6774 23.505L25.9049 24.0562C25.8832 24.0719 25.857 24.0803 25.8302 24.0802C25.8034 24.0801 25.7773 24.0715 25.7556 24.0557C25.7339 24.04 25.7177 24.0177 25.7094 23.9922C25.7011 23.9668 25.701 23.9393 25.7092 23.9137L25.9957 23.0093L25.2322 22.4452C25.2106 22.4294 25.1945 22.4071 25.1863 22.3815C25.1781 22.356 25.1781 22.3285 25.1864 22.303C25.1948 22.2775 25.2109 22.2553 25.2326 22.2395C25.2543 22.2237 25.2804 22.2151 25.3072 22.215L26.2559 22.2075L26.5559 21.3075C26.5641 21.2817 26.5803 21.2592 26.6022 21.2432C26.624 21.2273 26.6504 21.2187 26.6774 21.2187C26.7045 21.2187 26.7309 21.2273 26.7527 21.2432C26.7745 21.2592 26.7907 21.2817 26.7989 21.3075ZM23.2612 8.106L23.5612 9.006L24.5107 9.0135C24.5377 9.01338 24.5641 9.02186 24.586 9.0377C24.6079 9.05354 24.6242 9.07592 24.6325 9.10163C24.6408 9.12733 24.6408 9.15502 24.6324 9.1807C24.624 9.20638 24.6076 9.22872 24.5857 9.2445L23.8222 9.8085L24.1079 10.713C24.1161 10.7385 24.116 10.766 24.1077 10.7915C24.0994 10.817 24.0832 10.8392 24.0616 10.855C24.0399 10.8708 24.0138 10.8793 23.987 10.8794C23.9601 10.8795 23.934 10.8711 23.9122 10.8555L23.1397 10.3035L22.3679 10.8555C22.3462 10.8714 22.3199 10.8801 22.2929 10.8801C22.2659 10.8802 22.2396 10.8717 22.2178 10.8558C22.1959 10.84 22.1797 10.8176 22.1714 10.792C22.163 10.7663 22.1631 10.7386 22.1714 10.713L22.4579 9.80775L21.6944 9.2445C21.6725 9.22872 21.6561 9.20638 21.6477 9.1807C21.6393 9.15502 21.6393 9.12733 21.6476 9.10163C21.656 9.07592 21.6723 9.05354 21.6942 9.0377C21.7161 9.02186 21.7424 9.01338 21.7694 9.0135L22.7182 9.006L23.0182 8.106C23.0264 8.08021 23.0426 8.05771 23.0644 8.04173C23.0863 8.02576 23.1126 8.01715 23.1397 8.01715C23.1667 8.01715 23.1931 8.02576 23.215 8.04173C23.2368 8.05771 23.253 8.08021 23.2612 8.106ZM13.5974 24.843L13.8974 25.743L14.8462 25.7505C14.8732 25.7504 14.8996 25.7589 14.9215 25.7747C14.9434 25.7905 14.9597 25.8129 14.968 25.8386C14.9763 25.8643 14.9763 25.892 14.9679 25.9177C14.9595 25.9434 14.9431 25.9657 14.9212 25.9815L14.1577 26.5455L14.4442 27.45C14.4526 27.4756 14.4526 27.5033 14.4443 27.529C14.436 27.5546 14.4197 27.577 14.3979 27.5928C14.376 27.6087 14.3497 27.6172 14.3227 27.6171C14.2957 27.6171 14.2695 27.6084 14.2477 27.5925L13.4752 27.0413L12.7034 27.5925C12.6817 27.6081 12.6555 27.6165 12.6287 27.6164C12.6019 27.6163 12.5758 27.6078 12.5541 27.592C12.5324 27.5762 12.5162 27.554 12.5079 27.5285C12.4996 27.503 12.4995 27.4755 12.5077 27.45L12.7934 26.5455L12.0299 25.9815C12.0083 25.9656 11.9923 25.9433 11.9841 25.9178C11.9758 25.8922 11.9759 25.8648 11.9842 25.8393C11.9925 25.8138 12.0086 25.7915 12.0303 25.7757C12.052 25.7599 12.0781 25.7514 12.1049 25.7512L13.0537 25.7437L13.3537 24.8438C13.3619 24.818 13.3781 24.7955 13.3999 24.7795C13.4218 24.7635 13.4481 24.7549 13.4752 24.7549C13.5022 24.7549 13.5286 24.7635 13.5505 24.7795C13.5723 24.7955 13.5885 24.818 13.5967 24.8438L13.5974 24.843ZM26.5559 11.6422L26.2559 12.5422L25.3072 12.5497C25.2802 12.5496 25.2538 12.5581 25.2319 12.5739C25.21 12.5898 25.1937 12.6122 25.1854 12.6379C25.177 12.6636 25.1771 12.6913 25.1855 12.7169C25.1939 12.7426 25.2103 12.765 25.2322 12.7807L25.9957 13.344L25.7092 14.25C25.7008 14.2756 25.7008 14.3033 25.7091 14.329C25.7174 14.3546 25.7337 14.377 25.7555 14.3928C25.7774 14.4087 25.8037 14.4172 25.8307 14.4171C25.8576 14.4171 25.8839 14.4084 25.9057 14.3925L26.6774 13.8405L27.4499 14.3925C27.4717 14.4081 27.4979 14.4165 27.5247 14.4164C27.5515 14.4163 27.5776 14.4078 27.5993 14.392C27.621 14.3762 27.6371 14.354 27.6455 14.3285C27.6538 14.303 27.6539 14.2755 27.6457 14.25L27.3592 13.3447L28.1227 12.7807C28.1443 12.7649 28.1604 12.7426 28.1686 12.717C28.1768 12.6915 28.1767 12.664 28.1684 12.6385C28.1601 12.613 28.144 12.5908 28.1223 12.575C28.1006 12.5592 28.0745 12.5506 28.0477 12.5505L27.0989 12.543L26.7989 11.643C26.7907 11.6172 26.7745 11.5947 26.7527 11.5787C26.7309 11.5628 26.7045 11.5542 26.6774 11.5542C26.6504 11.5542 26.624 11.5628 26.6022 11.5787C26.5803 11.5947 26.5641 11.6172 26.5559 11.643V11.6422ZM9.81744 21.3075L9.51669 22.2075L8.56794 22.215C8.54112 22.2151 8.51501 22.2237 8.49333 22.2395C8.47165 22.2553 8.45551 22.2775 8.4472 22.303C8.43889 22.3285 8.43884 22.356 8.44705 22.3815C8.45526 22.4071 8.47132 22.4294 8.49294 22.4452L9.25644 23.0093L8.96994 23.9137C8.96176 23.9393 8.96183 23.9668 8.97016 23.9922C8.97849 24.0177 8.99464 24.04 9.01632 24.0557C9.038 24.0715 9.06411 24.0801 9.09092 24.0802C9.11774 24.0803 9.1439 24.0719 9.16569 24.0562L9.93819 23.505L10.7107 24.0562C10.7325 24.0719 10.7586 24.0803 10.7855 24.0802C10.8123 24.0801 10.8384 24.0715 10.8601 24.0557C10.8817 24.04 10.8979 24.0177 10.9062 23.9922C10.9145 23.9668 10.9146 23.9393 10.9064 23.9137L10.6199 23.0093L11.3834 22.4452C11.4051 22.4294 11.4211 22.4071 11.4293 22.3815C11.4375 22.356 11.4375 22.3285 11.4292 22.303C11.4209 22.2775 11.4047 22.2553 11.3831 22.2395C11.3614 22.2237 11.3353 22.2151 11.3084 22.215L10.3597 22.2075L10.0597 21.3075C10.0515 21.2817 10.0353 21.2592 10.0135 21.2432C9.99161 21.2273 9.96525 21.2187 9.93819 21.2187C9.91113 21.2187 9.88477 21.2273 9.86293 21.2432C9.84109 21.2592 9.82489 21.2817 9.81669 21.3075H9.81744ZM13.3544 8.106L13.0544 9.006L12.1049 9.0135C12.0779 9.01338 12.0516 9.02186 12.0297 9.0377C12.0078 9.05354 11.9915 9.07592 11.9831 9.10163C11.9748 9.12733 11.9748 9.15502 11.9832 9.1807C11.9916 9.20638 12.008 9.22872 12.0299 9.2445L12.7934 9.8085L12.5069 10.713C12.4986 10.7386 12.4985 10.7663 12.5069 10.792C12.5152 10.8176 12.5314 10.84 12.5533 10.8558C12.5751 10.8717 12.6014 10.8802 12.6284 10.8801C12.6554 10.8801 12.6817 10.8714 12.7034 10.8555L13.4759 10.3035L14.2477 10.8555C14.2695 10.8714 14.2957 10.8801 14.3227 10.8801C14.3497 10.8802 14.376 10.8717 14.3979 10.8558C14.4197 10.84 14.436 10.8176 14.4443 10.792C14.4526 10.7663 14.4526 10.7386 14.4442 10.713L14.1577 9.80775L14.9212 9.2445C14.9431 9.22872 14.9595 9.20638 14.9679 9.1807C14.9763 9.15502 14.9763 9.12733 14.968 9.10163C14.9597 9.07592 14.9434 9.05354 14.9215 9.0377C14.8996 9.02186 14.8732 9.01338 14.8462 9.0135L13.8967 9.006L13.5967 8.106C13.5883 8.08049 13.5721 8.05828 13.5503 8.04253C13.5286 8.02679 13.5024 8.01831 13.4756 8.01831C13.4487 8.01831 13.4225 8.02679 13.4008 8.04253C13.379 8.05828 13.3628 8.08049 13.3544 8.106ZM23.0189 24.843L22.7189 25.743L21.7694 25.7505C21.7424 25.7504 21.7161 25.7589 21.6942 25.7747C21.6723 25.7905 21.656 25.8129 21.6476 25.8386C21.6393 25.8643 21.6393 25.892 21.6477 25.9177C21.6561 25.9434 21.6725 25.9657 21.6944 25.9815L22.4579 26.5455L22.1714 27.45C22.1631 27.4756 22.163 27.5033 22.1714 27.529C22.1797 27.5546 22.1959 27.577 22.2178 27.5928C22.2396 27.6087 22.2659 27.6172 22.2929 27.6171C22.3199 27.6171 22.3462 27.6084 22.3679 27.5925L23.1404 27.0413L23.9122 27.5925C23.934 27.6081 23.9601 27.6165 23.987 27.6164C24.0138 27.6163 24.0399 27.6078 24.0616 27.592C24.0832 27.5762 24.0994 27.554 24.1077 27.5285C24.116 27.503 24.1161 27.4755 24.1079 27.45L23.8222 26.5455L24.5857 25.9815C24.6073 25.9656 24.6234 25.9433 24.6316 25.9178C24.6398 25.8922 24.6397 25.8648 24.6314 25.8393C24.6231 25.8138 24.607 25.7915 24.5853 25.7757C24.5636 25.7599 24.5375 25.7514 24.5107 25.7512L23.5612 25.7437L23.2612 24.8438C23.2528 24.8182 23.2366 24.796 23.2148 24.7803C23.1931 24.7645 23.1669 24.7561 23.1401 24.7561C23.1132 24.7561 23.087 24.7645 23.0653 24.7803C23.0435 24.796 23.0273 24.8175 23.0189 24.843Z" fill="#FFCC00" />
    </g>
  </g>
  <defs>
    <clipPath id="clip0_30_640">
      <rect width="36" height="36" fill="white" />
    </clipPath>
  </defs>
</svg>