<svg width="36" height="36" viewBox="0 0 36 36" fill="none" xmlns="http://www.w3.org/2000/svg">
  <g clip-path="url(#clip0_61_32)">
    <mask id="mask0_61_32" style="mask-type:luminance" maskUnits="userSpaceOnUse" x="0" y="0" width="36" height="36">
      <path d="M0 0H36V36H0V0Z" fill="white" />
    </mask>
    <g mask="url(#mask0_61_32)">
      <path d="M28.125 0H7.875C3.52575 0 0 3.52575 0 7.875V28.125C0 32.4743 3.52575 36 7.875 36H28.125C32.4743 36 36 32.4743 36 28.125V7.875C36 3.52575 32.4743 0 28.125 0Z" fill="#CB2027" />
      <path d="M19.5464 14.8838L20.6474 16.3238L22.3672 15.7485C22.3881 15.7413 22.4109 15.7409 22.4321 15.7474C22.4533 15.7539 22.4719 15.767 22.4853 15.7848C22.4986 15.8025 22.506 15.824 22.5063 15.8462C22.5066 15.8684 22.4999 15.8901 22.4872 15.9083L21.4574 17.4008L22.5367 18.8588C22.5501 18.8765 22.5576 18.8981 22.558 18.9204C22.5584 18.9427 22.5516 18.9646 22.5388 18.9828C22.5259 19.001 22.5076 19.0147 22.4864 19.0218C22.4653 19.0289 22.4424 19.029 22.4212 19.0223L20.6834 18.5048L19.6304 19.9808C19.6177 19.9991 19.5996 20.0128 19.5785 20.0201C19.5575 20.0274 19.5347 20.0278 19.5134 20.0213C19.4922 20.0148 19.4735 20.0017 19.4601 19.9839C19.4468 19.9661 19.4394 19.9445 19.4392 19.9223L19.3949 18.1095L17.6662 17.5643C17.6447 17.558 17.6259 17.545 17.6123 17.5272C17.5988 17.5095 17.5913 17.4879 17.5909 17.4655C17.5904 17.4432 17.5972 17.4213 17.61 17.4031C17.6229 17.3848 17.6412 17.3711 17.6624 17.364L19.3724 16.7618L19.3574 14.9483C19.3571 14.9261 19.3638 14.9044 19.3766 14.8863C19.3893 14.8682 19.4075 14.8546 19.4285 14.8474C19.4495 14.8402 19.4722 14.8399 19.4934 14.8464C19.5145 14.853 19.5331 14.866 19.5464 14.8838ZM13.4564 22.9155C12.718 22.9153 11.9869 22.7697 11.3048 22.4869C10.6227 22.2042 10.0029 21.7899 9.48096 21.2676C8.95898 20.7453 8.54498 20.1254 8.26259 19.4431C7.9802 18.7609 7.83496 18.0297 7.83516 17.2913C7.83516 14.1908 10.3529 11.6678 13.4564 11.6678C14.6114 11.6678 15.6764 12.0225 16.5629 12.6233C16.6987 12.7155 16.8539 12.537 16.7399 12.4185C16.0605 11.7078 15.2384 11.1489 14.3276 10.7786C13.4168 10.4083 12.438 10.2349 11.4554 10.2698C7.88016 10.392 4.91991 13.2585 4.69191 16.8293C4.42941 20.9183 7.66791 24.3173 11.6999 24.3173C12.6431 24.3177 13.5766 24.1267 14.4438 23.7558C15.311 23.3849 16.094 22.8419 16.7452 22.1595C16.8577 22.0425 16.7024 21.867 16.5674 21.957C15.6504 22.582 14.5662 22.9161 13.4564 22.9155Z" fill="#F5F5F5" />
    </g>
  </g>
  <defs>
    <clipPath id="clip0_61_32">
      <rect width="36" height="36" fill="white" />
    </clipPath>
  </defs>
</svg>