<svg width="24" height="24" viewBox="0 0 24 24" fill="none" xmlns="http://www.w3.org/2000/svg">
  <path d="M8.36364 11.0909C9.56917 11.0909 10.7253 10.612 11.5778 9.75958C12.4302 8.90714 12.9091 7.75098 12.9091 6.54545C12.9091 5.33993 12.4302 4.18377 11.5778 3.33133C10.7253 2.47889 9.56917 2 8.36364 2C7.15811 2 6.00195 2.47889 5.14951 3.33133C4.29708 4.18377 3.81818 5.33993 3.81818 6.54545C3.81818 7.75098 4.29708 8.90714 5.14951 9.75958C6.00195 10.612 7.15811 11.0909 8.36364 11.0909ZM8.36364 11.0909C10.1936 11.0909 11.7927 11.7818 12.93 12.93C13.6043 13.6136 14.1087 14.4459 14.4027 15.36M8.36364 11.0909C4.72727 11.0909 2 13.8182 2 17.4545V22H11.0909M12 18.2036L15.8091 21.0909L22 12.9091" stroke="#848484" stroke-width="1.5" />
</svg>