<svg width="48" height="48" viewBox="0 0 48 48" fill="none" xmlns="http://www.w3.org/2000/svg">
  <path d="M29.9997 22V22.02M10.3457 16.756C9.46846 16.0818 8.79474 15.1782 8.39898 14.145C8.00322 13.1119 7.90081 11.9894 8.10309 10.9017C8.30537 9.81402 8.80444 8.80343 9.54516 7.98163C10.2859 7.15983 11.2394 6.55884 12.3003 6.24507C13.3613 5.9313 14.4883 5.91698 15.5568 6.20369C16.6254 6.4904 17.5939 7.06697 18.3552 7.86968C19.1166 8.67239 19.6412 9.66999 19.871 10.7522C20.1009 11.8344 20.027 12.9591 19.6577 14.002" stroke="white" stroke-width="2" stroke-linecap="round" stroke-linejoin="round" />
  <path d="M32 8V15.606C34.4751 17.0384 36.3596 19.305 37.316 22H39.998C40.5285 22 41.0372 22.2107 41.4122 22.5858C41.7873 22.9609 41.998 23.4696 41.998 24V28C41.998 28.5304 41.7873 29.0391 41.4122 29.4142C41.0372 29.7893 40.5285 30 39.998 30H37.314C36.642 31.9 35.5 33.6 33.998 34.946V39C33.998 39.7956 33.682 40.5587 33.1193 41.1213C32.5567 41.6839 31.7937 42 30.998 42C30.2024 42 29.4393 41.6839 28.8767 41.1213C28.3141 40.5587 27.998 39.7956 27.998 39V37.834C27.3372 37.9451 26.6682 38.0006 25.998 38H17.998C17.3279 38.0006 16.6589 37.9451 15.998 37.834V39C15.998 39.7956 15.682 40.5587 15.1193 41.1213C14.5567 41.6839 13.7937 42 12.998 42C12.2024 42 11.4393 41.6839 10.8767 41.1213C10.3141 40.5587 9.99803 39.7956 9.99803 39V34.946C8.18595 33.3259 6.90858 31.1938 6.33499 28.8317C5.76141 26.4697 5.91865 23.9891 6.78591 21.7184C7.65317 19.4477 9.18955 17.4939 11.1917 16.1157C13.1938 14.7374 15.5673 13.9996 17.998 14H22.998L32 8Z" stroke="white" stroke-width="2" stroke-linecap="round" stroke-linejoin="round" />
</svg>