<svg width="48" height="48" viewBox="0 0 48 48" fill="none" xmlns="http://www.w3.org/2000/svg">
  <path d="M42 40.5L30.75 29.25M7.5 19.5C7.5 21.2728 7.84919 23.0283 8.52763 24.6662C9.20606 26.3041 10.2005 27.7923 11.4541 29.0459C12.7076 30.2995 14.1959 31.2939 15.8338 31.9724C17.4717 32.6508 19.2272 33 21 33C22.7728 33 24.5283 32.6508 26.1662 31.9724C27.8041 31.2939 29.2923 30.2995 30.5459 29.0459C31.7995 27.7923 32.7939 26.3041 33.4724 24.6662C34.1508 23.0283 34.5 21.2728 34.5 19.5C34.5 15.9196 33.0777 12.4858 30.5459 9.95406C28.0142 7.42232 24.5804 6 21 6C17.4196 6 13.9858 7.42232 11.4541 9.95406C8.92232 12.4858 7.5 15.9196 7.5 19.5Z" stroke="white" stroke-width="2" stroke-linecap="round" stroke-linejoin="round" />
</svg>