<svg width="48" height="48" viewBox="0 0 48 48" fill="none" xmlns="http://www.w3.org/2000/svg">
  <path d="M6.344 41.656C8.686 44 12.458 44 20 44H28C35.542 44 39.314 44 41.656 41.656C43.998 39.312 44 35.542 44 28C44 25.66 44 23.684 43.93 22M41.656 14.344C39.314 12 35.542 12 28 12H20C12.458 12 8.686 12 6.344 14.344C4.002 16.688 4 20.458 4 28C4 30.34 4 32.316 4.07 34M24 4C27.772 4 29.656 4 30.828 5.172C32 6.344 32 8.228 32 12M17.172 5.172C16 6.344 16 8.228 16 12" stroke="white" stroke-width="1.5" stroke-linecap="round" />
  <path d="M24 34.666C26.21 34.666 28 33.174 28 31.334C28 29.494 26.21 28 24 28C21.79 28 20 26.508 20 24.666C20 22.826 21.79 21.334 24 21.334M24 34.666C21.79 34.666 20 33.174 20 31.334M24 34.666V36M24 21.334V20M24 21.334C26.21 21.334 28 22.826 28 24.666" stroke="white" stroke-width="1.5" stroke-linecap="round" />
</svg>