<svg width="18" height="18" viewBox="0 0 18 18" fill="none" xmlns="http://www.w3.org/2000/svg">
  <path d="M17 14.3425V8.79451C17 8.26017 16.9995 7.99286 16.9346 7.74422C16.877 7.52387 16.7825 7.31535 16.6546 7.12693C16.5102 6.9143 16.3096 6.73797 15.9074 6.38611L11.1074 2.18611C10.3608 1.53283 9.98751 1.20635 9.56738 1.08211C9.19719 0.972631 8.80261 0.972631 8.43242 1.08211C8.01261 1.20626 7.63985 1.53242 6.89436 2.18472L2.09277 6.38611C1.69064 6.73798 1.49004 6.9143 1.3457 7.12693C1.21779 7.31536 1.12255 7.52387 1.06497 7.74422C1 7.99286 1 8.26017 1 8.79451V14.3425C1 15.2743 1 15.7401 1.15224 16.1076C1.35523 16.5977 1.74432 16.9875 2.23438 17.1905C2.60192 17.3427 3.06786 17.3427 3.99974 17.3427C4.93163 17.3427 5.39808 17.3427 5.76562 17.1905C6.25568 16.9875 6.64467 16.5978 6.84766 16.1077C6.9999 15.7402 7 15.2742 7 14.3424V13.3424C7 12.2378 7.89543 11.3424 9 11.3424C10.1046 11.3424 11 12.2378 11 13.3424V14.3424C11 15.2742 11 15.7402 11.1522 16.1077C11.3552 16.5978 11.7443 16.9875 12.2344 17.1905C12.6019 17.3427 13.0679 17.3427 13.9997 17.3427C14.9316 17.3427 15.3981 17.3427 15.7656 17.1905C16.2557 16.9875 16.6447 16.5977 16.8477 16.1076C16.9999 15.7401 17 15.2743 17 14.3425Z" stroke="#333333" stroke-linecap="round" stroke-linejoin="round" />
</svg>