<svg width="17" height="16" viewBox="0 0 17 16" fill="none" xmlns="http://www.w3.org/2000/svg">
  <path fill-rule="evenodd" clip-rule="evenodd" d="M8.25016 14.6666C4.56816 14.6666 1.5835 11.682 1.5835 7.99998C1.5835 4.31798 4.56816 1.33331 8.25016 1.33331C11.9322 1.33331 14.9168 4.31798 14.9168 7.99998C14.9168 11.682 11.9322 14.6666 8.25016 14.6666ZM8.25016 13.8666C9.8061 13.8666 11.2983 13.2486 12.3985 12.1483C13.4987 11.0481 14.1168 9.55592 14.1168 7.99998C14.1168 6.44404 13.4987 4.95183 12.3985 3.85162C11.2983 2.75141 9.8061 2.13331 8.25016 2.13331C6.69423 2.13331 5.20202 2.75141 4.1018 3.85162C3.00159 4.95183 2.3835 6.44404 2.3835 7.99998C2.3835 9.55592 3.00159 11.0481 4.1018 12.1483C5.20202 13.2486 6.69423 13.8666 8.25016 13.8666ZM7.85016 6.66665H8.65016V11.3333H7.85016V6.66665ZM8.25016 5.99998C8.07335 5.99998 7.90378 5.92974 7.77876 5.80472C7.65373 5.67969 7.5835 5.51012 7.5835 5.33331C7.5835 5.1565 7.65373 4.98693 7.77876 4.86191C7.90378 4.73688 8.07335 4.66665 8.25016 4.66665C8.42697 4.66665 8.59654 4.73688 8.72157 4.86191C8.84659 4.98693 8.91683 5.1565 8.91683 5.33331C8.91683 5.51012 8.84659 5.67969 8.72157 5.80472C8.59654 5.92974 8.42697 5.99998 8.25016 5.99998Z" fill="#6F6F6F" />
</svg>