<svg width="16" height="16" viewBox="0 0 16 16" fill="none" xmlns="http://www.w3.org/2000/svg">
  <path d="M2 6.82267L2.498 6.78001C2.48652 6.65195 2.42616 6.53323 2.32944 6.44852C2.23273 6.36381 2.10709 6.31961 1.97864 6.3251C1.85019 6.33059 1.72878 6.38535 1.63965 6.47801C1.55052 6.57067 1.50051 6.6941 1.5 6.82267H2ZM13.4907 8.03801L13.02 10.758L14.006 10.9287L14.476 8.20867L13.4907 8.03801ZM8.83 14.1667H5.73067V15.1667H8.83V14.1667ZM5.12333 13.6087L4.582 7.34667L3.58533 7.43267L4.12733 13.6947L5.12333 13.6087ZM13.02 10.758C12.682 12.7113 10.9207 14.1667 8.83 14.1667V15.1667C11.3807 15.1667 13.5807 13.3873 14.006 10.9287L13.02 10.758ZM8.83667 3.40001L8.39467 6.09667L9.38133 6.25801L9.82333 3.56201L8.83667 3.40001ZM4.792 6.83067L5.75133 6.00401L5.098 5.24667L4.14 6.07334L4.792 6.83067ZM7.496 3.31467L7.81333 2.09201L6.84533 1.84134L6.528 3.06334L7.496 3.31467ZM8.292 1.85201L8.38867 1.88334L8.69467 0.931341L8.598 0.900007L8.292 1.85201ZM7.01533 4.54401C7.22346 4.15461 7.3848 3.74197 7.496 3.31467L6.528 3.06334C6.43614 3.4142 6.30369 3.75315 6.13333 4.07334L7.01533 4.54401ZM8.38867 1.88334C8.48364 1.91245 8.56979 1.96493 8.63921 2.03598C8.70864 2.10704 8.75911 2.19438 8.786 2.29001L9.754 2.03934C9.6854 1.78021 9.55226 1.54268 9.36702 1.34892C9.18177 1.15517 8.95046 1.0115 8.69467 0.931341L8.38867 1.88334ZM7.81333 2.09201C7.82682 2.04408 7.85048 1.99963 7.88269 1.96167C7.9149 1.9237 7.95491 1.89312 8 1.87201L7.566 0.971341C7.21133 1.14201 6.94467 1.45801 6.84533 1.84134L7.81333 2.09201ZM8 1.87201C8.09131 1.82869 8.19563 1.82155 8.292 1.85201L8.598 0.900007C8.25751 0.791161 7.88828 0.816683 7.566 0.971341L8 1.87201ZM9.436 7.32267H12.8893V6.32267H9.436V7.32267ZM3.146 14.2707L2.498 6.78001L1.502 6.86601L2.14867 14.3567L3.146 14.2707ZM2.5 14.342V6.82267H1.5V14.342H2.5ZM2.14867 14.3567C2.14663 14.3324 2.15033 14.3081 2.15822 14.2851C2.16612 14.2621 2.17871 14.241 2.1952 14.2231C2.21169 14.2052 2.23171 14.191 2.254 14.1813C2.27629 14.1716 2.30035 14.1666 2.32467 14.1667V15.1667C2.80867 15.1667 3.18733 14.752 3.146 14.2707L2.14867 14.3567ZM9.82333 3.56201C9.90714 3.0552 9.88352 2.53644 9.754 2.03934L8.786 2.29067C8.88055 2.6528 8.89781 3.03077 8.83667 3.40001L9.82333 3.56201ZM5.73067 14.1667C5.57801 14.1664 5.43098 14.109 5.31857 14.0057C5.20615 13.9024 5.1365 13.7608 5.12333 13.6087L4.12733 13.6947C4.16202 14.0961 4.34592 14.47 4.64274 14.7425C4.93955 15.015 5.32773 15.1663 5.73067 15.1667V14.1667ZM5.75133 6.00401C6.20467 5.61334 6.69267 5.14867 7.016 4.54401L6.13333 4.07334C5.90267 4.50601 5.53533 4.87067 5.098 5.24667L5.75133 6.00401ZM14.476 8.20867C14.5161 7.97733 14.5052 7.74001 14.444 7.51334C14.3828 7.28666 14.2727 7.07612 14.1216 6.89644C13.9704 6.71677 13.7818 6.57232 13.5689 6.47321C13.3561 6.37409 13.1241 6.32272 12.8893 6.32267V7.32267C13.2673 7.32267 13.556 7.66401 13.4907 8.03801L14.476 8.20867ZM2.32467 14.1667C2.422 14.1667 2.5 14.2453 2.5 14.342H1.5C1.5 14.7967 1.86867 15.1667 2.32467 15.1667V14.1667ZM8.39467 6.09667C8.36981 6.24773 8.37812 6.40238 8.41901 6.5499C8.4599 6.69742 8.5324 6.83428 8.63147 6.95098C8.73054 7.06769 8.85381 7.16144 8.99274 7.22574C9.13166 7.29004 9.28292 7.32267 9.436 7.32267V6.32267C9.42787 6.32271 9.41982 6.32162 9.41245 6.31819C9.40507 6.31477 9.39854 6.30975 9.39332 6.30352C9.3881 6.29728 9.38432 6.28997 9.38225 6.2821C9.38017 6.27423 9.37986 6.26601 9.38133 6.25801L8.39467 6.09667ZM4.582 7.34667C4.57387 7.25014 4.58805 7.15305 4.62467 7.06336C4.66129 6.97367 4.71863 6.89393 4.792 6.83067L4.13867 6.07267C3.94543 6.23943 3.79451 6.44966 3.69832 6.68608C3.60213 6.9225 3.56341 7.17838 3.58533 7.43267L4.582 7.34667Z" fill="white" />
</svg>