<svg width="30" height="30" viewBox="0 0 30 30" fill="none" xmlns="http://www.w3.org/2000/svg">
  <path d="M5 7.5C4.66848 7.5 4.35054 7.6317 4.11612 7.86612C3.8817 8.10054 3.75 8.41848 3.75 8.75C3.75 9.08152 3.8817 9.39946 4.11612 9.63388C4.35054 9.8683 4.66848 10 5 10C5.33152 10 5.64946 9.8683 5.88388 9.63388C6.1183 9.39946 6.25 9.08152 6.25 8.75C6.25 8.41848 6.1183 8.10054 5.88388 7.86612C5.64946 7.6317 5.33152 7.5 5 7.5ZM9.375 7.5C9.04348 7.5 8.72554 7.6317 8.49112 7.86612C8.2567 8.10054 8.125 8.41848 8.125 8.75C8.125 9.08152 8.2567 9.39946 8.49112 9.63388C8.72554 9.8683 9.04348 10 9.375 10H21.875C22.2065 10 22.5245 9.8683 22.7589 9.63388C22.9933 9.39946 23.125 9.08152 23.125 8.75C23.125 8.41848 22.9933 8.10054 22.7589 7.86612C22.5245 7.6317 22.2065 7.5 21.875 7.5H9.375ZM9.5 13.75C9.13533 13.75 8.78559 13.8949 8.52773 14.1527C8.26987 14.4106 8.125 14.7603 8.125 15.125C8.125 15.4897 8.26987 15.8394 8.52773 16.0973C8.78559 16.3551 9.13533 16.5 9.5 16.5H16.75C17.1147 16.5 17.4644 16.3551 17.7223 16.0973C17.9801 15.8394 18.125 15.4897 18.125 15.125C18.125 14.7603 17.9801 14.4106 17.7223 14.1527C17.4644 13.8949 17.1147 13.75 16.75 13.75H9.5ZM8.125 21.25C8.125 20.9185 8.2567 20.6005 8.49112 20.3661C8.72554 20.1317 9.04348 20 9.375 20H13.125C13.4565 20 13.7745 20.1317 14.0089 20.3661C14.2433 20.6005 14.375 20.9185 14.375 21.25C14.375 21.5815 14.2433 21.8995 14.0089 22.1339C13.7745 22.3683 13.4565 22.5 13.125 22.5H9.375C9.04348 22.5 8.72554 22.3683 8.49112 22.1339C8.2567 21.8995 8.125 21.5815 8.125 21.25ZM3.75 15C3.75 14.6685 3.8817 14.3505 4.11612 14.1161C4.35054 13.8817 4.66848 13.75 5 13.75C5.33152 13.75 5.64946 13.8817 5.88388 14.1161C6.1183 14.3505 6.25 14.6685 6.25 15C6.25 15.3315 6.1183 15.6495 5.88388 15.8839C5.64946 16.1183 5.33152 16.25 5 16.25C4.66848 16.25 4.35054 16.1183 4.11612 15.8839C3.8817 15.6495 3.75 15.3315 3.75 15ZM5 20C4.66848 20 4.35054 20.1317 4.11612 20.3661C3.8817 20.6005 3.75 20.9185 3.75 21.25C3.75 21.5815 3.8817 21.8995 4.11612 22.1339C4.35054 22.3683 4.66848 22.5 5 22.5C5.33152 22.5 5.64946 22.3683 5.88388 22.1339C6.1183 21.8995 6.25 21.5815 6.25 21.25C6.25 20.9185 6.1183 20.6005 5.88388 20.3661C5.64946 20.1317 5.33152 20 5 20ZM18.125 20.6875C18.125 20.356 18.2567 20.038 18.4911 19.8036C18.7255 19.5692 19.0435 19.4375 19.375 19.4375H21.875V16.875C21.875 16.5435 22.0067 16.2255 22.2411 15.9911C22.4755 15.7567 22.7935 15.625 23.125 15.625C23.4565 15.625 23.7745 15.7567 24.0089 15.9911C24.2433 16.2255 24.375 16.5435 24.375 16.875V19.4375H26.875C27.2065 19.4375 27.5245 19.5692 27.7589 19.8036C27.9933 20.038 28.125 20.356 28.125 20.6875C28.125 21.019 27.9933 21.337 27.7589 21.5714C27.5245 21.8058 27.2065 21.9375 26.875 21.9375H24.375V24.375C24.375 24.7065 24.2433 25.0245 24.0089 25.2589C23.7745 25.4933 23.4565 25.625 23.125 25.625C22.7935 25.625 22.4755 25.4933 22.2411 25.2589C22.0067 25.0245 21.875 24.7065 21.875 24.375V21.9375H19.375C19.0435 21.9375 18.7255 21.8058 18.4911 21.5714C18.2567 21.337 18.125 21.019 18.125 20.6875Z" fill="#1FBFAB" />
</svg>