<svg width="22" height="21" viewBox="0 0 22 21" fill="none" xmlns="http://www.w3.org/2000/svg">
  <path d="M1.16113 8.64292C0.847883 8.35324 1.01804 7.82955 1.44174 7.77931L7.44531 7.06722C7.61799 7.04674 7.76799 6.93831 7.84082 6.7804L10.373 1.29061C10.5518 0.903178 11.1025 0.903104 11.2812 1.29054L13.8135 6.78029C13.8863 6.93819 14.0353 7.04692 14.208 7.0674L20.2119 7.77931C20.6356 7.82955 20.8053 8.35339 20.492 8.64308L16.0539 12.7481C15.9263 12.8661 15.8694 13.0419 15.9033 13.2124L17.0812 19.1421C17.1643 19.5606 16.719 19.8848 16.3467 19.6764L11.0713 16.7228C10.9196 16.6378 10.7352 16.6382 10.5835 16.7232L5.30761 19.6757C4.9353 19.8841 4.48911 19.5606 4.57227 19.1421L5.75032 13.2128C5.7842 13.0422 5.72751 12.8661 5.59984 12.748L1.16113 8.64292Z" fill="#FFCC00" stroke="#FFCC00" stroke-width="2" stroke-linecap="round" stroke-linejoin="round" />
</svg>