<svg width="54" height="54" viewBox="0 0 54 54" fill="none" xmlns="http://www.w3.org/2000/svg">
  <g clip-path="url(#clip0_8_1402)">
    <mask id="mask0_8_1402" style="mask-type:luminance" maskUnits="userSpaceOnUse" x="0" y="0" width="54" height="54">
      <path d="M54 0H0V54H54V0Z" fill="white" />
    </mask>
    <g mask="url(#mask0_8_1402)">
      <path d="M54 -0.000732422H0V53.9993H54V-0.000732422Z" fill="#166CB7" />
      <path d="M38.8255 17.0418C38.5473 17.0413 38.2716 17.0945 38.0145 17.1981C37.7573 17.3018 37.5238 17.4539 37.327 17.6458C37.1303 17.8376 36.9743 18.0655 36.868 18.3162C36.7618 18.567 36.7072 18.8358 36.7076 19.1071V29.1188C36.7155 30.3701 36.4495 31.6087 35.9278 32.7518C35.4206 33.8649 34.6959 34.8711 33.7941 35.7139C32.8813 36.5627 31.8149 37.2388 30.6492 37.7082C29.4358 38.1958 28.1349 38.4429 26.8227 38.4348C24.548 38.4492 21.8527 37.7001 20.0987 36.2876C19.2621 35.6106 18.5466 34.8029 17.981 33.8974C17.5825 33.2572 17.2633 32.5732 17.0298 31.8599C16.8896 31.4372 16.6141 31.0694 16.2438 30.8107C15.8735 30.5519 15.4279 30.4157 14.9724 30.4221C14.6347 30.4196 14.3014 30.4963 14.0007 30.6459C13.6999 30.7956 13.4406 31.0136 13.2445 31.2816C13.0428 31.5433 12.9086 31.8485 12.8534 32.1714C12.7983 32.4943 12.8237 32.8255 12.9275 33.1369C13.2143 34.0197 13.5981 34.8697 14.072 35.6722C14.8827 37.0326 15.9284 38.246 17.163 39.2589C18.4157 40.2912 19.8408 41.106 21.3764 41.6674C22.9702 42.2529 25.1481 42.5323 26.8512 42.5255C28.7258 42.5285 30.5824 42.169 32.3136 41.4679C33.9849 40.7992 35.5074 39.8206 36.7965 38.5864C38.0686 37.3566 39.0915 35.9037 39.8115 34.304C40.5599 32.6483 40.9412 30.8572 40.9305 29.0478V19.0979C40.9265 18.5544 40.7033 18.0341 40.3096 17.6495C39.9158 17.2648 39.3828 17.0466 38.8255 17.0418Z" fill="white" />
      <path d="M38.7489 11.475H31.7361C31.1576 11.475 30.6029 11.6991 30.1938 12.098C29.7848 12.497 29.555 13.0381 29.555 13.6022C29.555 14.1664 29.7848 14.7075 30.1938 15.1064C30.6029 15.5053 31.1576 15.7295 31.7361 15.7295H38.7489C39.3251 15.7295 39.8779 15.507 40.2866 15.1108C40.6953 14.7145 40.9267 14.1767 40.93 13.6146C40.9313 13.3343 40.8758 13.0566 40.7668 12.7972C40.6577 12.5379 40.4974 12.3021 40.2948 12.1033C40.0922 11.9045 39.8512 11.7467 39.586 11.6389C39.3208 11.5311 39.0363 11.4754 38.7489 11.475Z" fill="white" />
      <path d="M15.1164 15.7279H22.1196C22.4063 15.7275 22.6901 15.672 22.9548 15.5645C23.2195 15.4571 23.4598 15.2997 23.6621 15.1016C23.8644 14.9034 24.0246 14.6683 24.1336 14.4097C24.2427 14.1511 24.2984 13.8741 24.2976 13.5945C24.2943 13.0343 24.0648 12.4979 23.6589 12.1015C23.2531 11.7052 22.7034 11.4806 22.1291 11.4765H15.1164C14.8231 11.4656 14.5307 11.5125 14.2565 11.6144C13.9823 11.7164 13.732 11.8711 13.5206 12.0697C13.3092 12.2681 13.141 12.5061 13.0261 12.7695C12.9113 13.0328 12.852 13.316 12.852 13.6022C12.852 13.8884 12.9113 14.1717 13.0261 14.435C13.141 14.6983 13.3092 14.9364 13.5206 15.1348C13.732 15.3333 13.9823 15.4881 14.2565 15.59C14.5307 15.6919 14.8231 15.7388 15.1164 15.7279Z" fill="white" />
    </g>
  </g>
  <defs>
    <clipPath id="clip0_8_1402">
      <rect width="54" height="54" fill="white" />
    </clipPath>
  </defs>
</svg>