<svg width="54" height="54" viewBox="0 0 54 54" fill="none" xmlns="http://www.w3.org/2000/svg">
  <g clip-path="url(#clip0_8_1618)">
    <path d="M54 0H0V54H54V0Z" fill="#FC7321" />
    <mask id="mask0_8_1618" style="mask-type:luminance" maskUnits="userSpaceOnUse" x="7" y="17" width="40" height="21">
      <path d="M46.575 17.55H7.42499V37.125H46.575V17.55Z" fill="white" />
    </mask>
    <g mask="url(#mask0_8_1618)">
      <path d="M32.1373 20.9118C33.0653 20.9118 33.818 20.1587 33.818 19.2312C33.818 18.3026 33.0653 17.55 32.1373 17.55C31.2087 17.55 30.4567 18.3026 30.4567 19.2312C30.4567 20.1587 31.2087 20.9118 32.1373 20.9118Z" fill="white" />
      <path d="M41.1434 23.1411C41.7976 23.1411 42.3292 22.6102 42.3292 21.9559C42.3292 21.3011 41.7982 20.7701 41.1434 20.7701C40.4885 20.7701 39.9582 21.3011 39.9582 21.9559C39.9582 22.6102 40.4885 23.1411 41.1434 23.1411Z" fill="white" />
      <path d="M45.9819 28.8368C45.9712 28.8298 45.9605 28.8234 45.9503 28.8169C40.2945 25.1617 33.7386 23.0667 26.7476 23.0549H26.7446H26.7417C19.7507 23.0667 13.1946 25.1617 7.53879 28.8169C7.52813 28.8234 7.51807 28.8298 7.50741 28.8368C7.45759 28.8754 7.42499 28.936 7.42499 29.003C7.42499 29.0254 7.42978 29.0462 7.43572 29.0663C7.46292 29.1523 7.5423 29.2157 7.63775 29.2157C7.6638 29.2157 7.68939 29.2098 7.71247 29.2009C7.71659 29.1997 7.72077 29.1983 7.72489 29.1966L8.05915 29.0663L9.5993 28.4685C9.5993 28.4685 9.89502 28.3753 10.0924 28.4482C10.3205 28.5336 10.4983 28.722 10.5706 28.9544C10.5801 28.9851 10.5907 29.0231 10.6014 29.0657C10.6032 29.0734 10.6055 29.0812 10.6073 29.0894C10.6725 29.3538 10.7502 29.7721 10.7502 29.7721L11.8299 36.4965C11.8554 36.7406 12.0734 36.9381 12.3176 36.9381C12.5612 36.9381 12.7377 36.7406 12.7123 36.4965C12.7123 36.4965 12.6381 33.5376 12.6381 33.5193C12.6429 33.3018 12.8112 33.1344 13.0358 33.1344C13.2533 33.1344 13.4512 33.2928 13.5087 33.4996C13.5158 33.5239 13.5277 33.5797 13.5277 33.5797L14.1861 36.4971C14.2116 36.7412 14.4297 36.9386 14.6732 36.9386C14.9174 36.9386 15.0939 36.7412 15.0685 36.4971L14.6957 29.0663L14.6833 28.8227L14.6631 28.4199L14.6453 27.7781C14.6453 26.7535 15.475 25.9242 16.4984 25.9242C17.5224 25.9242 18.3521 26.7535 18.3521 27.7781L19.0295 36.3015C19.0295 36.6535 19.3139 36.9386 19.6659 36.9386C20.0179 36.9386 20.303 36.6535 20.303 36.3015C20.303 36.3015 20.6218 32.0838 20.6254 32.0571C20.665 31.7437 20.9335 31.5013 21.2571 31.5013C21.5718 31.5013 21.8331 31.7289 21.8846 32.0288C21.8905 32.0644 21.8994 32.1437 21.8994 32.1437L22.4304 36.3015C22.4304 36.6535 22.7154 36.9386 23.0674 36.9386C23.4188 36.9386 23.7046 36.6535 23.7046 36.3015L23.6731 29.0663L23.7063 28.2324L23.7216 27.8443C23.7216 26.2123 25.0444 24.8903 26.6759 24.8903C26.6978 24.8903 26.7197 24.8909 26.7411 24.892H26.744H26.747C26.7683 24.8909 26.7903 24.8903 26.8122 24.8903C28.4436 24.8903 29.7663 26.2123 29.7663 27.8443L29.7817 28.2324L29.8149 29.0663L29.8369 36.3015C29.8369 36.6535 30.1219 36.9386 30.4739 36.9386C30.8253 36.9386 31.1109 36.6535 31.1109 36.3015L31.6413 32.1437C31.6413 32.1437 31.6508 32.0638 31.6561 32.0288C31.7082 31.7289 31.9697 31.5013 32.2843 31.5013C32.609 31.5013 32.8763 31.7431 32.916 32.0571C32.9189 32.0838 33.2384 36.3015 33.2384 36.3015C33.2384 36.6535 33.5234 36.9386 33.8754 36.9386C34.2269 36.9386 34.5119 36.6535 34.5119 36.3015L35.136 27.7781C35.136 26.7535 35.9655 25.9242 36.9896 25.9242C38.013 25.9242 38.8427 26.7535 38.8427 27.7781L38.8249 28.4199L38.8053 28.8227L38.7928 29.0663L38.4202 36.4971C38.3947 36.7412 38.5712 36.9386 38.8148 36.9386C39.0589 36.9386 39.277 36.7412 39.3025 36.4971L39.9609 33.5262C39.9609 33.5262 39.9734 33.4713 39.9793 33.4464C40.0374 33.2389 40.2353 33.0812 40.4528 33.0812C40.6774 33.0812 40.8457 33.2488 40.8504 33.4663C40.8504 33.4847 40.7763 36.4965 40.7763 36.4965C40.7509 36.7406 40.9275 36.9381 41.171 36.9381C41.4152 36.9381 41.6332 36.7406 41.6588 36.4965L42.7385 29.7721C42.7385 29.7721 42.8161 29.3538 42.8813 29.0894C42.8831 29.0812 42.8848 29.0734 42.8872 29.0657C42.8979 29.0231 42.9086 28.9845 42.918 28.9544C42.9903 28.7214 43.1681 28.533 43.3963 28.4482C43.5937 28.3753 43.8894 28.4685 43.8894 28.4685L45.4289 29.0663L45.7638 29.1966C45.7685 29.1983 45.772 29.1997 45.7762 29.2009C45.7993 29.2103 45.8242 29.2157 45.8508 29.2157C45.9462 29.2157 46.0257 29.1523 46.0529 29.0663C46.0589 29.0462 46.0636 29.0254 46.0636 29.003C46.0636 28.936 46.0316 28.8754 45.9819 28.8368Z" fill="white" />
      <path d="M21.3511 20.9118C22.2791 20.9118 23.0318 20.1587 23.0318 19.2312C23.0318 18.3026 22.2791 17.55 21.3511 17.55C20.4237 17.55 19.6699 18.3026 19.6699 19.2312C19.6699 20.1587 20.4237 20.9118 21.3511 20.9118Z" fill="white" />
      <path d="M12.3451 23.1411C13 23.1411 13.5304 22.6102 13.5304 21.9559C13.5304 21.3011 13 20.7701 12.3451 20.7701C11.6909 20.7701 11.1599 21.3011 11.1599 21.9559C11.1599 22.6102 11.6903 23.1411 12.3451 23.1411Z" fill="white" />
    </g>
  </g>
  <defs>
    <clipPath id="clip0_8_1618">
      <rect width="54" height="54" fill="white" />
    </clipPath>
  </defs>
</svg>