<svg width="54" height="54" viewBox="0 0 54 54" fill="none" xmlns="http://www.w3.org/2000/svg">
  <g clip-path="url(#clip0_8_1573)">
    <path d="M54 0H0V54H54V0Z" fill="white" />
    <path d="M47.25 0H6.75C3.02208 0 0 3.02208 0 6.75V47.25C0 50.9779 3.02208 54 6.75 54H47.25C50.9779 54 54 50.9779 54 47.25V6.75C54 3.02208 50.9779 0 47.25 0Z" fill="#99CC33" />
    <path fill-rule="evenodd" clip-rule="evenodd" d="M39.2325 12.15C41.3361 12.15 42.525 13.5517 42.525 15.4959V38.6455C42.525 40.2732 41.3361 41.4488 39.6441 41.4488C37.9978 41.4488 36.8089 40.2732 36.8089 38.6455V21.5094L29.9953 32.2704C29.1264 33.6268 28.2575 34.0789 26.9771 34.0789C25.7425 34.0789 24.8279 33.6268 23.959 32.2704L17.1911 21.5998V38.6455C17.1911 40.2732 16.0022 41.4488 14.3102 41.4488C12.664 41.4488 11.475 40.2732 11.475 38.6455V15.9028C11.475 13.5969 12.8469 12.15 15.2705 12.15C17.4198 12.15 18.5173 13.2804 19.8434 15.3603L27.343 27.4777L35.437 14.5012C36.3516 13.0543 37.3119 12.15 39.2325 12.15Z" fill="white" />
  </g>
  <defs>
    <clipPath id="clip0_8_1573">
      <rect width="54" height="54" fill="white" />
    </clipPath>
  </defs>
</svg>