<svg width="54" height="54" viewBox="0 0 54 54" fill="none" xmlns="http://www.w3.org/2000/svg">
  <g clip-path="url(#clip0_8_1524)">
    <path d="M54 0H0V54H54V0Z" fill="#026670" />
    <mask id="mask0_8_1524" style="mask-type:luminance" maskUnits="userSpaceOnUse" x="6" y="6" width="42" height="41">
      <path d="M47.925 6.75H6.075V46.575H47.925V6.75Z" fill="white" />
    </mask>
    <g mask="url(#mask0_8_1524)">
      <path fill-rule="evenodd" clip-rule="evenodd" d="M40.865 13.4877C39.8534 12.2387 38.7709 11.1119 37.6431 10.1198C41.4779 10.7607 44.7181 12.5613 46.5106 15.6463C48.6789 19.3781 48.15 23.9937 45.8703 28.3036C43.5828 32.6285 39.4633 36.812 34.0886 39.8954L32.9405 37.9196C37.9984 35.0182 41.7817 31.1297 43.8379 27.2421C45.9024 23.3394 46.1578 19.602 44.5223 16.7869C43.7079 15.3854 42.4601 14.2731 40.865 13.4877Z" fill="url(#paint0_linear_8_1524)" />
      <path fill-rule="evenodd" clip-rule="evenodd" d="M14.2628 42.3174C15.5067 43.5315 16.819 44.5782 18.1624 45.4387C13.5756 45.0935 9.60686 43.244 7.54757 39.7016C5.37726 35.9685 5.9068 31.3514 8.18822 27.0403C10.4777 22.714 14.6007 18.529 19.9798 15.4447L21.1288 17.421C16.0668 20.3234 12.2802 24.2131 10.2223 28.102C8.15629 32.0059 7.9006 35.7447 9.53761 38.5605C10.5259 40.2605 12.1524 41.5355 14.2628 42.3174Z" fill="url(#paint1_linear_8_1524)" />
      <path d="M35.7005 44.5311C41.9751 40.9224 42.597 30.294 37.0892 20.7916C31.5812 11.2893 22.0297 6.51144 15.755 10.12C9.4803 13.7284 8.85863 24.3569 14.3664 33.8593C19.8741 43.3617 29.4257 48.1395 35.7005 44.5311Z" fill="url(#paint2_linear_8_1524)" />
      <mask id="mask1_8_1524" style="mask-type:alpha" maskUnits="userSpaceOnUse" x="15" y="10" width="26" height="32">
        <path d="M33.2423 19.1495L33.2437 19.1511C35.4773 21.8257 37.393 25.3915 38.5659 28.9155C39.7379 32.4368 40.1633 35.9009 39.4384 38.3875C38.8872 39.2653 37.8339 40.4279 36.1377 40.9958C34.4369 41.5653 32.0754 41.5417 28.9023 40.0092C24.7216 37.8534 21.3781 34.2683 19.0502 29.9536L19.0496 29.9522L19.0488 29.951C17.2465 26.8569 16.0693 22.9071 15.9492 19.282C15.8292 15.6666 16.7606 12.3972 19.141 10.6075C23.7082 10.8296 29.1859 14.055 33.2423 19.1495Z" fill="white" stroke="url(#paint3_linear_8_1524)" stroke-width="0.963636" />
      </mask>
      <g mask="url(#mask1_8_1524)">
        <g filter="url(#filter0_di_8_1524)">
          <path d="M16.3455 21.2998C17.1591 20.7968 17.9464 20.6209 18.721 20.6723C19.4976 20.7237 20.2675 21.0034 21.0449 21.4196C22.3158 22.1073 23.2998 23.0999 23.9653 24.4011C25.0424 26.5027 26.1527 28.6021 27.2562 30.6886L27.3312 30.8308C28.0313 32.1639 28.844 32.9655 29.8013 33.2211C30.7594 33.4768 31.8341 33.1779 33.0404 32.3756C35.043 31.0455 37.2867 30.3432 39.677 30.041C42.1813 29.7192 44.4004 30.5563 46.5959 31.6761C47.2212 32.0034 47.9123 32.2811 48.6107 32.3745H48.6118C48.8277 32.4005 49.1121 32.3349 49.3515 32.2297C49.4725 32.1765 49.5865 32.1114 49.678 32.0384C49.7681 31.9669 49.8447 31.8815 49.8781 31.7857C49.9574 31.5617 49.9511 31.2808 49.8963 31.0138C49.8411 30.7452 49.7345 30.4789 49.6001 30.2803L49.5994 30.279C49.2905 29.8382 48.7639 29.511 48.307 29.2272C48.2807 29.211 48.2546 29.1948 48.2289 29.1786L48.2273 29.1777C46.1546 27.9431 44.5486 26.2013 42.9278 24.4434C42.7733 24.2757 42.6186 24.108 42.4636 23.9405C40.2044 21.4998 38.4058 18.7385 36.8682 15.8062C35.0688 12.3636 34.0571 8.72188 34.3934 4.76331C34.462 4.76569 34.519 4.77105 34.5666 4.78095C34.6315 4.79438 34.6729 4.81498 34.7019 4.84234C34.7603 4.89773 34.7975 5.01069 34.789 5.27599C34.6918 8.32363 35.2199 11.2661 36.5184 14.0374C36.6696 14.3596 36.816 14.6858 36.9629 15.0128C37.4055 15.9986 37.8515 16.9914 38.4342 17.903C40.2941 20.7693 42.3786 23.4933 44.9028 25.822C45.7161 26.5723 46.6082 27.2451 47.4975 27.9156C47.8831 28.2063 48.268 28.4966 48.6458 28.7927L48.6464 28.793C48.7661 28.8857 48.8868 28.9743 49.0063 29.0621C49.2534 29.2434 49.4953 29.4211 49.7148 29.6238C50.0365 29.9208 50.2976 30.2615 50.4255 30.7199C50.6034 31.3725 50.4888 31.9418 50.1713 32.3326C49.8538 32.7229 49.3225 32.9488 48.637 32.8922C48.0262 32.8405 47.4228 32.6242 46.8362 32.3883C46.3769 32.2005 45.9279 31.9841 45.4775 31.7669C45.3404 31.7008 45.2031 31.6346 45.0652 31.5693C44.477 31.2898 43.8826 31.0248 43.267 30.8431C41.7761 30.4106 40.2183 30.4555 38.6881 30.722C36.4676 31.1141 34.4396 31.9919 32.5672 33.1948C31.5506 33.8413 30.5436 34.0099 29.6594 33.7711C28.7747 33.5324 27.999 32.882 27.4529 31.8633C26.9629 30.9602 26.4877 30.0429 26.0121 29.1246C25.2154 27.5873 24.4169 26.046 23.5435 24.5587C22.497 22.7847 20.9668 21.5302 18.7503 21.2737C17.852 21.1738 17.1542 21.3889 16.566 21.7872C15.9815 22.183 15.5081 22.758 15.0515 23.3709C14.4641 24.1564 13.8482 24.9222 13.1883 25.6413C12.4258 26.4551 11.3641 26.5528 10.2952 26.6512L10.2467 26.6557L10.2435 26.6559L10.2403 26.6564C10.0627 26.6859 9.9173 26.6905 9.76063 26.6955C9.71574 26.697 9.66991 26.6985 9.62212 26.7006C9.61888 26.6782 9.61564 26.6561 9.6124 26.6341C9.5885 26.4718 9.56596 26.3183 9.5449 26.1438C9.60113 26.1391 9.65648 26.1343 9.71122 26.1294C9.94281 26.1091 10.1626 26.09 10.3801 26.0821C11.9056 26.0475 13.0466 25.3722 13.8594 24.0816C14.5365 23.0095 15.2189 21.9829 16.3455 21.2998Z" fill="url(#paint4_linear_8_1524)" />
          <path d="M36.5184 14.0374C35.2199 11.2661 34.6918 8.32363 34.789 5.27599C34.7975 5.01069 34.7603 4.89772 34.7019 4.84234C34.6729 4.81498 34.6315 4.79438 34.5666 4.78095C34.519 4.77105 34.462 4.76569 34.3934 4.76331C34.0571 8.72188 35.0688 12.3636 36.8682 15.8062C38.4058 18.7385 40.2044 21.4998 42.4636 23.9405C42.6186 24.108 42.7733 24.2757 42.9278 24.4434C44.5486 26.2013 46.1546 27.9431 48.2273 29.1777L48.2289 29.1786C48.2546 29.1948 48.2807 29.211 48.307 29.2272C48.7639 29.511 49.2905 29.8382 49.5994 30.279L49.6001 30.2803C49.7345 30.4789 49.8411 30.7452 49.8963 31.0138C49.9511 31.2808 49.9574 31.5617 49.8781 31.7857C49.8447 31.8815 49.7681 31.9669 49.678 32.0384C49.5865 32.1114 49.4725 32.1765 49.3515 32.2297C49.1121 32.3349 48.8277 32.4005 48.6118 32.3745H48.6107C47.9123 32.2811 47.2212 32.0034 46.5959 31.6761C44.4004 30.5563 42.1815 29.719 39.6772 30.0408C37.2869 30.343 35.043 31.0456 33.0404 32.3756C31.8341 33.1779 30.7594 33.4768 29.8013 33.2211C28.844 32.9655 28.0315 32.164 27.3314 30.831M36.5184 14.0374C36.6696 14.3596 36.816 14.6858 36.9629 15.0128C37.4055 15.9986 37.8518 16.992 38.4346 17.9035C40.2945 20.7698 42.3786 23.4933 44.9028 25.822C45.7161 26.5723 46.6082 27.2451 47.4975 27.9156C47.8831 28.2063 48.268 28.4966 48.6458 28.7927L48.6464 28.793C48.7661 28.8857 48.8868 28.9743 49.0063 29.0621C49.2534 29.2434 49.4953 29.4211 49.7148 29.6238C50.0365 29.9208 50.2975 30.2615 50.4255 30.7199C50.6034 31.3725 50.4888 31.9418 50.1713 32.3326C49.8538 32.7229 49.3225 32.9488 48.637 32.8922C48.0262 32.8405 47.4228 32.6242 46.8362 32.3883C46.3769 32.2005 45.9279 31.9841 45.4775 31.7669C45.3404 31.7008 45.2031 31.6346 45.0652 31.5693C44.477 31.2898 43.8821 31.0246 43.2665 30.8429C41.7757 30.4104 40.218 30.4555 38.6879 30.722C36.4674 31.1141 34.4396 31.9919 32.5672 33.1948C31.5506 33.8413 30.5436 34.0099 29.6594 33.7711C28.7747 33.5324 27.9989 32.8816 27.4527 31.8629C26.9628 30.9598 26.4877 30.0429 26.0121 29.1246C25.2154 27.5873 24.4167 26.0458 23.5433 24.5585C22.4968 22.7845 20.9663 21.5302 18.7497 21.2737C17.8514 21.1738 17.1542 21.3889 16.566 21.7872C15.9815 22.183 15.5081 22.758 15.0515 23.3709C14.4641 24.1564 13.8482 24.9222 13.1883 25.6413C12.4258 26.4551 11.3641 26.5528 10.2952 26.6512L10.2467 26.6557L10.2435 26.6559L10.2403 26.6564C10.0627 26.6859 9.9173 26.6905 9.76063 26.6955C9.71574 26.697 9.66991 26.6985 9.62212 26.7006C9.61888 26.6782 9.61564 26.6561 9.6124 26.6341C9.5885 26.4718 9.56596 26.3183 9.5449 26.1438C9.60113 26.1391 9.65648 26.1342 9.71122 26.1294C9.94281 26.1091 10.1626 26.09 10.3801 26.0821C11.9056 26.0475 13.0466 25.3722 13.8594 24.0816C14.5365 23.0095 15.2195 21.9826 16.346 21.2994C17.1596 20.7964 17.9464 20.6209 18.721 20.6723C19.4976 20.7237 20.2675 21.0034 21.0449 21.4196C22.3158 22.1073 23.2998 23.0999 23.9653 24.4011C25.0424 26.5027 26.1527 28.6021 27.2562 30.6886L27.3314 30.831M36.5184 14.0374L36.6001 13.9995M27.3314 30.831L27.411 30.7891" stroke="url(#paint5_linear_8_1524)" stroke-width="0.963636" />
          <path d="M42.2237 27.6532L42.2011 27.6991C42.15 27.8024 42.1047 27.894 42.0849 27.9684L42.0688 28.028L42.0074 28.0345C41.8697 28.049 41.7267 28.0686 41.5816 28.0886C41.2561 28.1333 40.9186 28.1797 40.5992 28.1743C40.2556 28.1662 39.9093 28.1296 39.5682 28.0935C39.4878 28.0849 39.4076 28.0764 39.3279 28.0683C38.9073 28.0258 38.4944 27.9941 38.0888 28.0251C36.1815 28.1601 34.3802 28.7309 32.6223 29.5093L32.6216 29.5097C31.9837 29.786 31.3246 29.9878 30.6866 29.9558C30.0437 29.9234 29.43 29.6539 28.887 29.0054C28.1793 28.1612 27.5943 27.1207 27.2416 26.0722C26.4491 23.6823 25.3882 21.4503 23.8348 19.4505C22.4304 17.6472 20.8322 16.1266 18.699 15.2188C17.2232 14.591 15.2989 14.8705 14.084 15.9381C13.6632 16.3103 13.4058 16.7582 13.2075 17.2391C13.1082 17.4799 13.0241 17.728 12.9414 17.9791C12.929 18.0168 12.9166 18.0546 12.9042 18.0924C12.8343 18.3056 12.7638 18.5204 12.6852 18.7309L12.6848 18.732C12.2694 19.8045 11.6919 20.6972 10.5022 21.0848C10.287 21.1541 10.0738 21.2342 9.94416 21.366C9.88179 21.4293 9.84007 21.5036 9.82657 21.5953C9.8151 21.6733 9.82313 21.7691 9.86323 21.8878C11.4387 21.4974 12.6797 20.5392 13.1525 19.1483L13.1534 19.1457C13.325 18.635 13.4969 18.1234 13.6766 17.6251C14.0268 16.6708 14.6212 15.9928 15.6529 15.6587L15.6536 15.6584C16.917 15.2622 18.0957 15.4851 19.1797 16.1218C22.7586 18.1988 25.0202 21.3217 26.3553 25.1864C26.8039 26.5169 27.4458 27.8104 28.1617 29.0457C28.7454 30.0527 29.7924 30.5941 30.936 30.4048C31.8545 30.247 32.738 29.9315 33.6243 29.6152C33.9309 29.5058 34.2379 29.3963 34.5467 29.2931C36.0763 28.7906 37.6135 28.3587 39.2782 28.584C39.8822 28.6659 40.489 28.726 41.0899 28.7178C41.67 28.6999 42.0535 28.5312 42.2478 28.2636C42.4406 27.9978 42.467 27.6059 42.2661 27.0934C42.0408 26.5075 41.6778 25.969 41.3137 25.4295C41.2831 25.3843 41.2526 25.3391 41.2221 25.2936C40.7052 24.5409 40.1751 23.7914 39.6442 23.0411C38.7534 21.7817 37.8605 20.5195 37.0248 19.2341M37.0248 19.2341C37.0248 19.2339 37.025 19.2343 37.0248 19.2341L37.1003 19.1849L37.0248 19.2341ZM37.0248 19.2341L37.1003 19.1849L37.0248 19.2341ZM37.0248 19.2341C36.298 18.1359 35.7269 16.9319 35.1666 15.7479L37.0248 19.2341ZM37.1003 19.1849C36.3772 18.0929 35.8085 16.8943 35.2479 15.7092L37.1003 19.1849ZM35.1666 15.7479L35.2479 15.7092L35.1666 15.7479ZM35.1666 15.7479C35.1666 15.7477 35.1668 15.748 35.1666 15.7479L35.2479 15.7092L35.1666 15.7479ZM35.1666 15.7479C34.5349 14.44 33.9428 13.1072 33.4532 11.7325C32.6323 9.42741 32.1438 7.03366 32.1046 4.48545M32.1046 4.48545C32.1332 4.47058 32.1631 4.45627 32.1941 4.44257C32.1936 4.41019 32.1932 4.37777 32.193 4.34534C32.1625 4.3581 32.1325 4.37157 32.1033 4.38572C32.1037 4.41899 32.1041 4.45223 32.1046 4.48545ZM42.1957 27.6104C42.0416 27.3751 41.8906 27.1388 41.7396 26.9023C41.433 26.422 41.1263 25.9412 40.7928 25.4701M40.7928 25.4701C40.4776 25.0256 40.1532 24.5889 39.8298 24.1532L40.7928 25.4701ZM39.8298 24.1532C39.2393 23.3575 38.6512 22.5649 38.123 21.7339L39.8298 24.1532ZM31.7961 5.89354C31.7961 5.8933 31.796 5.89308 31.796 5.89284L31.7063 5.89957L31.7961 5.89354C31.7961 5.89377 31.7961 5.89332 31.7961 5.89354Z" fill="url(#paint6_linear_8_1524)" />
          <path d="M42.2237 27.6532L42.2011 27.6991C42.15 27.8024 42.1047 27.894 42.0849 27.9684L42.0688 28.028L42.0074 28.0345C41.8697 28.049 41.7267 28.0686 41.5816 28.0886C41.2561 28.1333 40.9186 28.1797 40.5992 28.1743C40.2556 28.1662 39.9093 28.1296 39.5682 28.0935C39.4878 28.0849 39.4076 28.0764 39.3279 28.0683C38.9073 28.0258 38.4944 27.9941 38.0888 28.0251C36.1815 28.1601 34.3802 28.7309 32.6223 29.5093L32.6216 29.5097C31.9837 29.786 31.3246 29.9878 30.6866 29.9558C30.0437 29.9234 29.43 29.6539 28.887 29.0054C28.1793 28.1612 27.5943 27.1207 27.2416 26.0722C26.4491 23.6823 25.3882 21.4503 23.8348 19.4505C22.4304 17.6472 20.8322 16.1266 18.699 15.2188C17.2232 14.591 15.2989 14.8705 14.084 15.9381C13.6632 16.3103 13.4058 16.7582 13.2075 17.2391C13.1082 17.4799 13.0241 17.728 12.9414 17.9791C12.929 18.0168 12.9166 18.0546 12.9042 18.0924C12.8343 18.3056 12.7638 18.5204 12.6852 18.7309L12.6848 18.732C12.2694 19.8045 11.6919 20.6972 10.5022 21.0848C10.287 21.1541 10.0738 21.2342 9.94416 21.366C9.88179 21.4293 9.84007 21.5036 9.82657 21.5953C9.8151 21.6733 9.82313 21.7691 9.86323 21.8878C11.4387 21.4974 12.6797 20.5392 13.1525 19.1483L13.1534 19.1457C13.325 18.635 13.4969 18.1234 13.6766 17.6251C14.0268 16.6708 14.6212 15.9928 15.6529 15.6587L15.6536 15.6584C16.917 15.2622 18.0957 15.4851 19.1797 16.1218C22.7586 18.1988 25.0202 21.3217 26.3553 25.1864C26.8039 26.5169 27.4458 27.8104 28.1617 29.0457C28.7454 30.0527 29.7924 30.5941 30.936 30.4048C31.8545 30.247 32.738 29.9315 33.6243 29.6152C33.9309 29.5058 34.2379 29.3963 34.5467 29.2931C36.0763 28.7906 37.6135 28.3587 39.2782 28.584M42.2237 27.6532L37.1003 19.1849M42.2237 27.6532L42.1957 27.6104M37.1003 19.1849L37.0248 19.2341M37.1003 19.1849C36.3772 18.0929 35.8085 16.8943 35.2479 15.7092M42.1957 27.6104C42.0416 27.3751 41.8906 27.1388 41.7396 26.9023C41.433 26.422 41.1263 25.9412 40.7928 25.4701M42.1957 27.6104L40.7928 25.4701M39.2782 28.584L39.266 28.6728M39.2782 28.584C39.8822 28.6659 40.489 28.726 41.0899 28.7178C41.67 28.6999 42.0535 28.5312 42.2478 28.2636C42.4406 27.9978 42.467 27.6059 42.2661 27.0934C42.0408 26.5075 41.6778 25.969 41.3137 25.4295C41.2831 25.3843 41.2526 25.3391 41.2221 25.2936C40.7052 24.5409 40.1751 23.7914 39.6442 23.0411C38.7534 21.7817 37.8605 20.5195 37.0248 19.2341M37.0248 19.2341C37.0248 19.2339 37.025 19.2343 37.0248 19.2341ZM37.0248 19.2341C36.298 18.1359 35.7269 16.9319 35.1666 15.7479M35.1666 15.7479L35.2479 15.7092M35.1666 15.7479C35.1666 15.7477 35.1668 15.748 35.1666 15.7479ZM35.1666 15.7479C34.5349 14.44 33.9428 13.1072 33.4532 11.7325M35.2479 15.7092L32.1046 4.48545M40.7928 25.4701C40.4776 25.0256 40.1532 24.5889 39.8298 24.1532M40.7928 25.4701L39.8298 24.1532M33.4532 11.7325L33.5382 11.7026M33.4532 11.7325C32.6323 9.42741 32.1438 7.03366 32.1046 4.48545M32.1046 4.48545C32.1332 4.47058 32.1631 4.45627 32.1941 4.44257C32.1936 4.41019 32.1932 4.37777 32.193 4.34534C32.1625 4.3581 32.1325 4.37157 32.1033 4.38572C32.1037 4.41899 32.1041 4.45223 32.1046 4.48545ZM39.8298 24.1532C39.2393 23.3575 38.6512 22.5649 38.123 21.7339L39.8298 24.1532ZM31.7961 5.89354C31.7961 5.8933 31.796 5.89308 31.796 5.89284L31.7063 5.89957L31.7961 5.89354ZM31.7961 5.89354C31.7961 5.89332 31.7961 5.89377 31.7961 5.89354Z" stroke="url(#paint7_linear_8_1524)" stroke-width="0.963636" />
          <path d="M29.2284 4.48901C29.1901 4.49088 29.1422 4.49257 29.0884 4.49339C28.9784 6.90788 29.3967 9.21078 30.2125 11.4444C30.6807 12.7474 31.3014 14.0352 32.0275 15.2262C32.5035 16.0024 33.0369 16.7463 33.5735 17.4946L33.6219 17.5619C34.174 18.3319 34.7277 19.1077 35.2193 19.9244C35.8324 20.9195 36.1592 22.0826 36.021 23.3316C35.9935 23.6127 35.901 23.827 35.7463 23.9817C35.5924 24.136 35.3857 24.2226 35.1462 24.2661L35.1455 24.2663C34.8608 24.3151 34.5773 24.2914 34.3124 24.2691C34.2747 24.2659 34.2373 24.2628 34.2003 24.26C33.073 24.1833 32.0843 24.4081 31.3043 25.2917C30.9739 25.6702 30.5431 25.8495 30.1279 25.8188C29.7117 25.7878 29.3229 25.5467 29.0782 25.1078C28.7215 24.4611 28.43 23.7387 28.2739 23.028C27.683 20.2738 26.6679 17.7514 24.8119 15.5374C22.6703 12.9862 20.064 11.4218 16.7741 10.9617C16.1542 10.8701 15.7652 10.8645 15.4908 10.9473C15.2603 11.0167 15.1024 11.1511 14.9528 11.3742C15.3543 11.4514 15.7645 11.516 16.1804 11.5814C16.4296 11.6206 16.6807 11.6602 16.9332 11.7029C17.649 11.8241 18.3694 11.9704 19.0617 12.2068C23.242 13.6208 25.6543 16.7559 27.1164 20.7453L27.1166 20.7463C27.3089 21.2888 27.4387 21.8545 27.5675 22.415C27.6203 22.6456 27.673 22.8754 27.7298 23.1023C27.926 23.8856 28.1723 24.6454 28.6425 25.3347C29.0625 25.9527 29.5753 26.2935 30.0966 26.3473C30.616 26.4007 31.167 26.172 31.6703 25.6031L31.7379 25.6622C32.3137 25.0079 32.99 24.7446 33.842 24.847L29.2284 4.48901ZM29.2284 4.48901C29.3312 5.05697 29.4281 5.62405 29.5249 6.18922C29.7851 7.71107 30.0434 9.21929 30.4047 10.6945M30.4047 10.6945C30.8637 12.5837 31.7899 14.274 33.0005 15.832C33.9158 17.0072 34.7701 18.2338 35.4952 19.5154C36.1176 20.6203 36.5884 21.8348 36.5241 23.1583L30.4047 10.6945Z" fill="url(#paint8_linear_8_1524)" />
          <path d="M29.2284 4.48901C29.1901 4.49088 29.1422 4.49257 29.0884 4.49339C28.9784 6.90788 29.3967 9.21078 30.2125 11.4444C30.6807 12.7474 31.3014 14.0352 32.0275 15.2262C32.5035 16.0024 33.0369 16.7463 33.5735 17.4946L33.6219 17.5619C34.174 18.3319 34.7277 19.1077 35.2193 19.9244C35.8324 20.9195 36.1592 22.0826 36.021 23.3316C35.9935 23.6127 35.901 23.827 35.7463 23.9817C35.5924 24.136 35.3857 24.2226 35.1462 24.2661L35.1455 24.2663C34.8608 24.3151 34.5773 24.2914 34.3124 24.2691C34.2747 24.2659 34.2373 24.2628 34.2003 24.26C33.073 24.1833 32.0843 24.4081 31.3043 25.2917C30.9739 25.6703 30.5431 25.8495 30.1279 25.8188C29.7117 25.7878 29.3229 25.5467 29.0782 25.1078C28.7215 24.4611 28.43 23.7387 28.2739 23.028C27.683 20.2738 26.6679 17.7514 24.8119 15.5374C22.6703 12.9862 20.064 11.4218 16.7741 10.9617C16.1542 10.8701 15.7652 10.8645 15.4908 10.9473C15.2603 11.0167 15.1024 11.1511 14.9528 11.3742C15.3543 11.4514 15.7645 11.516 16.1804 11.5814C16.4296 11.6206 16.6807 11.6602 16.9332 11.7029C17.649 11.8241 18.3694 11.9704 19.0617 12.2068C23.242 13.6208 25.6543 16.7559 27.1164 20.7453L27.1166 20.7463C27.3089 21.2888 27.4387 21.8545 27.5675 22.415C27.6203 22.6456 27.673 22.8754 27.7298 23.1023C27.926 23.8856 28.1723 24.6454 28.6425 25.3347C29.0625 25.9527 29.5753 26.2935 30.0966 26.3473C30.616 26.4007 31.167 26.172 31.6703 25.6031L31.7379 25.6622C32.3137 25.0079 32.99 24.7446 33.842 24.847L29.2284 4.48901ZM29.2284 4.48901C29.3312 5.05697 29.4281 5.62405 29.5249 6.18922C29.7851 7.71107 30.0434 9.21929 30.4047 10.6945M29.2284 4.48901L30.4047 10.6945M30.4047 10.6945C30.8637 12.5837 31.7899 14.274 33.0005 15.832C33.9158 17.0072 34.7701 18.2338 35.4952 19.5154C36.1176 20.6203 36.5884 21.8348 36.5241 23.1583L30.4047 10.6945Z" stroke="url(#paint9_linear_8_1524)" stroke-width="0.963636" />
          <path d="M44.244 34.6429L44.2432 34.6427C41.9396 33.3837 39.4787 32.9306 36.8853 33.3895C35.2496 33.6821 33.8321 34.4543 32.3957 35.2369C32.2562 35.3128 32.1166 35.3889 31.9765 35.4647C31.9763 35.4649 31.9766 35.4647 31.9765 35.4647L31.9332 35.3862C30.3905 36.2374 28.7378 36.3084 27.4252 34.9453L44.244 34.6429ZM44.244 34.6429C45.7373 35.4446 47.2639 36.1866 49.0814 35.9408C49.0894 35.9806 49.0969 36.0195 49.1034 36.0561C49.0253 36.0855 48.9478 36.119 48.8732 36.151C48.8243 36.172 48.7767 36.1925 48.7311 36.211C48.5897 36.2681 48.4574 36.3101 48.3234 36.315C46.8135 36.3697 45.5133 35.7446 44.1859 35.1067C43.9858 35.0106 43.7852 34.9142 43.5832 34.8197C40.2793 33.2844 37.0312 33.2665 33.7987 35.0893C32.7363 35.6822 31.6148 36.2731 30.4567 36.5489C28.6786 36.96 27.2705 36.0594 26.2048 34.6827C25.7513 34.0859 25.3338 33.4587 24.9182 32.8273C24.8809 32.7706 24.8435 32.7138 24.8063 32.6568C24.4286 32.0825 24.0498 31.5063 23.6463 30.952C22.6666 29.5732 21.5398 28.2861 19.7672 27.8246C18.7187 27.5447 17.7477 27.718 16.8233 28.213C16.4927 28.3872 16.1679 28.569 15.8443 28.7501C15.0639 29.1868 14.2916 29.619 13.4703 29.9273C13.0645 30.0735 12.6271 30.1324 12.1748 30.1674C12.0074 30.1802 11.8366 30.1898 11.6647 30.1994C11.3774 30.2156 11.0873 30.2319 10.8066 30.264C10.4925 30.2962 10.2688 30.2521 10.1266 30.1333C9.99904 30.0267 9.91797 29.844 9.91405 29.5445C10.1 29.5529 10.2838 29.5659 10.4678 29.5792C10.6166 29.5898 10.7655 29.6003 10.9159 29.6085C11.2782 29.6279 11.6387 29.6316 11.9873 29.5786L44.244 34.6429Z" fill="url(#paint10_linear_8_1524)" />
          <path d="M44.244 34.6429L44.2432 34.6427C41.9396 33.3837 39.4787 32.9306 36.8853 33.3895C35.2496 33.6821 33.8321 34.4543 32.3957 35.2369C32.2562 35.3128 32.1166 35.3889 31.9765 35.4647M44.244 34.6429L27.4252 34.9453C28.7378 36.3084 30.3905 36.2374 31.9332 35.3862L31.9765 35.4647M44.244 34.6429C45.7373 35.4446 47.2639 36.1866 49.0814 35.9408C49.0894 35.9806 49.0969 36.0195 49.1034 36.0561C49.0253 36.0855 48.9478 36.119 48.8732 36.151C48.8243 36.172 48.7767 36.1925 48.7311 36.211C48.5897 36.2681 48.4574 36.3101 48.3234 36.315C46.8135 36.3697 45.5133 35.7446 44.1859 35.1067C43.9858 35.0106 43.7852 34.9142 43.5832 34.8197C40.2793 33.2844 37.0312 33.2665 33.7987 35.0893C32.7363 35.6822 31.6148 36.2731 30.4567 36.5489C28.6786 36.96 27.2705 36.0594 26.2048 34.6827C25.7513 34.0859 25.3338 33.4587 24.9182 32.8273C24.8809 32.7706 24.8435 32.7138 24.8063 32.6568C24.4286 32.0825 24.0498 31.5063 23.6463 30.952C22.6666 29.5732 21.5398 28.2861 19.7672 27.8246C18.7187 27.5447 17.7477 27.718 16.8233 28.213C16.4927 28.3872 16.1679 28.569 15.8443 28.7501C15.0639 29.1868 14.2916 29.619 13.4703 29.9273C13.0645 30.0735 12.6271 30.1324 12.1748 30.1674C12.0074 30.1802 11.8366 30.1898 11.6647 30.1994C11.3774 30.2156 11.0873 30.2319 10.8066 30.264C10.4925 30.2962 10.2688 30.2521 10.1266 30.1333C9.99904 30.0267 9.91797 29.844 9.91405 29.5445C10.1 29.5529 10.2838 29.5659 10.4678 29.5792C10.6166 29.5898 10.7655 29.6003 10.9159 29.6085C11.2782 29.6279 11.6387 29.6316 11.9873 29.5786L44.244 34.6429ZM31.9765 35.4647C31.9763 35.4649 31.9766 35.4647 31.9765 35.4647Z" stroke="url(#paint11_linear_8_1524)" stroke-width="0.963636" />
          <path d="M29.0902 40.363L29.0896 40.3634C28.1891 40.8641 27.0539 40.59 26.5554 39.7003C26.1378 38.964 25.7379 38.2121 25.3375 37.4593C24.9375 36.7072 24.5367 35.9532 24.1177 35.2146C22.8035 32.8844 19.7354 31.8235 17.2346 32.7873C16.6932 32.9978 16.2503 33.3033 15.836 33.6296C15.691 33.7438 15.5508 33.8596 15.4113 33.9746C15.1485 34.1914 14.8883 34.4058 14.605 34.6038C14.1315 34.9297 13.6151 35.2254 13.0799 35.3588L13.0789 35.3592C12.5966 35.4848 12.3104 35.4839 12.0958 35.3518C11.8963 35.2289 11.7385 34.9818 11.5594 34.5478C11.6688 34.5632 11.7765 34.5813 11.8849 34.5995C11.9798 34.6153 12.0752 34.6313 12.1724 34.6456C12.4259 34.6832 12.6826 34.708 12.9404 34.6818C13.3325 34.6436 13.7894 34.4575 14.0705 34.1814C15.5162 32.7787 17.1237 31.7524 19.1801 31.7528C21.4488 31.7408 23.2344 32.7103 24.4381 34.6027C24.719 35.0417 24.9332 35.5257 25.1423 36.0224C25.1697 36.0876 25.1972 36.1531 25.2245 36.2187C25.4051 36.6505 25.5882 37.0884 25.8124 37.5024L25.8128 37.5034C26.2377 38.2672 26.7133 39.0263 27.3041 39.6675L27.305 39.6687C27.5771 39.9547 27.9034 40.0728 28.245 40.0691C28.5833 40.0656 28.9325 39.943 29.2585 39.7554C29.8017 39.4431 30.3425 39.128 30.883 38.8132C31.9585 38.1868 33.0332 37.5607 34.1225 36.9581C36.3965 35.704 38.8134 35.3806 41.3066 36.08C41.8828 36.2448 42.4375 36.4856 42.9922 36.7445C43.1346 36.8109 43.2774 36.8787 43.4203 36.9466C43.8322 37.1422 44.2473 37.3394 44.6697 37.5116L44.6705 37.5118C45.2213 37.7303 45.7917 37.9052 46.3593 38.0794C46.5192 38.1285 46.6791 38.1776 46.8381 38.2275L46.84 38.2281L46.8418 38.2286C46.9483 38.2569 47.0605 38.2649 47.1677 38.2674C47.2167 38.2684 47.2622 38.2684 47.3063 38.2686C47.3315 38.2686 47.3564 38.2686 47.3812 38.2688C47.3751 38.3287 47.3706 38.3907 47.3665 38.4521C46.9911 38.6782 46.6283 38.6902 46.2653 38.6103C45.9983 38.5515 45.7393 38.446 45.475 38.3384C45.3588 38.291 45.2419 38.2433 45.1225 38.199C44.558 37.9878 44.0067 37.7362 43.4524 37.4833C43.3324 37.4286 43.2123 37.3737 43.092 37.3193C42.417 37.0137 41.7339 36.7196 41.0229 36.5126C39.0647 35.9325 37.0656 36.1013 35.2332 37.0279C33.7196 37.7937 32.2386 38.6168 30.7541 39.442C30.2005 39.7498 29.6465 40.0578 29.0902 40.363Z" fill="url(#paint12_linear_8_1524)" />
          <path d="M29.2585 39.7554C28.9325 39.943 28.5833 40.0656 28.245 40.0691C27.9034 40.0728 27.5771 39.9547 27.305 39.6687L27.3041 39.6675C26.7133 39.0263 26.2377 38.2672 25.8128 37.5034L25.8124 37.5024C25.5882 37.0884 25.4051 36.6505 25.2245 36.2187C25.1972 36.1531 25.1697 36.0876 25.1423 36.0224C24.9332 35.5257 24.7192 35.0419 24.4383 34.6028C23.2346 32.7104 21.4493 31.7408 19.1807 31.7528C17.1242 31.7524 15.5162 32.7787 14.0705 34.1814C13.7894 34.4575 13.3325 34.6436 12.9404 34.6818C12.6826 34.708 12.4259 34.6832 12.1724 34.6456C12.0752 34.6313 11.9798 34.6153 11.8849 34.5995C11.7765 34.5813 11.6688 34.5632 11.5594 34.5478C11.7385 34.9818 11.8963 35.2289 12.0958 35.3518C12.3104 35.4839 12.5966 35.4848 13.0789 35.3592L13.0799 35.3588C13.6151 35.2254 14.1315 34.9297 14.605 34.6038C14.8883 34.4058 15.1485 34.1914 15.4113 33.9746C15.5508 33.8596 15.691 33.7438 15.836 33.6296C16.2503 33.3033 16.6932 32.9978 17.2346 32.7873C19.7354 31.8235 22.8035 32.8844 24.1177 35.2146C24.5367 35.9532 24.9373 36.7066 25.3373 37.4587C25.7377 38.2115 26.1373 38.9636 26.555 39.6999C27.0535 40.5896 28.1891 40.8641 29.0896 40.3634L29.0902 40.363C29.6465 40.0578 30.2005 39.7498 30.7541 39.442C32.2386 38.6168 33.7196 37.7937 35.2332 37.0279M29.2585 39.7554L29.2135 39.6778M29.2585 39.7554C29.8017 39.4431 30.3425 39.128 30.883 38.8132C31.9585 38.1868 33.0332 37.5607 34.1225 36.9581C36.3965 35.704 38.8134 35.3806 41.3066 36.08C41.8828 36.2448 42.4375 36.4856 42.9922 36.7445C43.1346 36.8109 43.2774 36.8787 43.4203 36.9466C43.8322 37.1422 44.2473 37.3394 44.6697 37.5116L44.6705 37.5118C45.2213 37.7303 45.7917 37.9052 46.3593 38.0794C46.5192 38.1285 46.6792 38.1776 46.8381 38.2275L46.84 38.2281L46.8418 38.2286C46.9483 38.2569 47.0605 38.2649 47.1677 38.2674C47.2167 38.2684 47.2622 38.2684 47.3063 38.2686C47.3315 38.2686 47.3564 38.2686 47.3812 38.2688C47.3751 38.3287 47.3706 38.3907 47.3665 38.4521C46.9911 38.6782 46.6283 38.6902 46.2653 38.6103C45.9983 38.5515 45.7393 38.446 45.475 38.3384C45.3588 38.291 45.2419 38.2433 45.1225 38.199C44.558 37.9878 44.0067 37.7362 43.4524 37.4833C43.3324 37.4286 43.2123 37.3737 43.092 37.3193C42.417 37.0137 41.7339 36.7196 41.0229 36.5126C39.0647 35.9325 37.0656 36.1013 35.2332 37.0279M35.2332 37.0279L35.2739 37.1079" stroke="url(#paint13_linear_8_1524)" stroke-width="0.963636" />
          <path d="M31.0738 16.9626C31.0696 16.4453 30.8873 15.8866 30.6201 15.4256C30.5861 15.367 30.5521 15.3082 30.5179 15.2496C29.382 13.2906 28.2406 11.3224 27.549 9.1282C27.2581 8.21513 27.0173 7.27863 26.7766 6.34283C26.6571 5.87841 26.5377 5.41417 26.4123 4.95306C26.4011 4.94982 26.3897 4.94634 26.3781 4.9425C26.3697 5.02091 26.3591 5.09927 26.3486 5.17581C26.3417 5.22544 26.335 5.27431 26.3292 5.3219C26.3088 5.48678 26.2973 5.64203 26.3157 5.78943C26.6306 8.12616 27.4109 10.3402 28.4454 12.4658C28.8221 13.254 29.2327 14.0129 29.6455 14.775C29.8808 15.21 30.117 15.646 30.3477 16.0895L30.3481 16.0902C30.4837 16.3567 30.5643 16.6491 30.5441 16.9252C30.5235 17.2047 30.4 17.4645 30.1356 17.6558L30.0828 17.5835C29.6139 17.9249 29.0481 17.8194 28.6222 17.3642L31.0738 16.9626ZM31.0738 16.9626C31.0799 17.5112 30.874 18.0591 30.265 18.3094C29.5397 18.6062 28.8249 18.4697 28.2687 18.0163C27.7553 17.5884 27.3158 17.0454 26.9708 16.481C25.3182 13.7549 23.1815 11.5359 20.3215 10.0741L20.3207 10.0737C19.8796 9.85322 19.4084 9.67326 18.9443 9.49608C18.7364 9.41676 18.5302 9.33792 18.3285 9.25632C18.199 9.20468 18.066 9.15486 17.9345 9.10559L17.9327 9.10491C17.8288 9.06597 17.7254 9.02729 17.6238 8.98773C17.7223 8.75297 17.8407 8.61783 17.9754 8.55378C18.1242 8.4831 18.3153 8.48837 18.5688 8.58327C21.2969 9.60597 23.6814 11.1255 25.5066 13.4098C26.162 14.2365 26.7703 15.0888 27.3801 15.943C27.6419 16.3096 27.9038 16.6766 28.1698 17.0422C28.2253 17.1203 28.2942 17.1878 28.3619 17.2492C28.3862 17.2713 28.4097 17.2922 28.4329 17.3125C28.4762 17.3508 28.5175 17.3873 28.5575 17.4267L31.0738 16.9626Z" fill="url(#paint14_linear_8_1524)" />
          <path d="M31.0738 16.9626C31.0696 16.4453 30.8873 15.8866 30.6201 15.4256C30.5861 15.367 30.5521 15.3082 30.5179 15.2496C29.382 13.2906 28.2406 11.3224 27.549 9.1282C27.2581 8.21513 27.0173 7.27863 26.7766 6.34283C26.6571 5.87841 26.5377 5.41417 26.4123 4.95306C26.4011 4.94982 26.3897 4.94634 26.3781 4.9425C26.3697 5.02091 26.3591 5.09927 26.3486 5.17581C26.3417 5.22544 26.335 5.27431 26.3292 5.3219C26.3088 5.48678 26.2973 5.64203 26.3157 5.78943C26.6306 8.12616 27.4109 10.3402 28.4454 12.4658C28.8221 13.254 29.2327 14.0129 29.6455 14.775C29.8808 15.21 30.117 15.646 30.3477 16.0895L30.3481 16.0902C30.4837 16.3567 30.5643 16.6491 30.5441 16.9252C30.5235 17.2047 30.4 17.4645 30.1356 17.6558L30.0828 17.5835C29.6139 17.9249 29.0481 17.8194 28.6222 17.3642L31.0738 16.9626ZM31.0738 16.9626C31.0799 17.5112 30.874 18.0591 30.265 18.3094C29.5397 18.6062 28.8249 18.4697 28.2687 18.0163C27.7553 17.5884 27.3158 17.0454 26.9708 16.481C25.3182 13.7549 23.1815 11.5359 20.3215 10.0741L20.3207 10.0737C19.8796 9.85322 19.4084 9.67326 18.9443 9.49608C18.7364 9.41676 18.5302 9.33792 18.3285 9.25632C18.199 9.20468 18.066 9.15486 17.9345 9.10559L17.9327 9.10491C17.8288 9.06597 17.7254 9.02729 17.6238 8.98773C17.7223 8.75297 17.8407 8.61783 17.9754 8.55378C18.1242 8.4831 18.3153 8.48837 18.5688 8.58327C21.2969 9.60597 23.6814 11.1255 25.5066 13.4098C26.162 14.2365 26.7703 15.0888 27.3801 15.943C27.6419 16.3096 27.9038 16.6766 28.1698 17.0422C28.2253 17.1203 28.2942 17.1878 28.3619 17.2492C28.3862 17.2713 28.4097 17.2922 28.4329 17.3125C28.4762 17.3508 28.5175 17.3873 28.5575 17.4267L31.0738 16.9626Z" stroke="url(#paint15_linear_8_1524)" stroke-width="0.963636" />
          <path d="M51.4505 25.3605C49.3672 24.6781 47.5921 23.4595 45.8837 22.1611C43.4504 20.3016 41.3582 18.098 39.8411 15.418C39.3133 14.4764 38.881 13.4806 38.4983 12.4773L38.4979 12.4765C37.7589 10.4817 37.4728 8.42401 37.6621 6.30999C37.6918 5.98578 37.6879 5.75544 37.6005 5.59127C37.5253 5.4499 37.3772 5.34035 37.0743 5.27747C36.6289 8.7235 37.3695 11.8905 38.8431 14.9234C39.7692 16.7992 41.0781 18.4399 42.5556 19.9346M51.4505 25.3605C51.5074 25.3793 51.5643 25.4387 51.6284 25.5377C51.6572 25.5821 51.6847 25.63 51.7132 25.6796L51.7188 25.6895C51.7254 25.701 51.7321 25.7124 51.7388 25.7239M51.7388 25.7239C51.7259 25.7261 51.7132 25.7284 51.7007 25.7307C51.688 25.7329 51.6755 25.7351 51.6629 25.7376C51.6174 25.7457 51.5736 25.7536 51.5302 25.7598C51.4183 25.7759 51.3285 25.7774 51.2585 25.7502L51.2565 25.7492C47.8778 24.5305 45.0574 22.4525 42.5556 19.9346M51.7388 25.7239C51.7704 25.7187 51.8025 25.7135 51.8345 25.7096L51.2258 25.8335C51.3556 25.8842 51.5182 25.8547 51.6799 25.8256C51.7164 25.8188 51.7526 25.8123 51.7885 25.8067C51.7715 25.7797 51.7549 25.7519 51.7388 25.7239ZM42.5556 19.9346C42.5554 19.9346 42.5556 19.9348 42.5556 19.9346V19.9346Z" fill="url(#paint16_linear_8_1524)" />
          <path d="M51.4505 25.3605C49.3672 24.6781 47.5921 23.4595 45.8837 22.1611C43.4504 20.3016 41.3582 18.098 39.8411 15.418C39.3133 14.4764 38.881 13.4806 38.4983 12.4773L38.4979 12.4765C37.7589 10.4817 37.4728 8.42401 37.6621 6.30999C37.6918 5.98578 37.6879 5.75544 37.6005 5.59127C37.5253 5.4499 37.3772 5.34035 37.0743 5.27747C36.6289 8.7235 37.3695 11.8905 38.8431 14.9234C39.7692 16.7992 41.0781 18.4399 42.5556 19.9346M51.4505 25.3605L51.4787 25.2752M51.4505 25.3605C51.5074 25.3793 51.5643 25.4387 51.6284 25.5377C51.6572 25.5821 51.6847 25.63 51.7132 25.6796L51.7188 25.6895C51.7254 25.701 51.7321 25.7124 51.7388 25.7239M42.5556 19.9346C45.0574 22.4525 47.8778 24.5305 51.2565 25.7492L51.2585 25.7502C51.3285 25.7774 51.4183 25.7759 51.5302 25.7598C51.5736 25.7536 51.6174 25.7457 51.6629 25.7376C51.6755 25.7351 51.688 25.7329 51.7007 25.7307C51.7132 25.7284 51.7259 25.7261 51.7388 25.7239M42.5556 19.9346L42.4913 19.9975M42.5556 19.9346C42.5556 19.9348 42.5554 19.9346 42.5556 19.9346ZM51.7388 25.7239C51.7704 25.7187 51.8025 25.7135 51.8345 25.7096L51.2258 25.8335C51.3556 25.8842 51.5182 25.8547 51.6799 25.8256C51.7164 25.8188 51.7526 25.8123 51.7885 25.8067C51.7715 25.7797 51.7549 25.7519 51.7388 25.7239Z" stroke="url(#paint17_linear_8_1524)" stroke-width="0.963636" />
          <path d="M40.4679 7.18391L40.4681 7.18547C40.6147 9.96795 41.3207 12.5921 42.6506 15.0738C44.089 17.743 45.9646 19.9486 48.4831 21.6051C48.93 21.903 49.4142 22.1414 49.9024 22.3643C50.0469 22.4302 50.1912 22.4948 50.3351 22.559C50.6798 22.7129 51.0218 22.8655 51.3534 23.0341L51.3545 23.0347C51.4428 23.0781 51.5232 23.1452 51.6061 23.2232C51.6289 23.2448 51.6525 23.2677 51.6766 23.291C51.7169 23.3302 51.7586 23.3708 51.801 23.4088C51.796 23.4152 51.7905 23.4219 51.7846 23.429C51.7776 23.4374 51.7685 23.4478 51.7584 23.4594C51.7528 23.4659 51.7468 23.4725 51.7406 23.4796C48.0962 22.655 44.9888 19.8954 42.8617 16.58C40.7436 13.2789 39.6085 9.44368 39.8771 6.45471C40.0955 6.46666 40.2276 6.52554 40.3113 6.6204C40.4083 6.73012 40.4581 6.9075 40.4679 7.18391Z" fill="url(#paint18_linear_8_1524)" stroke="url(#paint19_linear_8_1524)" stroke-width="0.963636" />
          <path d="M38.3705 38.9864C37.3607 39.0609 36.3361 39.2694 35.3975 39.628C32.3035 40.7908 30.4689 43.2081 29.2395 46.1146C29.1129 46.4178 28.9971 46.5453 28.8767 46.5888C28.7669 46.6286 28.6288 46.6087 28.4238 46.5325C29.367 43.4112 31.7014 40.6016 34.725 39.2774C37.7059 37.9721 41.3646 38.1064 45.0371 40.825C45.0278 40.8248 45.0184 40.8246 45.0091 40.8245C44.9497 40.8231 44.892 40.822 44.8382 40.8192C44.6756 40.8108 44.5381 40.7894 44.4352 40.7288C42.5828 39.5943 40.596 38.8323 38.3705 38.9864Z" fill="url(#paint20_linear_8_1524)" stroke="url(#paint21_linear_8_1524)" stroke-width="0.963636" />
          <path d="M15.2493 37.8192C15.3661 37.7425 15.4615 37.6286 15.5565 37.5148C15.6423 37.4122 15.728 37.3096 15.8293 37.2343L15.2493 37.8192ZM15.2493 37.8192C14.9485 38.0191 14.627 38.2007 14.2924 38.3898C14.1784 38.4542 14.0629 38.5195 13.9462 38.5865L15.2493 37.8192ZM17.6406 35.9664C17.2905 36.0743 16.9705 36.2682 16.6669 36.486C16.5148 36.5949 16.3655 36.7108 16.2179 36.8256L16.2 36.8396C16.0582 36.9499 15.918 37.0591 15.7764 37.1619L15.7755 37.1625C15.6653 37.2444 15.5732 37.3547 15.4893 37.4552C15.4839 37.4615 15.4784 37.4681 15.4732 37.4743C15.3815 37.5837 15.298 37.68 15.1998 37.7444C14.902 37.9424 14.5841 38.1218 14.2503 38.3105C14.1611 38.3609 14.0707 38.4119 13.9792 38.4642C13.882 38.2965 13.7969 38.1495 13.7133 38.0055L13.7004 37.9831C13.7068 37.9729 13.7127 37.9638 13.7198 37.9537C13.7335 37.9344 13.7407 37.9288 13.7439 37.9269L13.7479 37.9247L13.7517 37.9219C13.9407 37.786 14.1359 37.6584 14.3333 37.5294C14.4611 37.4458 14.5898 37.3617 14.7183 37.2745C15.0416 37.0547 15.3557 36.8194 15.6188 36.5392C17.0489 34.9978 19.1282 34.9916 20.6443 35.7429C22.4689 36.6557 23.4774 38.2359 24.2761 40.0474C25.0741 41.8828 25.4152 43.808 25.438 45.7959C25.3784 45.8235 25.324 45.853 25.2749 45.8847C25.245 45.8328 25.2125 45.7805 25.1811 45.7295C25.1523 45.6831 25.1245 45.6381 25.0999 45.5957C25.0281 45.4719 24.9769 45.3597 24.9674 45.2527C24.8301 42.8639 24.3202 40.572 22.9715 38.5589C21.7341 36.7054 19.7512 35.3245 17.6406 35.9664Z" fill="url(#paint22_linear_8_1524)" />
          <path d="M15.2493 37.8192C15.3661 37.7425 15.4615 37.6286 15.5565 37.5148C15.6423 37.4122 15.728 37.3096 15.8293 37.2343L15.2493 37.8192ZM15.2493 37.8192C14.9485 38.0191 14.627 38.2007 14.2924 38.3898C14.1784 38.4542 14.0629 38.5195 13.9462 38.5865L15.2493 37.8192ZM17.6406 35.9664C17.2905 36.0743 16.9705 36.2682 16.6669 36.486C16.5148 36.5949 16.3655 36.7108 16.2179 36.8256L16.2 36.8396C16.0582 36.9499 15.918 37.0591 15.7764 37.1619L15.7755 37.1625C15.6653 37.2444 15.5732 37.3547 15.4893 37.4552C15.4839 37.4615 15.4784 37.4681 15.4732 37.4743C15.3815 37.5837 15.298 37.68 15.1998 37.7444C14.902 37.9424 14.5841 38.1218 14.2503 38.3105C14.1611 38.3609 14.0707 38.4119 13.9792 38.4642C13.882 38.2965 13.7969 38.1495 13.7133 38.0055L13.7004 37.9831C13.7068 37.9729 13.7127 37.9638 13.7198 37.9537C13.7335 37.9344 13.7407 37.9288 13.7439 37.9269L13.7479 37.9247L13.7517 37.9219C13.9407 37.786 14.1359 37.6584 14.3333 37.5294C14.4611 37.4458 14.5898 37.3617 14.7183 37.2745C15.0416 37.0547 15.3557 36.8194 15.6188 36.5392C17.0489 34.9978 19.1282 34.9916 20.6443 35.7429C22.4689 36.6557 23.4774 38.2359 24.2761 40.0474C25.0741 41.8828 25.4152 43.808 25.438 45.7959C25.3784 45.8235 25.324 45.853 25.2749 45.8847C25.245 45.8328 25.2125 45.7805 25.1811 45.7295C25.1523 45.6831 25.1245 45.6381 25.0999 45.5957C25.0281 45.4719 24.9769 45.3597 24.9674 45.2527C24.8301 42.8639 24.3202 40.572 22.9715 38.5589C21.7341 36.7054 19.7512 35.3245 17.6406 35.9664Z" stroke="url(#paint23_linear_8_1524)" stroke-width="0.963636" />
          <path d="M39.0444 41.4288C40.0531 41.5838 40.7717 42.1988 41.5111 42.8316C41.6333 42.9361 41.7561 43.0413 41.8809 43.1448C41.8809 43.1448 41.8854 43.1509 41.8912 43.1693C41.8979 43.1902 41.9028 43.2171 41.9048 43.2454C41.9068 43.2728 41.906 43.2974 41.9035 43.3147C41.8686 43.3314 41.8254 43.3458 41.7834 43.353C41.7279 43.3625 41.6941 43.3565 41.6819 43.3498L41.6806 43.3491C41.3464 43.1704 41.0299 42.9624 40.7252 42.7456C39.3581 41.6936 37.8578 41.7527 36.3427 42.2796C34.2061 43.0189 32.5758 44.3557 31.4819 46.3628L31.4815 46.3633C31.4567 46.4099 31.4131 46.4527 31.3494 46.4932C31.2858 46.534 31.2069 46.5693 31.1178 46.603C31.0498 46.6289 30.979 46.6525 30.9063 46.6767C30.8835 46.6843 30.8603 46.6922 30.8372 46.7C30.7768 46.7204 30.7159 46.7416 30.6572 46.7647C30.6537 46.756 30.6498 46.7474 30.646 46.7391C30.6328 46.7108 30.6173 46.6821 30.6017 46.6546C31.7059 44.5064 33.2613 42.8459 35.606 41.9736C36.7453 41.5512 37.8403 41.2411 39.0444 41.4288Z" fill="url(#paint24_linear_8_1524)" stroke="url(#paint25_linear_8_1524)" stroke-width="0.963636" />
          <path d="M21.4734 42.2054L21.5398 42.1675C21.6258 42.402 21.7135 42.6361 21.8011 42.8706C21.9851 43.3622 22.1692 43.8543 22.3392 44.3486C22.3557 44.3972 22.3498 44.4624 22.327 44.5523C22.3181 44.5883 22.3071 44.6247 22.2956 44.6632C22.2932 44.6716 22.2907 44.6802 22.288 44.689C22.2865 44.6944 22.2848 44.6998 22.2832 44.7053C22.2762 44.7005 22.2691 44.6956 22.262 44.691C22.2581 44.6882 22.254 44.6854 22.2501 44.6828C22.2109 44.6562 22.1733 44.6308 22.1374 44.6047C22.0582 44.5466 21.9968 44.4904 21.9594 44.4262C21.7666 44.0828 21.5883 43.7283 21.409 43.3712C21.3272 43.2083 21.2449 43.0449 21.161 42.8817C20.8941 42.3629 20.611 41.8506 20.2678 41.3846C19.8688 40.8413 19.3585 40.578 18.8206 40.5769C18.2857 40.5756 17.7389 40.8336 17.2615 41.301C17.2139 41.3468 17.1341 41.3728 17.0225 41.3905C16.9802 41.3974 16.9368 41.4025 16.8918 41.4079C16.8789 41.4093 16.866 41.411 16.8527 41.4125C16.8308 41.4153 16.8086 41.418 16.7864 41.4212C16.7849 41.3909 16.7829 41.3604 16.7806 41.3304C16.7797 41.3169 16.7785 41.3032 16.7777 41.2897C16.7735 41.2359 16.7696 41.1838 16.7677 41.1328C16.7632 40.9997 16.7763 40.9078 16.8165 40.8555L16.8172 40.8546C17.3241 40.1748 18.0789 39.8952 18.8388 39.9663C19.5999 40.0376 20.3666 40.4617 20.8868 41.1925C21.0207 41.3833 21.1293 41.5839 21.2428 41.7933C21.3021 41.9025 21.3625 42.0141 21.4286 42.128L21.4734 42.2054Z" fill="url(#paint26_linear_8_1524)" stroke="url(#paint27_linear_8_1524)" stroke-width="0.963636" />
        </g>
      </g>
      <path fill-rule="evenodd" clip-rule="evenodd" d="M18.5273 8.2583C12.0171 11.9265 11.4969 22.8116 17.1351 32.3417C22.7654 41.8584 32.5943 46.6106 39.1052 42.9705L34.642 45.3554C28.1317 49.0236 18.4699 44.0854 12.8319 34.5556C7.19367 25.0254 7.90073 14.3263 14.4112 10.6582L18.5273 8.2583Z" fill="url(#paint28_linear_8_1524)" />
      <path fill-rule="evenodd" clip-rule="evenodd" d="M39.8152 38.8956C42.4931 34.8059 41.8274 27.3884 37.7793 20.5329C32.8447 12.176 24.7531 7.81849 19.7059 10.8C19.3564 11.0065 19.0305 11.2428 18.7286 11.5066C23.8438 10.4451 31.011 15.2332 35.7537 23.2654C39.0036 28.769 40.3703 34.5345 39.8152 38.8956Z" fill="#026670" />
      <path fill-rule="evenodd" clip-rule="evenodd" d="M39.1137 42.9394C45.5345 39.162 46.1298 28.3247 40.443 18.734C34.7563 9.14299 24.9409 4.43026 18.5201 8.20765C12.0992 11.985 11.504 22.8222 17.1908 32.4131C22.8776 42.0039 32.6927 46.7166 39.1137 42.9394ZM37.4033 40.372C42.3225 37.4781 42.3959 28.5305 37.5673 20.3869C32.7387 12.2433 24.8367 7.98773 19.9174 10.8817C14.9982 13.7756 14.9248 22.7232 19.7534 30.8669C24.582 39.0103 32.484 43.266 37.4033 40.372Z" fill="url(#paint29_linear_8_1524)" />
    </g>
  </g>
  <defs>
    <filter id="filter0_di_8_1524" x="7.94664" y="3.0928" width="45.6986" height="45.8851" filterUnits="userSpaceOnUse" color-interpolation-filters="sRGB">
      <feFlood flood-opacity="0" result="BackgroundImageFix" />
      <feColorMatrix in="SourceAlpha" type="matrix" values="0 0 0 0 0 0 0 0 0 0 0 0 0 0 0 0 0 0 127 0" result="hardAlpha" />
      <feOffset dy="0.53" />
      <feGaussianBlur stdDeviation="0.53" />
      <feComposite in2="hardAlpha" operator="out" />
      <feColorMatrix type="matrix" values="0 0 0 0 0.666562 0 0 0 0 0.9875 0 0 0 0 0.9875 0 0 0 1 0" />
      <feBlend mode="normal" in2="BackgroundImageFix" result="effect1_dropShadow_8_1524" />
      <feBlend mode="normal" in="SourceGraphic" in2="effect1_dropShadow_8_1524" result="shape" />
      <feColorMatrix in="SourceAlpha" type="matrix" values="0 0 0 0 0 0 0 0 0 0 0 0 0 0 0 0 0 0 127 0" result="hardAlpha" />
      <feOffset dx="0.53" dy="0.53" />
      <feGaussianBlur stdDeviation="0.53" />
      <feComposite in2="hardAlpha" operator="arithmetic" k2="-1" k3="1" />
      <feColorMatrix type="matrix" values="0 0 0 0 0.0447222 0 0 0 0 0.410604 0 0 0 0 0.466667 0 0 0 1 0" />
      <feBlend mode="normal" in2="shape" result="effect2_innerShadow_8_1524" />
    </filter>
    <linearGradient id="paint0_linear_8_1524" x1="31.3609" y1="12.3871" x2="29.2517" y2="42.3985" gradientUnits="userSpaceOnUse">
      <stop stop-color="#9FEDD7" />
      <stop offset="0.934923" stop-color="#0D95B2" />
    </linearGradient>
    <linearGradient id="paint1_linear_8_1524" x1="19.5497" y1="46.6543" x2="26.0514" y2="17.6312" gradientUnits="userSpaceOnUse">
      <stop stop-color="#9FEDD7" />
      <stop offset="1" stop-color="#0D95B2" />
    </linearGradient>
    <linearGradient id="paint2_linear_8_1524" x1="15.755" y1="10.1199" x2="26.0975" y2="47.2087" gradientUnits="userSpaceOnUse">
      <stop stop-color="#9FEDD7" />
      <stop offset="1" stop-color="#0D95B2" />
    </linearGradient>
    <linearGradient id="paint3_linear_8_1524" x1="19.0359" y1="10.1292" x2="29.001" y2="44.0745" gradientUnits="userSpaceOnUse">
      <stop stop-color="#0D95B2" />
      <stop offset="1" stop-color="#9FEDD7" />
    </linearGradient>
    <linearGradient id="paint4_linear_8_1524" x1="49.3944" y1="44.4878" x2="19.6181" y2="6.55897" gradientUnits="userSpaceOnUse">
      <stop stop-color="#9FEDD7" />
      <stop offset="1" stop-color="#0D95B2" />
    </linearGradient>
    <linearGradient id="paint5_linear_8_1524" x1="14.9015" y1="4.30515" x2="20.4321" y2="38.3459" gradientUnits="userSpaceOnUse">
      <stop stop-color="#0D95B2" />
      <stop offset="1" stop-color="#9FEDD7" />
    </linearGradient>
    <linearGradient id="paint6_linear_8_1524" x1="43.4292" y1="37.0658" x2="19.5096" y2="6.25015" gradientUnits="userSpaceOnUse">
      <stop stop-color="#9FEDD7" />
      <stop offset="1" stop-color="#0D95B2" />
    </linearGradient>
    <linearGradient id="paint7_linear_8_1524" x1="14.0759" y1="4.01727" x2="19.5911" y2="34.2461" gradientUnits="userSpaceOnUse">
      <stop stop-color="#0D95B2" />
      <stop offset="1" stop-color="#9FEDD7" />
    </linearGradient>
    <linearGradient id="paint8_linear_8_1524" x1="39.8904" y1="30.2332" x2="18.0128" y2="5.64561" gradientUnits="userSpaceOnUse">
      <stop stop-color="#9FEDD7" />
      <stop offset="1" stop-color="#0D95B2" />
    </linearGradient>
    <linearGradient id="paint9_linear_8_1524" x1="17.6992" y1="4.11626" x2="23.4625" y2="29.0897" gradientUnits="userSpaceOnUse">
      <stop stop-color="#0D95B2" />
      <stop offset="1" stop-color="#9FEDD7" />
    </linearGradient>
    <linearGradient id="paint10_linear_8_1524" x1="46.8719" y1="46.5649" x2="23.8344" y2="15.9593" gradientUnits="userSpaceOnUse">
      <stop stop-color="#9FEDD7" />
      <stop offset="1" stop-color="#0D95B2" />
    </linearGradient>
    <linearGradient id="paint11_linear_8_1524" x1="15.0454" y1="26.7914" x2="15.7105" y2="38.4719" gradientUnits="userSpaceOnUse">
      <stop stop-color="#0D95B2" />
      <stop offset="1" stop-color="#9FEDD7" />
    </linearGradient>
    <linearGradient id="paint12_linear_8_1524" x1="44.9285" y1="47.6614" x2="25.7568" y2="21.4842" gradientUnits="userSpaceOnUse">
      <stop stop-color="#9FEDD7" />
      <stop offset="1" stop-color="#0D95B2" />
    </linearGradient>
    <linearGradient id="paint13_linear_8_1524" x1="16.2007" y1="31.5498" x2="16.8156" y2="42.2954" gradientUnits="userSpaceOnUse">
      <stop stop-color="#0D95B2" />
      <stop offset="1" stop-color="#9FEDD7" />
    </linearGradient>
    <linearGradient id="paint14_linear_8_1524" x1="33.5984" y1="21.8077" x2="18.7481" y2="5.71238" gradientUnits="userSpaceOnUse">
      <stop stop-color="#9FEDD7" />
      <stop offset="1" stop-color="#0D95B2" />
    </linearGradient>
    <linearGradient id="paint15_linear_8_1524" x1="19.3182" y1="4.63546" x2="22.898" y2="20.2123" gradientUnits="userSpaceOnUse">
      <stop stop-color="#0D95B2" />
      <stop offset="1" stop-color="#9FEDD7" />
    </linearGradient>
    <linearGradient id="paint16_linear_8_1524" x1="54.6061" y1="33.3" x2="25.8445" y2="18.4408" gradientUnits="userSpaceOnUse">
      <stop stop-color="#9FEDD7" />
      <stop offset="1" stop-color="#0D95B2" />
    </linearGradient>
    <linearGradient id="paint17_linear_8_1524" x1="38.8488" y1="4.91301" x2="45.9053" y2="27.3736" gradientUnits="userSpaceOnUse">
      <stop stop-color="#0D95B2" />
      <stop offset="1" stop-color="#9FEDD7" />
    </linearGradient>
    <linearGradient id="paint18_linear_8_1524" x1="54.2894" y1="29.6237" x2="30.6913" y2="18.5557" gradientUnits="userSpaceOnUse">
      <stop stop-color="#9FEDD7" />
      <stop offset="1" stop-color="#0D95B2" />
    </linearGradient>
    <linearGradient id="paint19_linear_8_1524" x1="41.3617" y1="6.14709" x2="47.3672" y2="24.7431" gradientUnits="userSpaceOnUse">
      <stop stop-color="#0D95B2" />
      <stop offset="1" stop-color="#9FEDD7" />
    </linearGradient>
    <linearGradient id="paint20_linear_8_1524" x1="42.7901" y1="44.8512" x2="37.0743" y2="36.1465" gradientUnits="userSpaceOnUse">
      <stop stop-color="#9FEDD7" />
      <stop offset="1" stop-color="#0D95B2" />
    </linearGradient>
    <linearGradient id="paint21_linear_8_1524" x1="30.5696" y1="38.2812" x2="31.6621" y2="48.0752" gradientUnits="userSpaceOnUse">
      <stop stop-color="#0D95B2" />
      <stop offset="1" stop-color="#9FEDD7" />
    </linearGradient>
    <linearGradient id="paint22_linear_8_1524" x1="27.6224" y1="49.4144" x2="14.129" y2="35.1402" gradientUnits="userSpaceOnUse">
      <stop stop-color="#9FEDD7" />
      <stop offset="1" stop-color="#0D95B2" />
    </linearGradient>
    <linearGradient id="paint23_linear_8_1524" x1="15.1774" y1="35.0288" x2="17.7536" y2="47.439" gradientUnits="userSpaceOnUse">
      <stop stop-color="#0D95B2" />
      <stop offset="1" stop-color="#9FEDD7" />
    </linearGradient>
    <linearGradient id="paint24_linear_8_1524" x1="40.3915" y1="45.939" x2="36.5588" y2="40.1046" gradientUnits="userSpaceOnUse">
      <stop stop-color="#9FEDD7" />
      <stop offset="1" stop-color="#0D95B2" />
    </linearGradient>
    <linearGradient id="paint25_linear_8_1524" x1="32.0238" y1="41.2128" x2="32.7586" y2="47.8164" gradientUnits="userSpaceOnUse">
      <stop stop-color="#0D95B2" />
      <stop offset="1" stop-color="#9FEDD7" />
    </linearGradient>
    <linearGradient id="paint26_linear_8_1524" x1="23.196" y1="46.6899" x2="16.5602" y2="39.7713" gradientUnits="userSpaceOnUse">
      <stop stop-color="#9FEDD7" />
      <stop offset="1" stop-color="#0D95B2" />
    </linearGradient>
    <linearGradient id="paint27_linear_8_1524" x1="17.4408" y1="39.8035" x2="18.5726" y2="45.5297" gradientUnits="userSpaceOnUse">
      <stop stop-color="#0D95B2" />
      <stop offset="1" stop-color="#9FEDD7" />
    </linearGradient>
    <linearGradient id="paint28_linear_8_1524" x1="10.4818" y1="12.8721" x2="16.334" y2="49.698" gradientUnits="userSpaceOnUse">
      <stop stop-color="#9FEDD7" />
      <stop offset="1" stop-color="#0D95B2" />
    </linearGradient>
    <linearGradient id="paint29_linear_8_1524" x1="47.726" y1="44.7118" x2="21.7044" y2="8.6875" gradientUnits="userSpaceOnUse">
      <stop offset="0.146908" stop-color="#9FEDD7" />
      <stop offset="1" stop-color="#0D95B2" />
    </linearGradient>
    <clipPath id="clip0_8_1524">
      <rect width="54" height="54" fill="white" />
    </clipPath>
  </defs>
</svg>