<svg width="54" height="54" viewBox="0 0 54 54" fill="none" xmlns="http://www.w3.org/2000/svg">
  <g clip-path="url(#clip0_8_1463)">
    <path d="M54 0H0V54H54V0Z" fill="#F5F8FA" />
    <mask id="mask0_8_1463" style="mask-type:luminance" maskUnits="userSpaceOnUse" x="5" y="14" width="44" height="27">
      <path d="M48.6 14.175H5.40002V40.5H48.6V14.175Z" fill="white" />
    </mask>
    <g mask="url(#mask0_8_1463)">
      <path d="M47.8627 38.9363C47.8627 38.9363 45.4886 37.6162 41.7366 37.6162C37.5182 37.6162 17.6983 36.8922 17.6983 36.8922C12.4836 36.8922 5.89111 34.3158 5.89111 29.3331L6.1667 23.2859C6.1667 18.3033 9.74912 15.3648 14.9638 15.3648H39.1292C44.3439 15.3648 47.7779 18.7504 47.5023 23.7331C47.036 32.5058 47.8627 38.9363 47.8627 38.9363Z" fill="#FFD600" />
      <path d="M11.0831 18.8564L11.0195 25.5638H12.9697L12.9274 20.3257H14.7927L14.7715 25.5638H16.6581L16.637 18.8564H11.0831Z" fill="black" />
      <path d="M25.7948 20.6022L24.5653 23.1999H24.5016L24.5229 20.5809L22.7846 20.6235V20.7299C22.7846 20.7512 22.8058 25.457 22.8058 25.457V25.5635H24.5653L25.8159 22.9019H25.9643L25.9431 25.5848L27.5965 25.5635V20.6022H25.7948Z" fill="black" />
      <path d="M37.8356 22.0718L39.0014 21.9866L38.8955 25.5852H39.0014C39.5738 25.5639 40.5913 25.5639 40.6973 25.5639C40.6973 25.5639 40.6973 25.5 40.6549 21.9866L41.9479 22.008V20.5387L37.8356 20.6026V22.0718Z" fill="black" />
      <path d="M14.5387 32.165C14.5175 32.165 13.2881 32.8038 12.6945 31.8882C12.5673 31.6753 12.5037 31.2069 12.6309 30.8235C12.6946 30.6107 12.8641 30.3551 13.2245 30.2273C13.7544 30.057 14.3268 30.419 14.3268 30.419L14.4328 30.4829L15.0051 29.0988L14.9203 29.0562C14.8779 29.035 13.9452 28.5452 12.8005 28.7581C11.6346 28.9711 11.1047 30.0357 10.9775 30.9726C10.8715 31.8882 11.1683 33.1658 12.3554 33.7194C12.8217 33.9323 13.2457 34.0176 13.606 34.0176C14.5599 34.0176 15.1746 33.4851 15.1746 33.4851L15.2383 33.4214L14.6023 32.1438L14.5387 32.165Z" fill="black" />
      <path d="M35.0164 26.969L35.1647 31.3553L36.4154 31.2702L36.9878 27.1394L35.0164 26.969Z" fill="black" />
      <path d="M23.7172 32.165C23.6959 32.165 22.4664 32.8038 21.8729 31.8882C21.7457 31.6753 21.6822 31.2069 21.8093 30.8235C21.8729 30.6107 22.0425 30.3551 22.4029 30.2273C22.9328 30.057 23.5051 30.419 23.5051 30.419L23.6111 30.4829L24.1835 29.0988L24.0987 29.0562C24.0563 29.035 23.1236 28.5452 21.9789 28.7581C20.813 28.9711 20.2831 30.0357 20.1559 30.9726C20.0499 31.8882 20.3466 33.1658 21.5337 33.7194C22.0001 33.9323 22.424 34.0176 22.7844 34.0176C23.7383 34.0176 24.3531 33.4851 24.3531 33.4851L24.4166 33.4214L23.7807 32.1438L23.7172 32.165Z" fill="black" />
      <path d="M22.2764 22.0501C21.9372 20.9429 21.174 20.5809 20.2414 20.6022C19.6266 20.6022 17.5705 20.6874 17.4857 20.7086H17.3796L17.316 27.4586H19.3298L19.2238 25.5635C19.9022 25.7339 21.0892 25.7765 21.6616 25.1589C22.5307 24.2008 22.5731 22.987 22.2764 22.0501ZM20.4109 24.2008C20.0081 24.4776 19.1814 24.3073 19.1814 24.3073L19.1179 22.0501C19.1179 22.0501 19.457 21.9863 19.8386 21.9863C20.9621 21.9863 21.068 23.7536 20.4109 24.2008Z" fill="black" />
      <path d="M32.5357 23.2855C32.3873 23.1791 32.239 23.094 32.133 23.0514C32.3025 22.9449 32.9173 22.3699 32.5357 21.3692C32.3662 20.9433 31.8998 20.7304 31.3062 20.6878C30.734 20.6453 28.5718 20.6027 28.487 20.6027H28.381L28.4234 25.6704C28.4234 25.6704 29.5045 25.6918 30.3525 25.6918C30.734 25.6918 32.5146 25.7343 32.8113 24.6058C32.9385 23.9457 32.8325 23.4985 32.5357 23.2855ZM30.8823 24.5845C30.6916 24.6483 29.9708 24.627 29.9708 24.627V23.5837C29.9708 23.5837 30.5855 23.5837 30.6916 23.5837C30.9247 23.5837 31.1155 23.6689 31.1791 23.9457C31.2003 24.1586 31.1579 24.4993 30.8823 24.5845ZM30.8823 22.6681C30.6916 22.732 29.9708 22.7107 29.9708 22.7107V21.6673C29.9708 21.6673 30.5855 21.6673 30.6916 21.6673C30.9247 21.6673 31.1155 21.7525 31.1791 22.0293C31.2003 22.2422 31.1579 22.5616 30.8823 22.6681Z" fill="black" />
      <path d="M19.3077 29.3536C18.693 28.6296 17.7391 28.587 17.3575 28.6083C16.446 28.6509 15.9161 29.162 15.6405 29.5878C15.3014 30.0989 15.1105 30.7589 15.1318 31.419C15.1953 33.1225 16.2764 33.8251 17.2516 33.9103C17.3151 33.9103 17.3787 33.9103 17.4423 33.9103C18.4174 33.9103 19.4985 33.3354 19.7105 32.1856C19.9648 30.908 19.8376 29.9711 19.3077 29.3536ZM18.0358 32.1217C17.8026 32.4198 17.294 32.3985 17.0607 32.2281C16.8276 32.0578 16.7216 31.9088 16.7216 30.7803C16.7216 29.6729 18.1842 29.7369 18.2266 30.4821C18.2479 30.8015 18.3114 31.7597 18.0358 32.1217Z" fill="black" />
      <path d="M34.317 32.3992L33.7658 32.3779V28.8219L30.2894 28.758L30.2681 28.8432C29.6322 31.2919 29.4415 32.1011 29.3779 32.3779H28.8055L28.8267 35.0395L30.0351 35.0183L30.2257 33.7619H32.8966L33.1299 35.0395L34.3381 35.0608L34.317 32.3992ZM30.7558 32.4843L31.4553 29.9505L32.1548 29.9292L32.176 32.463L30.7558 32.4843Z" fill="black" />
      <path d="M36.5414 32.4202C36.3718 32.1647 36.0751 31.9942 35.7571 31.9517C35.4815 31.9305 35.2271 31.9942 35.0364 32.1859C34.8668 32.3349 34.782 32.5692 34.7608 32.8034V32.846C34.7396 33.0802 34.7185 33.719 35.6935 33.8469C35.7359 33.8469 35.7783 33.8469 35.8207 33.8469C36.181 33.8469 36.3718 33.6552 36.4778 33.4848C36.7111 33.1228 36.6687 32.6118 36.5414 32.4202Z" fill="black" />
      <path d="M37.3696 21.4756C37.094 20.9433 36.3733 20.56 35.5678 20.5175C34.7622 20.4749 33.66 20.6026 33.1512 22.1783C32.6637 23.7114 33.2572 25.1168 34.635 25.5427C35.0166 25.6704 35.3981 25.713 35.7161 25.713C36.4792 25.713 37.2848 25.4148 37.306 25.4148L37.3696 25.3936L37.3484 24.116L37.0092 24.2012C36.988 24.2012 35.7373 24.4141 35.1438 24.1799C34.7198 24.0309 34.6774 23.6689 34.6774 23.4985L37.3907 23.4559L37.4119 23.392C37.4543 23.3494 37.8571 22.4338 37.3696 21.4756ZM36.4156 22.519L34.7198 22.5829C34.7198 22.5829 34.6774 22.1783 35.0378 21.9015C35.3346 21.6673 35.8009 21.6247 36.1401 21.8376C36.5852 22.0931 36.4156 22.519 36.4156 22.519Z" fill="black" />
      <path d="M28.5721 29.6521C28.2967 29.1197 27.5758 28.7365 26.7703 28.6939C25.9648 28.6513 24.8626 28.779 24.3538 30.3547C23.8663 31.8878 24.4598 33.2932 25.8376 33.719C26.2193 33.8469 26.6008 33.8894 26.9187 33.8894C27.6819 33.8894 28.2541 33.6551 28.2967 33.6339L28.3602 33.6126L28.339 32.335L28.2119 32.3563C28.1906 32.3563 26.94 32.5692 26.3464 32.335C25.9224 32.1859 25.88 31.824 25.88 31.6536L28.5934 31.6111L28.6146 31.5472C28.657 31.5046 29.0385 30.589 28.5721 29.6521ZM27.7031 30.6742L25.9013 30.738C25.9013 30.738 25.8589 30.3335 26.2193 30.0566C26.516 29.8224 26.9824 29.7798 27.3215 29.9928C27.7666 30.2482 27.7031 30.6742 27.7031 30.6742Z" fill="black" />
      <path d="M43.8556 24.755C43.7708 24.1801 43.5376 23.7542 42.7321 23.7117C42.4777 23.6903 42.1385 23.8181 41.9689 23.9884C41.4602 24.4782 41.6934 25.266 42.2021 25.4577C42.2234 25.5216 42.2445 25.6068 42.2445 25.6919C42.2021 26.0539 41.7146 26.5649 41.7146 26.5649L41.651 26.6288L42.3717 27.2889L42.4354 27.2251C42.4777 27.2037 43.2832 26.4585 43.6012 25.9475C43.8132 25.5854 43.9191 25.117 43.8556 24.755Z" fill="black" />
      <path d="M48.2646 40.1498L47.3318 39.3619C46.166 38.3824 39.5523 38.3185 36.1607 38.5741C26.3248 39.2767 14.4117 39.3193 10.4054 37.2326C9.04874 36.5299 8.01005 35.7207 7.28928 34.7838C5.65707 32.6972 5.42389 29.9503 5.40269 27.2886C5.38149 24.9677 5.48749 22.6042 5.69946 20.2832V20.1767C6.03862 15.9607 8.77314 14.6831 11.0201 14.3424C16.3196 13.5333 37.6656 15.8968 40.6969 16.3227C46.1025 17.0892 48.8581 21.9867 48.2434 29.7374C47.989 33.0165 47.9678 35.6781 48.1798 38.9147L48.2646 40.1498ZM40.2306 37.3817C42.6259 37.3817 45.4665 37.5094 47.0775 38.063C46.9291 35.1671 46.9715 32.6759 47.2047 29.6522C47.9678 19.8999 43.3679 17.7706 40.5486 17.366C36.839 16.8337 16.1076 14.6193 11.1685 15.3858C8.45514 15.8117 6.97129 17.4512 6.73815 20.2619V20.3684C6.52617 22.6468 6.42019 24.9677 6.44138 27.2674C6.46258 29.7374 6.67455 32.2713 8.09483 34.1025C8.73075 34.9117 9.64227 35.6356 10.8717 36.2532C14.6873 38.2334 26.8336 38.1481 36.0547 37.4668C36.1183 37.4881 37.9836 37.3817 40.2306 37.3817Z" fill="black" />
    </g>
  </g>
  <defs>
    <clipPath id="clip0_8_1463">
      <rect width="54" height="54" fill="white" />
    </clipPath>
  </defs>
</svg>