<svg width="54" height="54" viewBox="0 0 54 54" fill="none" xmlns="http://www.w3.org/2000/svg">
  <g clip-path="url(#clip0_8_1591)">
    <path d="M54 0H0V54H54V0Z" fill="#F5F8FA" />
    <mask id="mask0_8_1591" style="mask-type:luminance" maskUnits="userSpaceOnUse" x="10" y="13" width="37" height="28">
      <path d="M46.575 13.5H10.125V40.5H46.575V13.5Z" fill="white" />
    </mask>
    <g mask="url(#mask0_8_1591)">
      <path fill-rule="evenodd" clip-rule="evenodd" d="M46.5669 26.94C46.5669 26.9968 46.5648 27.0522 46.5607 27.1061C46.4549 28.496 44.8376 29.1058 43.626 29.7859L26.5378 39.3804C25.4663 39.982 24.1843 40.7592 23.1396 40.1118C22.3478 39.6213 22.3433 38.6007 22.3433 38.5892C22.3433 38.589 22.3433 38.5895 22.3433 38.5892V18.0756C22.3433 16.5511 21.7972 14.4835 23.1396 13.7712C24.3431 13.1328 25.7198 14.0412 26.9092 14.7058L44.5985 24.5901C45.1622 24.9051 45.7787 25.1827 46.1618 25.7041C46.3818 26.0034 46.5669 26.4122 46.5669 26.94Z" fill="url(#paint0_radial_8_1591)" />
      <path fill-rule="evenodd" clip-rule="evenodd" d="M34.4403 26.9405C34.4403 26.9973 34.4382 27.0529 34.434 27.1069C34.3278 28.4967 32.7107 29.106 31.4994 29.7861L14.4072 39.3803C13.3355 39.9819 12.053 40.7592 11.0081 40.1118C10.2163 39.6212 10.2118 38.6004 10.2118 38.5892C10.2118 38.5889 10.2118 38.5894 10.2118 38.5892V17.702C10.2118 16.4264 9.84776 14.9159 10.7243 13.9933C10.8056 13.9077 10.8997 13.8326 11.0081 13.7723C12.1652 13.13 13.5118 14.0253 14.6679 14.6695L32.4964 24.6055C33.0434 24.9106 33.6392 25.1804 34.0175 25.6811C34.2452 25.9825 34.4403 26.3987 34.4403 26.9405Z" fill="url(#paint1_linear_8_1591)" />
      <mask id="mask1_8_1591" style="mask-type:luminance" maskUnits="userSpaceOnUse" x="10" y="13" width="25" height="28">
        <path fill-rule="evenodd" clip-rule="evenodd" d="M34.4403 26.9405C34.4403 26.9973 34.4382 27.0529 34.434 27.1069C34.3278 28.4967 32.7107 29.106 31.4994 29.7861L14.4072 39.3803C13.3355 39.9819 12.053 40.7592 11.0081 40.1118C10.2163 39.6212 10.2118 38.6004 10.2118 38.5892C10.2118 38.5889 10.2118 38.5894 10.2118 38.5892V17.702C10.2118 16.4264 9.84776 14.9159 10.7243 13.9933C10.8056 13.9077 10.8997 13.8326 11.0081 13.7723C12.1652 13.13 13.5118 14.0253 14.6679 14.6695L32.4964 24.6055C33.0434 24.9106 33.6392 25.1804 34.0175 25.6811C34.2452 25.9825 34.4403 26.3987 34.4403 26.9405Z" fill="white" />
      </mask>
      <g mask="url(#mask1_8_1591)">
        <path fill-rule="evenodd" clip-rule="evenodd" d="M46.9279 26.9121C46.9279 26.9691 46.9258 27.0246 46.9217 27.0787C46.8157 28.4703 45.1982 29.0826 43.9859 29.7646L26.8992 39.3787C25.8283 39.9812 24.5458 40.7597 23.5016 40.1114C22.71 39.6197 22.7055 38.5972 22.7055 38.5855C22.7055 38.5851 22.7055 38.5858 22.7055 38.5855V18.031C22.7055 16.502 22.1527 14.4245 23.5016 13.716C24.6605 13.1073 25.9877 13.8639 27.1283 14.5065L44.8941 24.5174C45.5014 24.8597 46.1733 25.1588 46.5667 25.7357C46.7669 26.0293 46.9279 26.4187 46.9279 26.9121Z" fill="url(#paint2_linear_8_1591)" />
      </g>
    </g>
  </g>
  <defs>
    <radialGradient id="paint0_radial_8_1591" cx="0" cy="0" r="1" gradientUnits="userSpaceOnUse" gradientTransform="translate(46.5669 36.4706) rotate(180) scale(30.2899 33.5701)">
      <stop stop-color="#85D3FF" />
      <stop offset="1" stop-color="#2596D7" />
    </radialGradient>
    <linearGradient id="paint1_linear_8_1591" x1="2.09888" y1="24.4619" x2="22.4735" y2="40.3606" gradientUnits="userSpaceOnUse">
      <stop stop-color="#F88324" />
      <stop offset="1" stop-color="#F89520" />
    </linearGradient>
    <linearGradient id="paint2_linear_8_1591" x1="39.2594" y1="17.7014" x2="22.696" y2="17.7014" gradientUnits="userSpaceOnUse">
      <stop stop-color="#F88325" />
      <stop offset="1" stop-color="#FCA01B" />
    </linearGradient>
    <clipPath id="clip0_8_1591">
      <rect width="54" height="54" fill="white" />
    </clipPath>
  </defs>
</svg>