<svg width="54" height="54" viewBox="0 0 54 54" fill="none" xmlns="http://www.w3.org/2000/svg">
  <g clip-path="url(#clip0_8_1425)">
    <path d="M54 0H0V54H54V0Z" fill="#F5F8FA" />
    <mask id="mask0_8_1425" style="mask-type:luminance" maskUnits="userSpaceOnUse" x="6" y="14" width="42" height="26">
      <path d="M47.25 14.85H6.75V39.15H47.25V14.85Z" fill="white" />
    </mask>
    <g mask="url(#mask0_8_1425)">
      <mask id="mask1_8_1425" style="mask-type:luminance" maskUnits="userSpaceOnUse" x="6" y="14" width="41" height="26">
        <path d="M46.9871 14.85H6.75V39.15H46.9871V14.85Z" fill="white" />
      </mask>
      <g mask="url(#mask1_8_1425)">
        <path d="M17.4408 25.7898C17.3258 25.7898 17.2318 25.7538 17.1587 25.6819C17.0856 25.61 17.049 25.5176 17.049 25.4045V15.3907C17.049 15.2777 17.0856 15.1852 17.1587 15.1134C17.2318 15.0415 17.3258 15.0056 17.4408 15.0056H24.7581C24.8729 15.0056 24.967 15.0415 25.0401 15.1134C25.1132 15.1852 25.1498 15.2777 25.1498 15.3907V16.8389C25.1498 16.9519 25.1132 17.0443 25.0401 17.1161C24.967 17.188 24.8729 17.224 24.7581 17.224H19.7597V19.3038H24.4134C24.5283 19.3038 24.6223 19.3449 24.6954 19.4271C24.7685 19.499 24.805 19.5914 24.805 19.7044V21.0447C24.805 21.1474 24.7685 21.2399 24.6954 21.322C24.6223 21.3939 24.5283 21.4299 24.4134 21.4299H19.7597V23.5713H24.8835C24.9984 23.5713 25.0923 23.6073 25.1655 23.6791C25.2386 23.751 25.2752 23.8435 25.2752 23.9565V25.4045C25.2752 25.5176 25.2386 25.61 25.1655 25.6819C25.0923 25.7538 24.9984 25.7898 24.8835 25.7898H17.4408Z" fill="#1B1818" />
        <path d="M17.4408 25.7898C17.3258 25.7898 17.2318 25.7538 17.1587 25.6819C17.0856 25.61 17.049 25.5176 17.049 25.4045V15.3907C17.049 15.2777 17.0856 15.1852 17.1587 15.1134C17.2318 15.0415 17.3258 15.0056 17.4408 15.0056H24.7581C24.8729 15.0056 24.967 15.0415 25.0401 15.1134C25.1132 15.1852 25.1498 15.2777 25.1498 15.3907V16.8389C25.1498 16.9519 25.1132 17.0443 25.0401 17.1161C24.967 17.188 24.8729 17.224 24.7581 17.224H19.7597V19.3038H24.4134C24.5283 19.3038 24.6223 19.3449 24.6954 19.4271C24.7685 19.499 24.805 19.5914 24.805 19.7044V21.0447C24.805 21.1474 24.7685 21.2399 24.6954 21.322C24.6223 21.3939 24.5283 21.4299 24.4134 21.4299H19.7597V23.5713H24.8835C24.9984 23.5713 25.0923 23.6073 25.1655 23.6791C25.2386 23.751 25.2752 23.8435 25.2752 23.9565V25.4045C25.2752 25.5176 25.2386 25.61 25.1655 25.6819C25.0923 25.7538 24.9984 25.7898 24.8835 25.7898H17.4408Z" fill="url(#paint0_linear_8_1425)" fill-opacity="0.2" />
        <path d="M27.1755 25.7898C27.0606 25.7898 26.9666 25.7538 26.8935 25.6819C26.8204 25.61 26.7838 25.5176 26.7838 25.4045V15.3907C26.7838 15.2777 26.8204 15.1852 26.8935 15.1134C26.9666 15.0415 27.0606 15.0056 27.1755 15.0056H31.5629C32.4297 15.0056 33.1818 15.1391 33.819 15.4061C34.4666 15.6629 34.9682 16.0532 35.3232 16.577C35.6888 17.1008 35.8718 17.7632 35.8718 18.5643C35.8718 19.3552 35.6888 20.0074 35.3232 20.5209C34.9682 21.0344 34.4666 21.4145 33.819 21.6609C33.1818 21.9074 32.4297 22.0307 31.5629 22.0307H29.6982V25.4045C29.6982 25.5176 29.6564 25.61 29.5729 25.6819C29.4997 25.7538 29.4058 25.7898 29.2907 25.7898H27.1755ZM29.6512 19.9046H31.4844C31.9336 19.9046 32.2886 19.7917 32.55 19.5657C32.8217 19.3398 32.9573 18.9957 32.9573 18.5335C32.9573 18.1432 32.8426 17.8146 32.6126 17.5475C32.3826 17.2805 32.0069 17.147 31.4844 17.147H29.6512V19.9046Z" fill="#1B1818" />
        <path d="M27.1755 25.7898C27.0606 25.7898 26.9666 25.7538 26.8935 25.6819C26.8204 25.61 26.7838 25.5176 26.7838 25.4045V15.3907C26.7838 15.2777 26.8204 15.1852 26.8935 15.1134C26.9666 15.0415 27.0606 15.0056 27.1755 15.0056H31.5629C32.4297 15.0056 33.1818 15.1391 33.819 15.4061C34.4666 15.6629 34.9682 16.0532 35.3232 16.577C35.6888 17.1008 35.8718 17.7632 35.8718 18.5643C35.8718 19.3552 35.6888 20.0074 35.3232 20.5209C34.9682 21.0344 34.4666 21.4145 33.819 21.6609C33.1818 21.9074 32.4297 22.0307 31.5629 22.0307H29.6982V25.4045C29.6982 25.5176 29.6564 25.61 29.5729 25.6819C29.4997 25.7538 29.4058 25.7898 29.2907 25.7898H27.1755ZM29.6512 19.9046H31.4844C31.9336 19.9046 32.2886 19.7917 32.55 19.5657C32.8217 19.3398 32.9573 18.9957 32.9573 18.5335C32.9573 18.1432 32.8426 17.8146 32.6126 17.5475C32.3826 17.2805 32.0069 17.147 31.4844 17.147H29.6512V19.9046Z" fill="url(#paint1_linear_8_1425)" fill-opacity="0.2" />
        <path d="M7.1417 25.7898C7.02682 25.7898 6.93279 25.7538 6.85969 25.6819C6.78659 25.61 6.75 25.5176 6.75 25.4045V15.3907C6.75 15.2777 6.78659 15.1852 6.85969 15.1134C6.93279 15.0415 7.02682 15.0056 7.1417 15.0056H14.6471C14.762 15.0056 14.8559 15.0415 14.9292 15.1134C15.0127 15.1852 15.0545 15.2777 15.0545 15.3907V16.9313C15.0545 17.0443 15.0127 17.1419 14.9292 17.224C14.8559 17.2959 14.762 17.3319 14.6471 17.3319H9.55469V19.1652H11.7484C13.0019 19.1652 13.989 19.4579 14.7097 20.0433C15.4305 20.6288 15.7909 21.4247 15.7909 22.4312C15.7909 22.9037 15.7021 23.3453 15.5245 23.7562C15.3469 24.1567 15.0858 24.511 14.7411 24.8192C14.4068 25.1171 13.989 25.3532 13.4876 25.5279C12.9862 25.7024 12.4064 25.7898 11.7484 25.7898H7.1417ZM9.55469 23.787H11.4977C11.8006 23.787 12.0512 23.7253 12.2498 23.6021C12.4587 23.4686 12.6153 23.2991 12.7198 23.0937C12.8243 22.878 12.8765 22.652 12.8765 22.4158C12.8765 22.0564 12.7564 21.7482 12.5161 21.4915C12.2863 21.2347 11.9468 21.1063 11.4977 21.1063H9.55469V23.787Z" fill="#1B1818" />
        <path d="M7.1417 25.7898C7.02682 25.7898 6.93279 25.7538 6.85969 25.6819C6.78659 25.61 6.75 25.5176 6.75 25.4045V15.3907C6.75 15.2777 6.78659 15.1852 6.85969 15.1134C6.93279 15.0415 7.02682 15.0056 7.1417 15.0056H14.6471C14.762 15.0056 14.8559 15.0415 14.9292 15.1134C15.0127 15.1852 15.0545 15.2777 15.0545 15.3907V16.9313C15.0545 17.0443 15.0127 17.1419 14.9292 17.224C14.8559 17.2959 14.762 17.3319 14.6471 17.3319H9.55469V19.1652H11.7484C13.0019 19.1652 13.989 19.4579 14.7097 20.0433C15.4305 20.6288 15.7909 21.4247 15.7909 22.4312C15.7909 22.9037 15.7021 23.3453 15.5245 23.7562C15.3469 24.1567 15.0858 24.511 14.7411 24.8192C14.4068 25.1171 13.989 25.3532 13.4876 25.5279C12.9862 25.7024 12.4064 25.7898 11.7484 25.7898H7.1417ZM9.55469 23.787H11.4977C11.8006 23.787 12.0512 23.7253 12.2498 23.6021C12.4587 23.4686 12.6153 23.2991 12.7198 23.0937C12.8243 22.878 12.8765 22.652 12.8765 22.4158C12.8765 22.0564 12.7564 21.7482 12.5161 21.4915C12.2863 21.2347 11.9468 21.1063 11.4977 21.1063H9.55469V23.787Z" fill="url(#paint2_linear_8_1425)" fill-opacity="0.2" />
        <path d="M37.1215 25.7898C37.0065 25.7898 36.9124 25.7538 36.8394 25.6819C36.766 25.5997 36.7295 25.5073 36.7295 25.4045V15.3907C36.7295 15.2777 36.766 15.1852 36.8394 15.1134C36.923 15.0415 37.017 15.0056 37.1215 15.0056H39.1425C39.2575 15.0056 39.3515 15.0415 39.4245 15.1134C39.4976 15.1852 39.5341 15.2777 39.5341 15.3907V21.5993L43.9999 15.2982C44.0521 15.2161 44.12 15.1493 44.2035 15.098C44.2871 15.0363 44.3966 15.0056 44.5326 15.0056H46.35C46.4546 15.0056 46.5435 15.0415 46.6166 15.1134C46.7001 15.1852 46.7421 15.2777 46.7421 15.3907V25.4045C46.7421 25.5176 46.7001 25.61 46.6166 25.6819C46.5435 25.7538 46.4546 25.7898 46.35 25.7898H44.329C44.2141 25.7898 44.115 25.7538 44.0314 25.6819C43.958 25.61 43.9215 25.5176 43.9215 25.4045V19.4271L39.4716 25.4971C39.4195 25.569 39.3515 25.6357 39.268 25.6974C39.195 25.7589 39.085 25.7898 38.9389 25.7898H37.1215Z" fill="#1B1818" />
        <path d="M37.1215 25.7898C37.0065 25.7898 36.9124 25.7538 36.8394 25.6819C36.766 25.5997 36.7295 25.5073 36.7295 25.4045V15.3907C36.7295 15.2777 36.766 15.1852 36.8394 15.1134C36.923 15.0415 37.017 15.0056 37.1215 15.0056H39.1425C39.2575 15.0056 39.3515 15.0415 39.4245 15.1134C39.4976 15.1852 39.5341 15.2777 39.5341 15.3907V21.5993L43.9999 15.2982C44.0521 15.2161 44.12 15.1493 44.2035 15.098C44.2871 15.0363 44.3966 15.0056 44.5326 15.0056H46.35C46.4546 15.0056 46.5435 15.0415 46.6166 15.1134C46.7001 15.1852 46.7421 15.2777 46.7421 15.3907V25.4045C46.7421 25.5176 46.7001 25.61 46.6166 25.6819C46.5435 25.7538 46.4546 25.7898 46.35 25.7898H44.329C44.2141 25.7898 44.115 25.7538 44.0314 25.6819C43.958 25.61 43.9215 25.5176 43.9215 25.4045V19.4271L39.4716 25.4971C39.4195 25.569 39.3515 25.6357 39.268 25.6974C39.195 25.7589 39.085 25.7898 38.9389 25.7898H37.1215Z" fill="url(#paint3_linear_8_1425)" fill-opacity="0.2" />
        <path d="M7.1417 38.5106C7.02682 38.5106 6.93279 38.4746 6.85969 38.4027C6.78659 38.3308 6.75 38.2384 6.75 38.1254V28.1115C6.75 27.9985 6.78659 27.9061 6.85969 27.8342C6.93279 27.7623 7.02682 27.7264 7.1417 27.7264H14.6471C14.762 27.7264 14.8559 27.7623 14.9292 27.8342C15.0127 27.9061 15.0545 27.9985 15.0545 28.1115V29.6521C15.0545 29.7651 15.0127 29.8626 14.9292 29.9448C14.8559 30.0167 14.762 30.0526 14.6471 30.0526H9.55469V31.8859H11.7484C13.0019 31.8859 13.989 32.1787 14.7097 32.7641C15.4305 33.3495 15.7909 34.1455 15.7909 35.152C15.7909 35.6245 15.7021 36.0661 15.5245 36.4769C15.3469 36.8776 15.0858 37.2319 14.7411 37.5399C14.4068 37.8378 13.989 38.0741 13.4876 38.2486C12.9862 38.4232 12.4064 38.5106 11.7484 38.5106H7.1417ZM9.55469 36.5078H11.4977C11.8006 36.5078 12.0512 36.4462 12.2498 36.3229C12.4587 36.1894 12.6153 36.0199 12.7198 35.8145C12.8243 35.5988 12.8765 35.3728 12.8765 35.1366C12.8765 34.7772 12.7564 34.469 12.5161 34.2123C12.2863 33.9555 11.9468 33.8271 11.4977 33.8271H9.55469V36.5078Z" fill="#BD2B3D" />
        <path d="M17.4408 38.5106C17.3258 38.5106 17.2319 38.4746 17.1587 38.4027C17.0856 38.3308 17.049 38.2384 17.049 38.1254V28.1115C17.049 27.9985 17.0856 27.9061 17.1587 27.8342C17.2319 27.7623 17.3258 27.7264 17.4408 27.7264H24.7581C24.8731 27.7264 24.967 27.7623 25.0402 27.8342C25.1132 27.9061 25.1498 27.9985 25.1498 28.1115V29.5596C25.1498 29.6727 25.1132 29.7651 25.0402 29.8369C24.967 29.9089 24.8731 29.9448 24.7581 29.9448H19.7597V32.0246H24.4134C24.5283 32.0246 24.6223 32.0657 24.6954 32.1478C24.7686 32.2197 24.805 32.3123 24.805 32.4252V33.7655C24.805 33.8682 24.7686 33.9606 24.6954 34.0428C24.6223 34.1147 24.5283 34.1506 24.4134 34.1506H19.7597V36.2921H24.8835C24.9984 36.2921 25.0924 36.328 25.1655 36.3999C25.2386 36.4718 25.2752 36.5643 25.2752 36.6772V38.1254C25.2752 38.2384 25.2386 38.3308 25.1655 38.4027C25.0924 38.4746 24.9984 38.5106 24.8835 38.5106H17.4408Z" fill="#BD2B3D" />
        <path d="M27.1834 35.7525C27.0685 35.7525 26.9745 35.7166 26.9014 35.6446C26.8283 35.5728 26.7917 35.4804 26.7917 35.3673V28.1115C26.7917 27.9985 26.8283 27.9061 26.9014 27.8342C26.9745 27.7623 27.0685 27.7264 27.1834 27.7264H31.5707C32.4378 27.7264 33.1895 27.8599 33.8271 28.1269C35.1838 28.6649 35.8795 29.7658 35.8795 31.1652C35.8795 32.4214 35.0092 33.612 33.8271 34.062C33.1895 34.3084 32.4378 34.4317 31.5707 34.4317H29.706V35.3673C29.706 35.4804 29.6643 35.5728 29.5807 35.6446C29.5076 35.7166 29.4136 35.7525 29.2987 35.7525H27.1834ZM29.6591 32.3056H31.4922C32.1272 32.3056 32.965 31.8469 32.965 31.1344C32.965 30.2664 32.3611 29.8678 31.4922 29.8678H29.6591V32.3056Z" fill="#BD2B3D" />
        <path d="M37.5926 38.5106C37.4776 38.5106 37.3836 38.4746 37.3105 38.4027C37.2371 38.3308 37.2006 38.2384 37.2006 38.1254V36.4923C37.2006 36.3794 37.2371 36.287 37.3105 36.215C37.3836 36.1432 37.4776 36.1072 37.5926 36.1072H39.2524C39.5344 36.1072 39.7745 36.0559 39.9731 35.9531C40.1716 35.8402 40.3491 35.6759 40.5057 35.4602C40.6728 35.2445 40.8348 34.9568 40.9913 34.5974L44.1355 28.0498C44.1771 27.9368 44.24 27.8547 44.3235 27.8034C44.4071 27.752 44.5011 27.7264 44.6056 27.7264H46.6581C46.7521 27.7264 46.8305 27.7623 46.8931 27.8342C46.9557 27.8958 46.9872 27.9677 46.9872 28.0498C46.9872 28.0909 46.9817 28.1372 46.9716 28.1886C46.9611 28.2399 46.9452 28.2861 46.9246 28.3272L43.5768 35.3677C43.3158 35.9531 43.0597 36.4462 42.8092 36.8467C42.5687 37.2473 42.3025 37.5709 42.01 37.8173C41.7174 38.0638 41.3674 38.2436 40.9603 38.3565C40.5632 38.4592 40.0721 38.5106 39.4871 38.5106H37.5926ZM40.8662 35.7375L36.5157 28.2039C36.4947 28.1628 36.4843 28.1166 36.4843 28.0652C36.4843 27.9831 36.5208 27.9061 36.5938 27.8342C36.6673 27.7623 36.7558 27.7264 36.8603 27.7264H39.0228C39.1374 27.7264 39.2263 27.7572 39.2889 27.8188C39.3623 27.8702 39.4249 27.9471 39.477 28.0498L42.3076 33.0415L40.8662 35.7375Z" fill="#BD2B3D" />
        <path d="M26.7917 36.785C26.7917 36.5344 26.9973 36.3313 27.2508 36.3313H29.239C29.4926 36.3313 29.6982 36.5344 29.6982 36.785V38.116C29.6982 38.3666 29.4926 38.5697 29.239 38.5697H27.2508C26.9973 38.5697 26.7917 38.3666 26.7917 38.116V36.785Z" fill="#1B1818" />
        <path d="M26.7917 36.785C26.7917 36.5344 26.9973 36.3313 27.2508 36.3313H29.239C29.4926 36.3313 29.6982 36.5344 29.6982 36.785V38.116C29.6982 38.3666 29.4926 38.5697 29.239 38.5697H27.2508C26.9973 38.5697 26.7917 38.3666 26.7917 38.116V36.785Z" fill="url(#paint4_linear_8_1425)" fill-opacity="0.2" />
      </g>
    </g>
  </g>
  <defs>
    <linearGradient id="paint0_linear_8_1425" x1="27.2042" y1="15.0056" x2="27.2042" y2="25.7898" gradientUnits="userSpaceOnUse">
      <stop stop-color="white" />
      <stop offset="1" stop-color="white" stop-opacity="0" />
    </linearGradient>
    <linearGradient id="paint1_linear_8_1425" x1="27.2025" y1="15.0056" x2="27.2025" y2="25.7898" gradientUnits="userSpaceOnUse">
      <stop stop-color="white" />
      <stop offset="1" stop-color="white" stop-opacity="0" />
    </linearGradient>
    <linearGradient id="paint2_linear_8_1425" x1="27.2031" y1="15.0056" x2="27.2031" y2="25.7898" gradientUnits="userSpaceOnUse">
      <stop stop-color="white" />
      <stop offset="1" stop-color="white" stop-opacity="0" />
    </linearGradient>
    <linearGradient id="paint3_linear_8_1425" x1="26.9776" y1="15.0056" x2="26.9776" y2="25.7898" gradientUnits="userSpaceOnUse">
      <stop stop-color="white" />
      <stop offset="1" stop-color="white" stop-opacity="0" />
    </linearGradient>
    <linearGradient id="paint4_linear_8_1425" x1="28.2449" y1="36.3313" x2="28.2449" y2="38.5697" gradientUnits="userSpaceOnUse">
      <stop stop-color="white" />
      <stop offset="1" stop-color="white" stop-opacity="0" />
    </linearGradient>
    <clipPath id="clip0_8_1425">
      <rect width="54" height="54" fill="white" />
    </clipPath>
  </defs>
</svg>