<svg width="22" height="22" viewBox="0 0 22 22" fill="none" xmlns="http://www.w3.org/2000/svg">
  <path d="M1.33496 9.33677C1.02171 9.04709 1.19187 8.52339 1.61557 8.47316L7.61914 7.76107C7.79182 7.74059 7.94181 7.63215 8.01465 7.47425L10.5469 1.98446C10.7256 1.59703 11.2764 1.59695 11.4551 1.98439L13.9873 7.47413C14.0601 7.63204 14.2092 7.74077 14.3818 7.76124L20.3857 8.47316C20.8094 8.52339 20.9791 9.04724 20.6659 9.33693L16.2278 13.4419C16.1001 13.56 16.0433 13.7357 16.0771 13.9063L17.255 19.8359C17.3382 20.2544 16.8928 20.5787 16.5205 20.3703L11.2451 17.4166C11.0934 17.3317 10.9091 17.3321 10.7573 17.417L5.48144 20.3695C5.10913 20.5779 4.66294 20.2544 4.74609 19.8359L5.92414 13.9066C5.95803 13.7361 5.90134 13.5599 5.77367 13.4419L1.33496 9.33677Z" fill="#FFCC00" stroke="#FFCC00" stroke-width="2" stroke-linecap="round" stroke-linejoin="round" />
</svg>