<svg width="54" height="54" viewBox="0 0 54 54" fill="none" xmlns="http://www.w3.org/2000/svg">
  <g clip-path="url(#clip0_8_1499)">
    <mask id="mask0_8_1499" style="mask-type:luminance" maskUnits="userSpaceOnUse" x="0" y="0" width="54" height="54">
      <path d="M54 0H0V54H54V0Z" fill="white" />
    </mask>
    <g mask="url(#mask0_8_1499)">
      <path d="M54 0H0V54H54V0Z" fill="#F5F8FA" />
      <path d="M41.7828 8.50063V11.2366L18.4988 19.2537L17.5367 19.3809L13.6239 18.6173V16.7086L14.586 14.927L38.319 6.78269C40.1151 6.52821 41.3766 7.82199 41.7828 8.50063Z" fill="#F99D1B" />
      <path d="M22.6705 21.5453L41.7852 15.1189L41.8493 27.7807C41.9006 30.1732 40.2458 31.4924 39.4119 31.8529L28.6999 35.7978L22.6705 21.5453Z" fill="#F99D1B" />
      <path d="M12.15 18.4909C12.15 16.6075 13.7536 15.352 14.5874 14.9277C13.8177 16.8111 14.6302 17.7274 15.1006 17.9819L25.556 21.6086C27.8138 22.3213 28.6776 24.1962 28.8272 25.0445V44.1963C28.8272 46.4869 26.7319 47.1868 25.6842 47.2504C22.4771 46.1688 15.7036 43.8527 14.2668 43.2419C12.83 42.631 12.2569 41.1634 12.15 40.5059V18.4909Z" fill="#ED1C24" />
      <path d="M24.7215 36.0509C25.5717 36.0509 26.2609 35.1678 26.2609 34.0784C26.2609 32.9891 25.5717 32.106 24.7215 32.106C23.8712 32.106 23.1821 32.9891 23.1821 34.0784C23.1821 35.1678 23.8712 36.0509 24.7215 36.0509Z" fill="white" />
    </g>
  </g>
  <defs>
    <clipPath id="clip0_8_1499">
      <rect width="54" height="54" fill="white" />
    </clipPath>
  </defs>
</svg>