<svg width="166" height="45" viewBox="0 0 166 45" fill="none" xmlns="http://www.w3.org/2000/svg">
  <path d="M94.1487 30.0536C92.3891 30.0536 90.8366 29.6912 89.4911 28.9665C88.1663 28.2417 87.1313 27.2477 86.3861 25.9845C85.6616 24.7213 85.2993 23.2718 85.2993 21.6358C85.2993 19.9999 85.6512 18.5504 86.355 17.2872C87.0795 16.024 88.0628 15.0404 89.3048 14.3363C90.5675 13.6115 91.9855 13.2491 93.5587 13.2491C95.1526 13.2491 96.5602 13.6012 97.7816 14.3052C99.0029 15.0093 99.9551 16.0033 100.638 17.2872C101.342 18.5504 101.694 20.031 101.694 21.729C101.694 21.8533 101.684 21.9982 101.663 22.1639C101.663 22.3296 101.653 22.4849 101.632 22.6298H87.6281V20.4865H100.079L98.8683 21.232C98.889 20.1759 98.6717 19.2337 98.2163 18.4054C97.7609 17.5771 97.1295 16.9351 96.3222 16.4796C95.5356 16.0033 94.6144 15.7651 93.5587 15.7651C92.5237 15.7651 91.6025 16.0033 90.7952 16.4796C89.9879 16.9351 89.3566 17.5874 88.9012 18.4365C88.4458 19.2648 88.2181 20.2173 88.2181 21.2942V21.7912C88.2181 22.8887 88.4665 23.8723 88.9633 24.742C89.4808 25.5911 90.1949 26.2537 91.1057 26.73C92.0165 27.2063 93.0619 27.4444 94.2418 27.4444C95.2147 27.4444 96.0945 27.2788 96.8811 26.9474C97.6884 26.6161 98.3922 26.1191 98.9925 25.4565L100.638 27.3823C99.893 28.252 98.9615 28.9147 97.8437 29.3703C96.7465 29.8258 95.5149 30.0536 94.1487 30.0536ZM113.006 30.0536C111.329 30.0536 109.828 29.6912 108.503 28.9665C107.199 28.2417 106.175 27.2477 105.429 25.9845C104.684 24.7213 104.312 23.2718 104.312 21.6358C104.312 19.9999 104.684 18.5504 105.429 17.2872C106.175 16.024 107.199 15.0404 108.503 14.3363C109.828 13.6115 111.329 13.2491 113.006 13.2491C114.496 13.2491 115.821 13.5494 116.98 14.1499C118.16 14.7297 119.071 15.5995 119.713 16.7591L117.446 18.219C116.908 17.4114 116.245 16.8212 115.459 16.4485C114.693 16.055 113.865 15.8583 112.975 15.8583C111.898 15.8583 110.936 16.0965 110.087 16.5727C109.238 17.049 108.566 17.722 108.069 18.5918C107.572 19.4408 107.324 20.4555 107.324 21.6358C107.324 22.8162 107.572 23.8412 108.069 24.711C108.566 25.5807 109.238 26.2537 110.087 26.73C110.936 27.2063 111.898 27.4444 112.975 27.4444C113.865 27.4444 114.693 27.2581 115.459 26.8853C116.245 26.4919 116.908 25.8913 117.446 25.0837L119.713 26.5126C119.071 27.6515 118.16 28.5316 116.98 29.1528C115.821 29.7534 114.496 30.0536 113.006 30.0536ZM129.435 30.0536C127.779 30.0536 126.496 29.6084 125.585 28.718C124.674 27.8275 124.219 26.554 124.219 24.8973V9.80124H127.2V24.7731C127.2 25.6635 127.417 26.3469 127.852 26.8232C128.307 27.2995 128.949 27.5376 129.777 27.5376C130.708 27.5376 131.485 27.2788 132.106 26.7611L133.037 28.9043C132.582 29.2978 132.033 29.5877 131.392 29.7741C130.771 29.9604 130.119 30.0536 129.435 30.0536ZM121.424 15.8583V13.4044H131.919V15.8583H121.424ZM143.143 30.0536C141.487 30.0536 140.018 29.6912 138.734 28.9665C137.451 28.2417 136.436 27.2477 135.691 25.9845C134.946 24.7006 134.573 23.2511 134.573 21.6358C134.573 19.9999 134.946 18.5504 135.691 17.2872C136.436 16.024 137.451 15.0404 138.734 14.3363C140.018 13.6115 141.487 13.2491 143.143 13.2491C144.779 13.2491 146.238 13.6115 147.521 14.3363C148.826 15.0404 149.84 16.024 150.564 17.2872C151.31 18.5296 151.682 19.9792 151.682 21.6358C151.682 23.2718 151.31 24.7213 150.564 25.9845C149.84 27.2477 148.826 28.2417 147.521 28.9665C146.238 29.6912 144.779 30.0536 143.143 30.0536ZM143.143 27.4444C144.199 27.4444 145.141 27.2063 145.969 26.73C146.818 26.2537 147.48 25.5807 147.956 24.711C148.432 23.8205 148.67 22.7955 148.67 21.6358C148.67 20.4555 148.432 19.4408 147.956 18.5918C147.48 17.722 146.818 17.049 145.969 16.5727C145.141 16.0965 144.199 15.8583 143.143 15.8583C142.088 15.8583 141.146 16.0965 140.318 16.5727C139.49 17.049 138.827 17.722 138.331 18.5918C137.834 19.4408 137.585 20.4555 137.585 21.6358C137.585 22.7955 137.834 23.8205 138.331 24.711C138.827 25.5807 139.49 26.2537 140.318 26.73C141.146 27.2063 142.088 27.4444 143.143 27.4444ZM155.805 29.8673V13.4044H158.661V17.8773L158.382 16.7591C158.837 15.6202 159.603 14.7504 160.68 14.1499C161.756 13.5494 163.081 13.2491 164.654 13.2491V16.1379C164.53 16.1172 164.406 16.1068 164.281 16.1068C164.178 16.1068 164.074 16.1068 163.971 16.1068C162.377 16.1068 161.114 16.5831 160.183 17.5357C159.251 18.4882 158.786 19.8653 158.786 21.6669V29.8673H155.805Z" fill="#1FBFAB" />
  <path d="M77.1841 43.0088V37.9912H79.1403C79.5797 37.9912 79.9547 38.0604 80.2652 38.199C80.5757 38.3376 80.8146 38.5383 80.9818 38.8011C81.149 39.064 81.2326 39.377 81.2326 39.7402C81.2326 40.1034 81.149 40.4164 80.9818 40.6792C80.8146 40.9373 80.5757 41.138 80.2652 41.2813C79.9547 41.4199 79.5797 41.4892 79.1403 41.4892H77.5782L77.9006 41.1523V43.0088H77.1841ZM77.9006 41.224L77.5782 40.8656H79.1188C79.5773 40.8656 79.9237 40.7676 80.1578 40.5717C80.3966 40.3758 80.516 40.0986 80.516 39.7402C80.516 39.3818 80.3966 39.1046 80.1578 38.9087C79.9237 38.7127 79.5773 38.6148 79.1188 38.6148H77.5782L77.9006 38.2564V41.224ZM82.2851 43.0088V37.9912H84.2413C84.6808 37.9912 85.0557 38.0604 85.3663 38.199C85.6768 38.3376 85.9156 38.5383 86.0828 38.8011C86.25 39.064 86.3336 39.377 86.3336 39.7402C86.3336 40.1034 86.25 40.4164 86.0828 40.6792C85.9156 40.9373 85.6768 41.1356 85.3663 41.2742C85.0557 41.4127 84.6808 41.482 84.2413 41.482H82.6792L83.0016 41.1523V43.0088H82.2851ZM85.6385 43.0088L84.3631 41.1881H85.1298L86.4196 43.0088H85.6385ZM83.0016 41.224L82.6792 40.8727H84.2198C84.6784 40.8727 85.0247 40.7748 85.2588 40.5789C85.4976 40.3781 85.617 40.0986 85.617 39.7402C85.617 39.3818 85.4976 39.1046 85.2588 38.9087C85.0247 38.7127 84.6784 38.6148 84.2198 38.6148H82.6792L83.0016 38.2564V41.224ZM89.7559 43.0662C89.3737 43.0662 89.0179 43.0017 88.6882 42.8727C88.3634 42.7436 88.0816 42.5644 87.8427 42.335C87.6039 42.1009 87.4176 41.8285 87.2838 41.5179C87.1501 41.2073 87.0832 40.868 87.0832 40.5C87.0832 40.132 87.1501 39.7927 87.2838 39.4821C87.4176 39.1715 87.6039 38.9015 87.8427 38.6721C88.0816 38.438 88.3634 38.2564 88.6882 38.1273C89.0131 37.9983 89.369 37.9338 89.7559 37.9338C90.1381 37.9338 90.4892 37.9983 90.8092 38.1273C91.1341 38.2516 91.4159 38.4308 91.6547 38.665C91.8984 38.8943 92.0847 39.1643 92.2137 39.475C92.3474 39.7856 92.4143 40.1273 92.4143 40.5C92.4143 40.8727 92.3474 41.2144 92.2137 41.525C92.0847 41.8357 91.8984 42.1081 91.6547 42.3422C91.4159 42.5716 91.1341 42.7508 90.8092 42.8798C90.4892 43.0041 90.1381 43.0662 89.7559 43.0662ZM89.7559 42.4282C90.033 42.4282 90.2885 42.3804 90.5226 42.2849C90.7615 42.1893 90.9669 42.0555 91.1388 41.8835C91.3156 41.7066 91.4517 41.5011 91.5473 41.267C91.6476 41.0328 91.6977 40.7772 91.6977 40.5C91.6977 40.2228 91.6476 39.9672 91.5473 39.733C91.4517 39.4988 91.3156 39.2958 91.1388 39.1237C90.9669 38.9469 90.7615 38.8107 90.5226 38.7151C90.2885 38.6196 90.033 38.5718 89.7559 38.5718C89.4741 38.5718 89.2137 38.6196 88.9749 38.7151C88.7408 38.8107 88.5354 38.9469 88.3586 39.1237C88.1819 39.2958 88.0434 39.4988 87.943 39.733C87.8475 39.9672 87.7997 40.2228 87.7997 40.5C87.7997 40.7772 87.8475 41.0328 87.943 41.267C88.0434 41.5011 88.1819 41.7066 88.3586 41.8835C88.5354 42.0555 88.7408 42.1893 88.9749 42.2849C89.2137 42.3804 89.4741 42.4282 89.7559 42.4282Z" fill="#1FBFAB" />
  <path d="M66.2806 34.8451C75.0747 34.8451 82.2038 27.7134 82.2038 18.9159C82.2038 10.1185 75.0747 2.98672 66.2806 2.98672C57.4864 2.98672 50.3573 10.1185 50.3573 18.9159C50.3573 27.7134 57.4864 34.8451 66.2806 34.8451Z" fill="#F3F3F3" stroke="#1FBFAB" />
  <path d="M66.1222 30.1158C64.4661 30.1158 62.8826 29.8673 61.3715 29.3703C59.8603 28.8526 58.6701 28.1899 57.8007 27.3823L58.9495 24.9595C59.7775 25.6842 60.8332 26.2848 62.1167 26.7611C63.4001 27.2373 64.7352 27.4755 66.1222 27.4755C67.3849 27.4755 68.4095 27.3305 69.1961 27.0406C69.9828 26.7507 70.5624 26.3573 70.935 25.8603C71.3076 25.3426 71.4939 24.7627 71.4939 24.1208C71.4939 23.3753 71.2455 22.7748 70.7487 22.3192C70.2726 21.8636 69.6412 21.5012 68.8546 21.232C68.0887 20.9421 67.24 20.6936 66.3085 20.4865C65.377 20.2795 64.4351 20.0413 63.4829 19.7721C62.5514 19.4822 61.6923 19.1198 60.9057 18.685C60.1398 18.2501 59.5188 17.6703 59.0427 16.9455C58.5666 16.2 58.3285 15.2474 58.3285 14.0878C58.3285 12.9696 58.6183 11.9445 59.1979 11.0127C59.7982 10.0601 60.709 9.30425 61.9304 8.74513C63.1724 8.16531 64.7456 7.8754 66.65 7.8754C67.9127 7.8754 69.1651 8.04106 70.4071 8.37239C71.6491 8.70372 72.7255 9.18 73.6363 9.80124L72.6117 12.2862C71.6802 11.665 70.6969 11.2197 69.6619 10.9505C68.6269 10.6606 67.6229 10.5157 66.65 10.5157C65.4287 10.5157 64.4247 10.671 63.6381 10.9816C62.8515 11.2922 62.2719 11.7064 61.8993 12.2241C61.5474 12.7418 61.3715 13.3216 61.3715 13.9635C61.3715 14.7297 61.6095 15.3406 62.0856 15.7962C62.5824 16.2518 63.2138 16.6142 63.9797 16.8834C64.7663 17.1526 65.6254 17.4011 66.5569 17.6288C67.4884 17.8359 68.4199 18.0741 69.3514 18.3433C70.3036 18.6125 71.1627 18.9645 71.9286 19.3994C72.7152 19.8342 73.3465 20.4141 73.8226 21.1388C74.2988 21.8636 74.5368 22.7955 74.5368 23.9344C74.5368 25.0319 74.2366 26.057 73.6363 27.0096C73.036 27.9414 72.1045 28.6973 70.8418 29.2771C69.5998 29.8362 68.0266 30.1158 66.1222 30.1158Z" fill="#1FBFAB" />
  <path d="M6.05479 18.4054H17.264V21.0767H6.05479V18.4054ZM6.36529 29.8673H3.26025V8.12389H18.5991V10.8263H6.36529V29.8673ZM22.5352 29.8673V13.4044H25.5161V29.8673H22.5352ZM24.0257 10.2361C23.4461 10.2361 22.9596 10.0497 22.5663 9.67699C22.1937 9.30425 22.0074 8.84867 22.0074 8.31027C22.0074 7.75115 22.1937 7.28522 22.5663 6.91248C22.9596 6.53973 23.4461 6.35336 24.0257 6.35336C24.6053 6.35336 25.0814 6.53973 25.454 6.91248C25.8473 7.26451 26.0439 7.70973 26.0439 8.24814C26.0439 8.80726 25.8576 9.28354 25.485 9.67699C25.1124 10.0497 24.626 10.2361 24.0257 10.2361ZM39.9948 13.2491C41.3403 13.2491 42.5202 13.508 43.5346 14.0257C44.5696 14.5434 45.3769 15.3303 45.9565 16.3864C46.5361 17.4425 46.8259 18.7781 46.8259 20.3934V29.8673H43.8451V20.735C43.8451 19.1405 43.4518 17.9395 42.6651 17.1319C41.8992 16.3242 40.8125 15.9204 39.4048 15.9204C38.3491 15.9204 37.4279 16.1275 36.6413 16.5417C35.8547 16.9558 35.2441 17.5667 34.8094 18.3743C34.3954 19.1819 34.1884 20.1863 34.1884 21.3873V29.8673H31.2075V13.4044H34.0642V17.8463L33.5984 16.6659C34.1366 15.5891 34.9646 14.7504 36.0824 14.1499C37.2002 13.5494 38.5044 13.2491 39.9948 13.2491Z" fill="#1FBFAB" />
</svg>