<svg width="166" height="37" viewBox="0 0 166 37" fill="none" xmlns="http://www.w3.org/2000/svg">
<path d="M57.24 8C56.76 8 56.21 8.03 55.59 8.09C54.97 8.15 54.38 8.31 53.82 8.57C53.26 8.83 52.79 9.22 52.41 9.74C52.05 10.26 51.88 10.98 51.9 11.9V16.91H59.88V17.87C59.6 18.01 59.25 18.13 58.83 18.23C58.41 18.31 57.83 18.35 57.09 18.35H51.9V29H49.23V11.81C49.21 10.65 49.46 9.72 49.98 9.02C50.5 8.32 51.13 7.79 51.87 7.43C52.63 7.07 53.43 6.84 54.27 6.74C55.11 6.62 55.84 6.56 56.46 6.56H60.3C61.02 6.56 61.59 6.6 62.01 6.68C62.45 6.76 62.81 6.87 63.09 7.01V8H57.24ZM67.5879 8.84C67.5879 8.44 67.4379 8.09 67.1379 7.79C66.8579 7.49 66.5079 7.34 66.0879 7.34C65.6679 7.34 65.3079 7.49 65.0079 7.79C64.7279 8.09 64.5879 8.44 64.5879 8.84C64.5879 9.26 64.7279 9.62 65.0079 9.92C65.3079 10.2 65.6679 10.34 66.0879 10.34C66.5079 10.34 66.8579 10.2 67.1379 9.92C67.4379 9.62 67.5879 9.26 67.5879 8.84ZM67.4079 12.62V29H64.7379V12.62H67.4079ZM76.2038 12.62C76.8238 12.62 77.5538 12.68 78.3938 12.8C79.2338 12.9 80.0338 13.13 80.7938 13.49C81.5538 13.85 82.1838 14.38 82.6838 15.08C83.2038 15.76 83.4538 16.68 83.4338 17.84V29H80.7638V17.96C80.7838 17.04 80.6138 16.32 80.2538 15.8C79.8938 15.26 79.4338 14.86 78.8738 14.6C78.3138 14.34 77.7138 14.18 77.0738 14.12C76.4538 14.06 75.9038 14.03 75.4238 14.03H72.9638V29H70.2938V12.62H76.2038ZM92.1539 7.97C91.7539 7.97 91.3339 8.02 90.8939 8.12C90.4539 8.2 90.0339 8.35 89.6339 8.57C89.2539 8.77 88.9139 9.05 88.6139 9.41C88.3339 9.77 88.1539 10.21 88.0739 10.73C87.9739 11.35 87.9839 11.88 88.1039 12.32C88.2239 12.74 88.4139 13.1 88.6739 13.4C88.9339 13.68 89.2339 13.91 89.5739 14.09C89.9139 14.25 90.2439 14.37 90.5639 14.45C91.2039 14.65 91.9239 14.85 92.7239 15.05C93.5239 15.25 94.3139 15.46 95.0939 15.68C95.6139 15.82 96.2039 16.02 96.8639 16.28C97.5439 16.52 98.1739 16.88 98.7539 17.36C99.3339 17.84 99.8039 18.47 100.164 19.25C100.544 20.03 100.694 21 100.614 22.16C100.534 23.56 100.214 24.71 99.6539 25.61C99.1139 26.49 98.4639 27.19 97.7039 27.71C96.9639 28.21 96.1839 28.56 95.3639 28.76C94.5439 28.94 93.8339 29.03 93.2339 29.03H85.9439V28.22C86.2239 28.04 86.5739 27.89 86.9939 27.77C87.4139 27.65 87.9939 27.59 88.7339 27.59L92.6939 27.56C93.5539 27.56 94.3039 27.42 94.9439 27.14C95.6039 26.86 96.1539 26.49 96.5939 26.03C97.0539 25.55 97.3939 25 97.6139 24.38C97.8539 23.76 97.9739 23.1 97.9739 22.4C97.9739 21.74 97.8339 21.18 97.5539 20.72C97.2939 20.26 96.9739 19.88 96.5939 19.58C96.2339 19.28 95.8439 19.05 95.4239 18.89C95.0239 18.71 94.6839 18.59 94.4039 18.53C94.1239 18.47 93.8639 18.41 93.6239 18.35C93.4039 18.29 93.1539 18.23 92.8739 18.17C92.6139 18.09 92.3139 18.01 91.9739 17.93C91.6539 17.83 91.2539 17.72 90.7739 17.6C90.3139 17.48 89.7439 17.31 89.0639 17.09C88.3839 16.85 87.7439 16.51 87.1439 16.07C86.5439 15.61 86.0339 15.03 85.6139 14.33C85.2139 13.61 85.0539 12.72 85.1339 11.66C85.1939 10.66 85.4539 9.84 85.9139 9.2C86.3739 8.54 86.9439 8.02 87.6239 7.64C88.3039 7.24 89.0439 6.96 89.8439 6.8C90.6639 6.64 91.4639 6.56 92.2439 6.56H98.2139V7.34C97.9339 7.54 97.5839 7.7 97.1639 7.82C96.7439 7.92 96.1639 7.97 95.4239 7.97H92.1539ZM108.882 12.26C109.702 12.26 110.502 12.39 111.282 12.65C112.062 12.89 112.742 13.25 113.322 13.73C113.922 14.21 114.392 14.8 114.732 15.5C115.072 16.18 115.222 16.95 115.182 17.81C115.142 18.57 114.932 19.23 114.552 19.79C114.192 20.35 113.722 20.82 113.142 21.2C112.582 21.58 111.942 21.88 111.222 22.1C110.502 22.32 109.772 22.48 109.032 22.58C108.292 22.66 107.562 22.68 106.842 22.64C106.142 22.6 105.522 22.51 104.982 22.37V23.87C105.002 24.75 105.202 25.44 105.582 25.94C105.962 26.42 106.422 26.78 106.962 27.02C107.502 27.26 108.072 27.41 108.672 27.47C109.292 27.53 109.842 27.56 110.322 27.56H111.522H113.532V28.52C113.252 28.66 112.902 28.78 112.482 28.88C112.062 28.96 111.482 29 110.742 29H109.542C108.922 29 108.192 28.95 107.352 28.85C106.512 28.73 105.712 28.49 104.952 28.13C104.212 27.77 103.582 27.25 103.062 26.57C102.542 25.87 102.292 24.93 102.312 23.75V18.98C102.312 18.02 102.462 17.13 102.762 16.31C103.062 15.49 103.492 14.78 104.052 14.18C104.612 13.58 105.292 13.11 106.092 12.77C106.912 12.43 107.842 12.26 108.882 12.26ZM112.662 17.66C112.702 17 112.622 16.43 112.422 15.95C112.242 15.45 111.972 15.03 111.612 14.69C111.252 14.35 110.832 14.1 110.352 13.94C109.892 13.76 109.402 13.67 108.882 13.67C107.682 13.67 106.732 14.06 106.032 14.84C105.332 15.62 104.982 16.63 104.982 17.87V20.96C106.082 21.06 107.092 21.07 108.012 20.99C108.932 20.91 109.722 20.74 110.382 20.48C111.062 20.22 111.602 19.86 112.002 19.4C112.402 18.94 112.622 18.36 112.662 17.66ZM125.205 14.03C124.725 14.03 124.165 14.06 123.525 14.12C122.905 14.18 122.315 14.34 121.755 14.6C121.195 14.86 120.725 15.26 120.345 15.8C119.985 16.32 119.825 17.04 119.865 17.96V23.66C119.825 24.58 119.985 25.3 120.345 25.82C120.725 26.34 121.195 26.73 121.755 26.99C122.315 27.25 122.905 27.41 123.525 27.47C124.165 27.53 124.725 27.56 125.205 27.56H128.745V28.55C128.465 28.69 128.115 28.8 127.695 28.88C127.275 28.96 126.695 29 125.955 29H124.395C123.995 29 123.535 28.98 123.015 28.94C122.495 28.9 121.965 28.82 121.425 28.7C120.885 28.56 120.355 28.37 119.835 28.13C119.315 27.89 118.855 27.58 118.455 27.2C118.075 26.8 117.765 26.32 117.525 25.76C117.285 25.2 117.175 24.53 117.195 23.75V17.84C117.175 17.06 117.285 16.39 117.525 15.83C117.765 15.27 118.075 14.8 118.455 14.42C118.855 14.02 119.315 13.71 119.835 13.49C120.355 13.25 120.885 13.07 121.425 12.95C121.965 12.81 122.495 12.72 123.015 12.68C123.535 12.64 123.995 12.62 124.395 12.62L125.955 12.59C126.695 12.59 127.275 12.64 127.695 12.74C128.115 12.82 128.465 12.93 128.745 13.07V14.03H125.205ZM133.52 23.66C133.5 24.44 133.62 25.08 133.88 25.58C134.16 26.06 134.51 26.45 134.93 26.75C135.35 27.03 135.82 27.23 136.34 27.35C136.86 27.45 137.36 27.52 137.84 27.56V29C137.42 29 136.96 28.98 136.46 28.94C135.96 28.9 135.44 28.82 134.9 28.7C134.38 28.56 133.87 28.37 133.37 28.13C132.89 27.89 132.46 27.58 132.08 27.2C131.7 26.8 131.4 26.32 131.18 25.76C130.96 25.2 130.86 24.53 130.88 23.75V21.26V17.87V17.84V9.47H133.52V14.09C134.26 13.75 135.03 13.54 135.83 13.46C136.63 13.36 137.32 13.31 137.9 13.31V14.81C137.44 14.85 136.95 14.92 136.43 15.02C135.93 15.12 135.47 15.3 135.05 15.56C134.63 15.82 134.27 16.18 133.97 16.64C133.69 17.08 133.54 17.66 133.52 18.38V23.66ZM146.321 12.26C147.161 12.26 147.971 12.38 148.751 12.62C149.531 12.84 150.221 13.18 150.821 13.64C151.421 14.08 151.901 14.63 152.261 15.29C152.621 15.93 152.801 16.66 152.801 17.48V24.17C152.801 24.99 152.621 25.72 152.261 26.36C151.901 27 151.421 27.55 150.821 28.01C150.221 28.45 149.531 28.79 148.751 29.03C147.971 29.27 147.161 29.39 146.321 29.39C145.481 29.39 144.671 29.27 143.891 29.03C143.111 28.79 142.421 28.45 141.821 28.01C141.221 27.55 140.741 27 140.381 26.36C140.021 25.72 139.841 24.99 139.841 24.17V17.48C139.841 16.66 140.021 15.93 140.381 15.29C140.741 14.63 141.221 14.08 141.821 13.64C142.421 13.18 143.111 12.84 143.891 12.62C144.671 12.38 145.481 12.26 146.321 12.26ZM150.161 17.57C150.161 16.43 149.831 15.5 149.171 14.78C148.511 14.04 147.561 13.67 146.321 13.67C145.081 13.67 144.131 14.04 143.471 14.78C142.811 15.5 142.481 16.43 142.481 17.57V24.05C142.481 25.19 142.811 26.13 143.471 26.87C144.131 27.59 145.081 27.95 146.321 27.95C147.561 27.95 148.511 27.59 149.171 26.87C149.831 26.13 150.161 25.19 150.161 24.05V17.57ZM161.95 12.62H164.74V13.55C164.46 13.69 164.11 13.79 163.69 13.85C163.27 13.91 162.69 13.97 161.95 14.03C161.47 14.07 160.96 14.15 160.42 14.27C159.9 14.39 159.42 14.6 158.98 14.9C158.56 15.18 158.21 15.57 157.93 16.07C157.67 16.55 157.55 17.18 157.57 17.96V29H154.9V17.93C154.9 17.33 154.99 16.72 155.17 16.1C155.35 15.48 155.69 14.91 156.19 14.39C156.71 13.87 157.43 13.45 158.35 13.13C159.27 12.79 160.47 12.62 161.95 12.62Z" fill="black"/>
<path d="M0 9.30461C0 4.2066 4.13276 0.0738449 9.23077 0.0738449H26.7692C31.8672 0.0738449 36 4.2066 36 9.30462V26.8431C36 31.9411 31.8672 36.0738 26.7692 36.0738H9.23077C4.13276 36.0738 0 31.9411 0 26.8431V9.30461Z" fill="#1FBFAB"/>
<path d="M21.8585 1.92C21.2185 1.92 20.4851 1.96 19.6585 2.04C18.8318 2.12 18.0451 2.33333 17.2985 2.68C16.5518 3.02667 15.9251 3.54667 15.4185 4.24C14.9385 4.93333 14.7118 5.89333 14.7385 7.12V13.8H25.3785V15.08C25.0051 15.2667 24.5385 15.4267 23.9785 15.56C23.4185 15.6667 22.6451 15.72 21.6585 15.72H14.7385V29.92H11.1785V7C11.1518 5.45333 11.4851 4.21333 12.1785 3.28C12.8718 2.34667 13.7118 1.64 14.6985 1.16C15.7118 0.679999 16.7785 0.373333 17.8985 0.239999C19.0185 0.0799998 19.9918 0 20.8185 0H25.9385C26.8985 0 27.6585 0.0533334 28.2185 0.16C28.8051 0.266667 29.2851 0.413334 29.6585 0.599999V1.92H21.8585Z" fill="black"/>
</svg>
